<?xml version="1.0" standalone="no"?>
<!DOCTYPE svg PUBLIC "-//W3C//DTD SVG 1.1//EN" "http://www.w3.org/Graphics/SVG/1.1/DTD/svg11.dtd" >
<svg xmlns="http://www.w3.org/2000/svg" xmlns:xlink="http://www.w3.org/1999/xlink" version="1.1">
<metadata>
Created by FontForge 20150913 at Tue Mar 29 14:12:45 2016
 By Jimmy Wärting
Copyright (c) 2014 WOOWA BROTHERS Corporation(www.woowahan.com) with Reserved Font Name "BM JUA "
</metadata>
<defs>
<font id="BMJUA" horiz-adv-x="800" >
  <font-face 
    font-family="BM JUA "
    font-weight="400"
    font-stretch="normal"
    units-per-em="1000"
    panose-1="2 2 6 3 2 1 1 2 1 1"
    ascent="800"
    descent="-200"
    x-height="387.5"
    cap-height="626"
    bbox="-5.74074 -323.048 963 772.111"
    underline-thickness="25"
    underline-position="-212"
    unicode-range="U+0001-D7A3"
  />
<missing-glyph horiz-adv-x="1000" 
d="M100 -42v800h800v-800h-800zM150 8h700v700h-700v-700z" />
    <glyph glyph-name=".notdef" horiz-adv-x="1000" 
d="M100 -42v800h800v-800h-800zM150 8h700v700h-700v-700z" />
    <glyph glyph-name=".null" horiz-adv-x="250" 
 />
    <glyph glyph-name="nonmarkingreturn" horiz-adv-x="250" 
 />
    <glyph glyph-name="space" unicode=" " horiz-adv-x="250" 
 />
    <glyph glyph-name="space" unicode="&#xa0;" horiz-adv-x="250" 
 />
    <glyph glyph-name="numbersign" unicode="#" horiz-adv-x="838" 
d="M651 605q6 -13 0 -37q-5 -26 -10.5 -53t-10.5 -53q9 0 22 -0.5t26.5 -3t25 -6.5t16.5 -10q4 -6 6.5 -17t0.5 -22.5t-9 -21t-21 -11.5q-4 -2 -27.5 -3t-61.5 -1l-30 -171q12 0 29.5 1t40.5 -1q21 -1 30.5 -14t8.5 -33q0 -21 -15 -31t-36 -13.5t-44.5 -3.5h-40.5
q-2 0 -5 -14.5t-6.5 -32t-6.5 -33.5t-4 -19q-4 -17 -7 -33.5t-10 -30.5t-18.5 -24t-31.5 -13q-16 -2 -29.5 3t-23.5 15t-14.5 24t-2.5 29t5.5 29.5t7.5 28.5q4 17 8 35.5t7 35.5h-119q-6 -25 -11.5 -50t-11.5 -51q-5 -22 -13.5 -44.5t-28.5 -35.5q-18 -13 -40.5 -16
t-40.5 15q-12 12 -14 28t1 33t8.5 33.5t8.5 30.5t6.5 28.5t6.5 28.5h-30.5t-33.5 4t-27 13.5t-11 27.5q0 19 8.5 34.5t30.5 16.5q20 0 43 -0.5t43 -0.5l40 171h-56q-11 0 -22.5 1.5t-21 6t-15 13t-5.5 21.5q0 16 7.5 26.5t19.5 16.5t26 8.5t27 2.5h63q4 19 8.5 43t12 47.5
t18 44.5t27.5 35q19 16 37 18.5t31 -5.5t18.5 -26t-0.5 -43q-7 -28 -13.5 -57t-12.5 -57h117l2.5 11.5t5.5 25.5t6 26t3 14q6 23 19.5 52.5t34.5 43.5q10 6 22 7t23.5 -2.5t20.5 -12.5t13 -22zM322 195h121l38 171h-120z" />
    <glyph glyph-name="dollar" unicode="$" horiz-adv-x="626" 
d="M373 -110q-9 -13 -25 -19t-32.5 -4t-30 11.5t-17.5 26.5q-1 2 -1.5 11t-1 18.5t-1 17.5l-0.5 8q-23 3 -53.5 8.5t-53.5 13.5q-15 6 -31.5 12.5t-31.5 15t-27.5 20t-18.5 27.5q-5 12 -6.5 25.5t2 26.5t12 23t23.5 13q10 3 20 -0.5t19 -9.5t18 -13.5t18 -11.5
q23 -9 53.5 -16.5t56.5 -11.5v174q-18 6 -40.5 11t-36.5 9q-13 5 -23.5 8.5t-18.5 8.5q-44 17 -64 53q-10 18 -15 36.5t-5 41.5q0 20 4 37.5t10 32.5q12 30 39 52q12 12 27.5 20t33.5 16q17 8 43 12t46 6v29.5t8 26.5q12 17 22 24t30 5q18 -2 32 -9t21 -25q0 -2 0.5 -10.5
t1.5 -18.5q1 -11 1 -25q32 -7 66.5 -17.5t62.5 -26.5q22 -14 35.5 -31.5t12.5 -43.5q-1 -14 -11 -27t-24 -15q-16 -2 -30 5.5t-27 14.5q-17 8 -39.5 16.5t-45.5 10.5v-138q21 -6 44 -15.5t40 -16.5q56 -23 82.5 -72.5t24.5 -106.5q-1 -38 -15 -70q-8 -14 -18 -26t-22 -22
q-12 -11 -26 -18.5t-31 -15.5q-17 -5 -38 -9.5t-41 -8.5q-1 0 -1.5 -6.5t0 -14.5t1 -15.5t0.5 -8.5q0 -17 -7 -29zM193 419q1 -8 7 -17.5t14 -15.5q9 -6 22 -9.5t28 -5.5v113q-33 -2 -54.5 -16.5t-16.5 -48.5zM460 151q-2 13 -9.5 24.5t-19 20.5t-25 15.5t-26.5 9.5
q0 -35 1.5 -70.5t0.5 -70.5q15 -2 30 2.5t26 14t17.5 23.5t4.5 31z" />
    <glyph glyph-name="uni0025" unicode="%" horiz-adv-x="774" 
d="M627 -109q-33 -8 -64 -9t-63 13q-24 10 -44 36.5t-28 51.5q-9 32 -7 64t8 65q7 29 28.5 55.5t50.5 35.5q23 8 47 9.5t47 -1.5q22 -1 42 -7.5t37 -20.5q8 -7 15 -18.5t12 -24t8.5 -25.5t4.5 -24q5 -38 2.5 -70t-15.5 -67q-10 -29 -32 -42.5t-49 -20.5zM616 590v-2
q2 -21 -8 -41t-21 -37l-28 -52l-28 -52q-38 -68 -75.5 -135t-75.5 -136q-16 -29 -31.5 -58.5t-32.5 -59.5q-9 -15 -19.5 -34t-24 -35t-30.5 -25t-39 -6q-14 2 -23 13t-10 25q0 23 11 44t22 41q14 27 29.5 53.5t30.5 52.5q38 69 76 137t76 137q14 28 30 56t31 55q8 14 17 29
t20 28.5t24 23.5t30 13q17 4 32 -6t17 -29zM259 328q-32 -8 -66.5 -8t-66.5 14q-24 9 -41.5 35.5t-25.5 50.5q-8 33 -6.5 65t7.5 64q7 29 29 55.5t51 36.5q23 8 47 9.5t47 0.5q22 -2 41.5 -8.5t36.5 -20.5t26.5 -34t11.5 -41q5 -38 1.5 -77.5t-14.5 -75.5
q-11 -27 -31.5 -42.5t-46.5 -23.5zM589 -34q17 2 25 11q15 14 18.5 36t2.5 40q0 15 -5.5 36.5t-22.5 30.5q-14 8 -31 8.5t-31 -6.5t-20.5 -19t-7.5 -27q-2 -12 -3 -29t1.5 -33.5t10.5 -30t25 -16.5q8 -2 18.5 -2.5t19.5 1.5zM222 403q8 1 13.5 4t10.5 8q15 15 16.5 37.5
t1.5 41.5q0 16 -4 35.5t-21 27.5q-15 8 -31 9.5t-30 -6.5q-16 -8 -22 -19.5t-9 -26.5q-1 -11 -1.5 -28.5t2 -34.5t10.5 -30.5t25 -16.5q8 -1 18.5 -2t20.5 1z" />
    <glyph glyph-name="ampersand" unicode="&#x26;" horiz-adv-x="766" 
d="M266 -111q-11 2 -22 3.5t-22 4.5q-40 8 -76.5 29t-54.5 60q-16 32 -21.5 69t-2.5 72q2 35 14.5 71t37.5 61q2 2 8 7.5t13 11.5t13 10.5t7 3.5q-20 25 -31.5 55t-14.5 61.5t0.5 63t13.5 59.5q16 47 50 75t77 38.5t89 5t85 -26.5q45 -22 65.5 -65.5t24.5 -91.5
q2 -25 1.5 -51t-6.5 -51t-19 -47t-36 -38q9 -8 18.5 -18.5t14.5 -18.5q11 -14 21 -37l22 -47q-1 2 2.5 7.5t8.5 11.5t9.5 11.5t5.5 6.5q8 11 19 23t23.5 21.5t26.5 13.5t29 0q14 -4 18.5 -13.5t2.5 -22t-8.5 -26t-14 -26t-14.5 -22.5t-11 -15q-9 -14 -17.5 -26.5
t-17.5 -25.5q-1 -2 -8.5 -10.5t-6.5 -10.5q6 -12 19.5 -36.5t21.5 -50.5t5 -48.5t-29 -29.5q-19 -5 -38.5 5t-31.5 24q-2 2 -7.5 10t-11 17.5t-9 18.5t-1.5 13q-19 -23 -39.5 -41.5t-47.5 -29.5q-35 -14 -72 -17.5t-75 -0.5zM337 -4q15 2 32 8.5t33 16.5t28.5 22.5
t18.5 27.5q2 7 -1 16.5t-8 19.5t-10 19t-8 15q-8 19 -20.5 38t-29.5 29q-37 22 -78 17q-39 -4 -68.5 -30t-32.5 -69q-2 -23 1 -48.5t16 -43.5q19 -24 56 -33.5t71 -4.5zM335 338q33 2 48 23t18 49q3 15 4 29.5t-1 28.5t-9 26.5t-22 22.5q-21 15 -49 17t-51 -13
q-19 -11 -28 -26.5t-11 -35.5q-3 -24 1.5 -47.5t16.5 -41t32.5 -27t50.5 -5.5z" />
    <glyph glyph-name="quotesingle" unicode="'" horiz-adv-x="353" 
d="M126 550q-15 15 -14 34.5t1 39.5l1 77q1 48 21.5 64t65.5 -4q18 -8 22 -27.5t4 -40.5v-77q0 -19 -1.5 -39t-20.5 -32q-18 -11 -41.5 -10t-37.5 15z" />
    <glyph glyph-name="parenleft" unicode="(" horiz-adv-x="341" 
d="M286 -140q-8 -13 -26.5 -17.5t-33.5 1.5q-14 5 -26.5 16t-23.5 25t-20.5 28.5t-16.5 26.5q-13 24 -23.5 48.5t-18.5 50.5q-8 25 -14 50.5t-9 53.5q-4 26 -5 55.5t-1 58.5q0 23 2 50t7 57q5 32 12 61.5t16 60.5q10 31 21 60.5t26 58.5q11 23 25.5 48t37.5 41q12 7 29 10.5
t32 1.5q18 -2 22 -10t0.5 -19t-11 -23t-11.5 -22q-14 -37 -26 -72.5t-20 -71.5q-26 -115 -26 -230q0 -57 6 -111q4 -25 8 -49.5t12 -50.5q6 -24 13.5 -49t17.5 -48q6 -17 17.5 -37.5t9.5 -39.5q0 -4 -0.5 -6.5t-1.5 -6.5z" />
    <glyph glyph-name="parenright" unicode=")" horiz-adv-x="346" 
d="M68 -140q-1 4 -1.5 6.5t-0.5 6.5q-2 19 9.5 39.5t17.5 37.5q10 23 17.5 48t13.5 49q8 26 12 50.5t8 49.5q6 54 6 111q0 115 -26 230q-8 36 -20 71.5t-26 72.5q-5 10 -12 22t-10.5 23t0.5 19t22 10q15 2 32 -1.5t29 -10.5q23 -16 37.5 -41t25.5 -48q15 -29 26 -58.5
t21 -60.5q9 -31 16 -60.5t12 -61.5q5 -30 7 -57t2 -50q0 -29 -1 -58.5t-5 -55.5q-3 -28 -9 -53.5t-14 -50.5q-8 -26 -18.5 -50.5t-23.5 -48.5q-8 -12 -17 -26.5t-20 -28.5t-23.5 -25t-26.5 -16q-15 -6 -33.5 -1.5t-26.5 17.5z" />
    <glyph glyph-name="asterisk" unicode="*" horiz-adv-x="569" 
d="M506 352q11 -9 12 -23q2 -12 -3 -25.5t-16 -19.5t-26 -4.5t-27 1.5h-77q11 -18 22.5 -35.5t22.5 -35.5q5 -8 10 -18t7 -20q2 -7 2.5 -14.5t-3.5 -14.5q-11 -18 -25.5 -22t-29.5 1.5t-28.5 17.5t-21.5 24q-11 17 -21.5 32.5t-21.5 32.5l-48 -75q-6 -10 -14 -21.5
t-20 -16.5q-14 -6 -25 -6.5t-23 6.5q-16 10 -20.5 22t-2.5 24.5t9 25.5t15 25q11 17 22.5 34t22.5 34q-20 0 -39 -1l-38 -2h-25.5t-24.5 6q-18 11 -20.5 33.5t14.5 36.5q14 11 34.5 9.5t37.5 -1.5h61q-16 23 -29 44q-12 17 -25.5 39t-8.5 45q3 16 17 23.5t31 5.5
q18 -1 35.5 -18t27.5 -32l36 -57q12 19 24 37t24 37q8 11 15.5 20t21.5 15q12 5 27 3.5t24 -12.5q13 -18 11 -38.5t-12 -40.5t-24 -38t-24 -33h70h34t33 -10z" />
    <glyph glyph-name="plus" unicode="+" horiz-adv-x="545" 
d="M320 366l112 -1q17 3 25.5 -2t22.5 -16t14 -31q0 -10 -3.5 -21t-9.5 -16q-8 -8 -17 -11.5t-17.5 -5t-14 -1.5h-6.5h-106v-116q3 -17 -2 -34.5t-16 -31.5t-31 -14q-10 0 -26 3.5t-21 9.5q-8 8 -11.5 20.5t-5 24.5t-1.5 20.5v9.5l-1 107h-84q-11 0 -18.5 -0.5t-14 1
t-12.5 4.5t-14 10q-21 15 -21 37q0 14 8.5 27.5t24.5 18.5q10 3 16.5 5t12 3t12 1.5t17.5 0.5l73 -1v77q-1 23 0 47.5t15 41.5q8 11 22 17t25 6q14 0 27.5 -9.5t18.5 -25.5q7 -21 6.5 -43t0.5 -45v-67z" />
    <glyph glyph-name="comma" unicode="," horiz-adv-x="285" 
d="M58 -127q-14 2 -22 16q-5 7 -4.5 18.5t4 24t8.5 24.5t11 21t17 25t24 32.5t26.5 30t24.5 16.5q13 3 26.5 -2.5t23 -15t14 -22t-0.5 -23.5q-4 -9 -16 -22t-26 -26.5t-27 -26t-19 -19.5q-5 -7 -12.5 -16t-16 -17.5t-17.5 -13.5t-18 -4z" />
    <glyph glyph-name="hyphen" unicode="-" horiz-adv-x="474" 
d="M358 381q17 4 34.5 -2t32.5 -20q7 -7 10.5 -17t3.5 -21q0 -12 -3.5 -25.5t-9.5 -20.5q-8 -9 -21 -14t-25 -6.5t-20.5 -1.5h-9.5l-196 -1q-12 -1 -24.5 -1.5t-24.5 1t-22.5 6t-19.5 12.5q-11 11 -17 21.5t-6 24.5q0 17 9.5 33.5t26.5 22.5q21 9 43.5 8.5t45.5 0.5h193z
" />
    <glyph glyph-name="period" unicode="." horiz-adv-x="200" 
d="M163 -86q0 -26 -18.5 -44.5t-44.5 -18.5t-44.5 18.5t-18.5 44.5t18.5 45t44.5 19t44.5 -19t18.5 -45z" />
    <glyph glyph-name="slash" unicode="/" horiz-adv-x="479" 
d="M101 -101q-12 0 -23 4t-19 11t-12 17t-2 23q-6 18 -1 32.5t13 29.5h-1q35 78 68.5 153.5t70.5 150.5q33 70 61 132t55 122q5 11 12 22t16 17.5t21 8.5t29 -5q26 -11 38.5 -31t7.5 -46q-14 -36 -22.5 -58.5t-17 -41.5t-18.5 -39t-25.5 -52t-38 -80.5t-56.5 -124.5
q-18 -41 -36.5 -78t-36.5 -74q-6 -11 -13 -26.5t-15 -33.5q-8 -17 -23 -25t-32 -8z" />
    <glyph glyph-name="zero" unicode="0" horiz-adv-x="612" 
d="M307 -83q-18 0 -36.5 2.5t-36.5 9.5q-27 11 -51.5 29.5t-44.5 41.5q-48 54 -73 127.5t-25 149.5q0 104 40 201q7 17 18.5 36t26 36.5t30 31.5t31.5 21q22 10 48 20q32 10 72 9t73 -9q46 -11 79 -39.5t56 -68t36 -86t19 -94.5q4 -32 3 -63.5t-5 -63.5q-4 -29 -9.5 -58
t-14.5 -56t-23 -51.5t-35 -45.5q-38 -37 -82.5 -57.5t-95.5 -22.5zM306 500q-14 0 -27.5 -2.5t-25.5 -10.5q-14 -9 -25 -22t-19 -27q-21 -36 -29 -77t-8 -83q0 -43 9.5 -89t34.5 -84q12 -18 28.5 -31.5t38.5 -19.5q20 -5 40.5 -3t38.5 13q29 18 46 48t25.5 65t10 72t-0.5 67
t-10 63t-23.5 60t-41 44.5t-62.5 16.5z" />
    <glyph glyph-name="one" unicode="1" horiz-adv-x="411" 
d="M208 636q7 2 13 3.5t12 2.5q7 2 17.5 2.5t20 -1t18 -6t12.5 -13.5q4 -10 5.5 -23.5t1.5 -27.5t-0.5 -27.5t-0.5 -24.5v-511q0 -11 0.5 -22.5t-0.5 -23.5t-6 -22.5t-15 -17.5q-14 -11 -37.5 -11.5t-40.5 5.5q-18 6 -21.5 23t-3.5 34q-7 132 -6.5 258.5t0.5 260.5
q-2 -5 -13.5 -9t-26 -7t-27.5 -5t-17 -2q-26 -3 -47.5 5.5t-24.5 39.5q-4 32 14.5 50t47.5 27q32 11 62.5 22.5t62.5 20.5z" />
    <glyph glyph-name="two" unicode="2" horiz-adv-x="585" 
d="M158 401q-15 -23 -35.5 -28t-39.5 3t-31.5 26.5t-10.5 42.5q1 16 8 35t17.5 36.5t23 33t25.5 26.5q24 19 54.5 33t64 21t67 6t62.5 -10q80 -25 124 -79t44 -140q0 -41 -7.5 -73.5t-26 -62.5t-49 -61t-75.5 -68q-15 -13 -31 -26l-32 -26q-5 -4 -19 -12t-25 -16t-13 -15
t16 -8q22 -2 35 -1t35 1q26 0 51 1t50 -1q10 -1 22 -0.5t24 0t23 -3t19 -9.5t12 -19t4.5 -25.5t-2.5 -26t-10 -19.5q-13 -15 -32 -14.5t-36 0.5h-359q-10 0 -21.5 -1t-20.5 2q-18 5 -17.5 19t0.5 29q0 25 12 46.5t30.5 40t39.5 34.5t39 31q26 23 56 46t57 46q35 29 59.5 53
t39.5 45t22 41.5t7 43.5q0 51 -31 78.5t-79 27.5q-35 0 -65.5 -15t-50.5 -44q-6 -11 -11.5 -22.5t-12.5 -21.5z" />
    <glyph glyph-name="three" unicode="3" horiz-adv-x="550" 
d="M57 525q-13 12 -13 36q1 11 4 21.5t11 18.5q22 20 47 23t54 5q23 1 41 0.5t41 -0.5q35 0 76.5 -1t78.5 -3q15 -1 30 -4t27 -10.5t19.5 -19t8.5 -28.5q1 -20 -5.5 -38t-17.5 -34.5t-24.5 -31t-25.5 -26.5q-22 -23 -50 -49t-50 -49q39 -5 75.5 -18t64.5 -36t44.5 -57.5
t16.5 -82.5t-18.5 -89t-51.5 -71.5t-78 -47.5t-99 -17q-23 0 -49.5 4t-52.5 12t-49.5 20.5t-40.5 30.5q-12 12 -20.5 28.5t-10 34t6.5 32t28 21.5q15 5 29 4t27 -6.5t25.5 -12.5t24.5 -14q37 -23 77.5 -27t79.5 19q22 13 32 32.5t8.5 39.5t-13 38t-31.5 30q-19 11 -42 15
l-46 8t-44 11t-36 24q-17 19 -11 41t22.5 43t37 40t32.5 32q7 7 16.5 17t18 20t15 19.5t8.5 17.5q3 8 -3 11.5t-15 4t-19.5 0t-16.5 -0.5h-67q-14 0 -31 -0.5t-34.5 1t-34 5.5t-27.5 14z" />
    <glyph glyph-name="four" unicode="4" horiz-adv-x="628" 
d="M460 612q7 -11 9 -28q5 -35 4.5 -71.5t0.5 -71.5q0 -41 0.5 -81t0.5 -81v-85h43q11 0 23 -2.5t22 -8.5t17 -15t8 -22q0 -32 -20 -43.5t-48 -13.5q-2 0 -8.5 -0.5t-14.5 -0.5h-14.5t-7.5 2v-68v-25t-2 -27.5t-7.5 -25.5t-16.5 -19q-5 -3 -12.5 -4.5t-16.5 -2.5t-17.5 -0.5
t-14.5 2.5q-18 6 -23 25.5t-7 36.5v19.5v35t-1 33.5t-3 15h-176q-29 0 -61 1t-55 18q-18 13 -21 29.5t2.5 33t16.5 32.5t21 29q38 51 73.5 104t71.5 105q20 27 41.5 52t40.5 52q14 21 30.5 43t41.5 34q24 11 46 11t34 -17zM361 432l-166 -234h166v234z" />
    <glyph glyph-name="five" unicode="5" horiz-adv-x="577" 
d="M103 613q9 9 23.5 11.5t34.5 2.5h247q13 0 29.5 0.5t31.5 -2.5t26.5 -10.5t16.5 -23.5q3 -10 2.5 -23t-5 -24.5t-13.5 -20t-22 -9.5q-26 -5 -54 -2.5t-54 2.5q-29 0 -51 -2t-50 -2q-11 0 -28 1t-26 -2q-8 -2 -12.5 -8t-6.5 -13.5t-2 -15.5v-14q0 -17 -1.5 -34.5
t-2.5 -34.5q-2 -23 6.5 -25.5t29.5 3.5q36 9 74 9q51 0 95 -13.5t76.5 -41t51 -69t18.5 -96.5q0 -10 -0.5 -19t-2.5 -18q-8 -63 -47 -111t-99 -69q-71 -27 -147 -24.5t-140 43.5q-18 11 -33 26.5t-22 35.5q-8 21 -4.5 43.5t26.5 33.5q17 8 31.5 5.5t27.5 -10t25.5 -18
t25.5 -17.5q23 -11 48 -18.5t53 -7.5q62 0 99.5 33t37.5 89q0 54 -39 84.5t-105 30.5q-17 0 -34 -2t-34 -7q-16 -4 -31.5 -9t-30.5 -6.5t-29.5 3t-27.5 20.5q-13 14 -13 34t2 37q2 29 3 58t3 58t3.5 57.5t3.5 57.5q1 17 5 27t11 17z" />
    <glyph glyph-name="six" unicode="6" horiz-adv-x="618" 
d="M467 472q-9 6 -19 12.5t-21 10.5q-35 14 -76.5 15.5t-77.5 -15.5q-29 -14 -48.5 -35t-31.5 -47t-18 -55t-7 -58q27 27 66 48.5t100 21.5q51 0 95.5 -14.5t77.5 -42.5t52 -69t19 -94t-20 -96.5t-54.5 -75t-82 -49t-102.5 -17.5q-64 0 -111.5 19.5t-82.5 53.5
q-20 20 -35.5 44.5t-26.5 56t-17 72.5t-6 94q0 44 6 89t20.5 87t38.5 79t60 66q34 27 74 42t82 17t84 -8t79 -33q10 -6 23 -17.5t22 -25.5t11 -31.5t-10 -35.5q-2 -4 -9 -8t-16 -6t-19 -1t-19 6zM312 250q-34 -2 -64 -17.5t-52 -41.5q-14 -17 -16 -38.5t3 -42.5
q4 -25 20 -43.5t37.5 -30t47 -16t49.5 -1.5q27 3 49.5 14.5t38.5 29t24.5 41t5.5 50.5q-3 29 -15 48.5t-31 30.5t-44 14.5t-53 2.5z" />
    <glyph glyph-name="seven" unicode="7" horiz-adv-x="605" 
d="M62 615q12 6 27 7.5t32 1.5h362q14 0 30 1t29 -6q18 -10 21 -31.5t-3.5 -48t-19.5 -56t-27 -56t-26.5 -48t-18.5 -32.5q-16 -30 -29.5 -55t-26 -50t-26 -50t-29.5 -55q-20 -41 -45.5 -85.5t-48.5 -83.5q-7 -12 -16 -24t-20.5 -20t-26 -10t-31.5 6q-26 14 -33.5 41t4.5 50
q19 34 37 68.5t36 68.5q27 51 50.5 98t50.5 98q8 15 22 36.5t26.5 44.5t20 45.5t4.5 39.5q-35 3 -63.5 2.5t-62.5 -0.5h-97q-18 0 -38.5 -1t-38.5 2.5t-30.5 14.5t-15.5 36q-2 21 4 33t17 18z" />
    <glyph glyph-name="eight" unicode="8" horiz-adv-x="581" 
d="M293 -85q-30 0 -61.5 3t-61 12.5t-55 26.5t-42.5 44q-19 29 -26.5 62.5t-5.5 68.5q5 54 36.5 92t79.5 58q-4 0 -12.5 5t-17.5 12t-16.5 13.5t-10.5 8.5q-12 13 -19.5 30t-12.5 34q-13 45 -3 94.5t41 86.5q13 16 33 28.5t43 21t46.5 13.5t42.5 5q26 0 51 1t50 -3
q31 -5 57.5 -20t46.5 -37q40 -44 51.5 -98.5t-3.5 -111.5q-5 -16 -15 -29.5t-23 -25.5q-3 -2 -10 -7t-15.5 -10.5t-16.5 -9t-12 -2.5q24 -15 46 -29.5t36 -40.5t20.5 -55t5 -58t-11.5 -56.5t-29 -49.5t-43.5 -36.5t-51.5 -23.5t-55.5 -13t-55.5 -4zM295 207q-22 -1 -44.5 -6
t-41 -15.5t-31.5 -28t-16 -43.5q-2 -20 5.5 -35.5t20 -27t29.5 -18t34 -8.5q40 -6 77 1q14 3 26.5 5.5t23 7.5t19 13.5t14.5 23.5q9 21 7.5 47.5t-16.5 43.5q-22 26 -48.5 34t-58.5 6zM296 524q-23 -2 -44 -7t-37 -16t-24.5 -29t-7.5 -45q1 -19 6 -35.5t19 -30.5
q17 -20 41 -23.5t48 -2.5q37 0 64.5 11t44.5 47q13 29 7 54t-23 42.5t-42.5 27t-51.5 7.5z" />
    <glyph glyph-name="nine" unicode="9" horiz-adv-x="589" 
d="M270 -88q-46 0 -88.5 10.5t-77.5 41.5q-13 12 -24.5 27.5t-16 31t0.5 31t25 27.5q13 8 23.5 8t20 -5t18 -13.5t17.5 -16.5q23 -19 49.5 -25t55.5 -6q33 0 61 16t47.5 42t28.5 59t4 66q-29 -17 -66 -26.5t-71 -9.5q-54 0 -97.5 15.5t-74.5 44t-48 69.5t-17 91
q0 52 18 96.5t51 77t79 51t102 18.5q64 0 107.5 -18.5t79.5 -55.5q37 -39 54.5 -102t17.5 -166q0 -84 -18.5 -154t-53.5 -120t-87.5 -77.5t-119.5 -27.5zM293 512q-18 1 -35.5 -1.5t-31.5 -7.5q-27 -11 -43 -35.5t-20 -53.5t4.5 -58t30.5 -48q19 -18 45 -24t52.5 -3t50.5 15
t40 31t21.5 40.5t2 43t-14.5 41t-27 34.5q-14 11 -33.5 17.5t-41.5 8.5z" />
    <glyph glyph-name="colon" unicode=":" horiz-adv-x="233" 
d="M181 74q0 -26 -18.5 -44.5t-44.5 -18.5t-44.5 18.5t-18.5 44.5t18.5 45t44.5 19t44.5 -19t18.5 -45zM181 444q0 -26 -18.5 -44.5t-44.5 -18.5t-44.5 18.5t-18.5 44.5t18.5 45t44.5 19t44.5 -19t18.5 -45z" />
    <glyph glyph-name="semicolon" unicode=";" horiz-adv-x="254" 
d="M181 444q0 -26 -18.5 -44.5t-44.5 -18.5t-44.5 18.5t-18.5 44.5t18.5 45t44.5 19t44.5 -19t18.5 -45zM28 -76q-14 2 -22 16q-5 7 -4.5 18.5t4 24t8.5 24.5t11 21t17 25t24 32.5t26.5 30t24.5 16.5q13 3 26.5 -2.5t23 -15t14 -22t-0.5 -23.5q-4 -9 -16 -22t-26 -26.5
t-27 -26t-19 -19.5q-5 -7 -12.5 -16t-16 -17.5t-17.5 -13.5t-18 -4z" />
    <glyph glyph-name="less" unicode="&#x3c;" horiz-adv-x="547" 
d="M483 607q0 -15 -4 -29t-14 -25q-4 -6 -14 -15.5t-27 -26.5q-42 -35 -79.5 -74t-72.5 -82q-12 -14 -24 -29t-19 -31t-6.5 -34t14.5 -37q25 -35 53 -67t60 -63q19 -20 38.5 -39t37.5 -38q24 -24 29 -50.5t-5 -46.5t-32.5 -29t-53.5 3q-16 7 -31 18.5t-29 26t-27 29.5
t-24 28q-188 207 -188 274q0 51 73 148q28 35 62 73.5t76 76.5q26 26 53.5 51.5t60.5 43.5q14 7 30.5 6.5t30.5 -8t23 -21.5t9 -33z" />
    <glyph glyph-name="equal" unicode="=" horiz-adv-x="515" 
d="M384 227q17 4 34.5 -2t32.5 -20q7 -7 10.5 -17t3.5 -21q0 -12 -3.5 -25.5t-9.5 -20.5q-8 -9 -21 -14t-25 -6.5t-20.5 -1.5h-9.5l-217 -1q-12 -1 -24.5 -1.5t-24.5 1t-22.5 6t-19.5 12.5q-11 11 -17 21.5t-6 24.5q0 17 9.5 33.5t26.5 22.5q21 9 43.5 8.5t45.5 0.5h214z
M384 488q17 4 34.5 -2t32.5 -20q7 -7 10.5 -17t3.5 -21q0 -12 -3.5 -25.5t-9.5 -20.5q-8 -9 -21 -14t-25 -6.5t-20.5 -1.5h-9.5l-217 -1q-12 -1 -24.5 -1.5t-24.5 1t-22.5 6t-19.5 12.5q-11 11 -17 21.5t-6 24.5q0 17 9.5 33.5t26.5 22.5q21 9 43.5 8.5t45.5 0.5h214z" />
    <glyph glyph-name="greater" unicode="&#x3e;" horiz-adv-x="542" 
d="M52 607q0 19 9 33t23 21.5t30.5 8t30.5 -6.5q33 -18 60.5 -43.5t53.5 -51.5q42 -38 76 -76.5t62 -73.5q73 -97 73 -148q0 -67 -188 -274q-11 -13 -24 -28t-27 -29.5t-29 -26t-31 -18.5q-31 -12 -53.5 -3t-32.5 29t-5 46.5t29 50.5q18 19 37.5 38t38.5 39q32 31 60 63
t53 67q13 19 14 37t-6 34t-19 31t-24 29q-35 43 -72.5 82t-79.5 74q-17 17 -27 26.5t-14 15.5q-10 11 -14 25t-4 29z" />
    <glyph glyph-name="question" unicode="?" horiz-adv-x="564" 
d="M64 439q-4 26 -3.5 53t9.5 53q11 34 36 60t57 41q34 16 69.5 22.5t70 2.5t67 -17.5t61.5 -38.5q31 -27 46.5 -62.5t17 -73.5t-9 -75.5t-31.5 -69.5l-1 -2q-17 -23 -39 -41.5t-41 -39.5q-22 -23 -26 -46.5t-8 -52.5q-3 -28 -14.5 -48.5t-42.5 -19.5q-21 1 -31.5 13.5
t-15 30t-3.5 37t3 34.5q6 35 22 66.5t39 59.5q13 15 26 27.5t24 26.5t19 30t11 37q3 19 -3 38.5t-18 35t-29 26t-37 11.5q-18 1 -38 -4.5t-37 -17t-27.5 -27.5t-9.5 -36q1 -12 4.5 -24.5t5 -24t-1 -22.5t-13.5 -21q-18 -17 -36 -16.5t-33 11.5t-25.5 28.5t-13.5 35.5z
M352 -60q0 -29 -22 -52q-21 -22 -49 -22q-27 0 -48 22q-21 24 -21 52q0 31 21 52q21 23 48 23q28 0 49 -23q22 -22 22 -52z" />
    <glyph glyph-name="at" unicode="@" horiz-adv-x="882" 
d="M594 209q0 -12 2 -26t7 -22q10 -20 24 -22t26.5 5.5t23 20.5t14.5 22q7 18 10 40.5t2.5 45.5t-4 45t-8.5 41q-16 57 -50.5 97t-80.5 61.5t-99.5 23t-107.5 -17.5q-59 -21 -97 -60t-55.5 -88.5t-14.5 -106t26 -112.5q16 -41 43 -72t62.5 -52t76.5 -32t84 -11q11 0 34.5 1
t44.5 -2.5t33.5 -15.5t2.5 -38q-7 -18 -29 -27.5t-48.5 -13.5t-53 -4.5t-41.5 -0.5q-79 2 -151 32t-122 93q-49 60 -72 137t-18 153q4 40 14 82t28 80.5t44.5 71.5t62.5 56q42 28 90 45.5t99 23t104 -2t106 -31.5q59 -26 101.5 -65.5t68 -89.5t35 -109t3.5 -123
q-7 -58 -34.5 -110.5t-79.5 -84.5q-9 -6 -22 -11t-28 -5.5t-32 4t-35 17.5q-11 8 -19.5 19.5t-14.5 22t-9.5 18t-3.5 8.5q-2 -2 -10.5 -14.5t-21.5 -22.5q-8 -6 -21 -9.5t-27 -5t-28 -1.5t-24 2q-47 10 -76 33.5t-45 53.5t-19 65t3 70q8 46 34 79.5t60 49.5t71 11.5
t68 -34.5q-1 3 -1 9t1.5 13t3.5 13.5t4 9.5q9 11 23.5 14.5t28 0t24 -13t10.5 -24.5v-209zM485 193q3 8 7 15t6 17q7 34 -8.5 60.5t-39.5 37.5t-49 2t-38 -46q-15 -40 -4 -68t33.5 -40.5t49.5 -7.5t43 30z" />
    <glyph glyph-name="A" unicode="A" horiz-adv-x="699" 
d="M657 -18q1 -6 1.5 -11.5t0.5 -12.5q0 -12 -7 -22q-3 -5 -8 -9.5t-12 -7.5q-25 -14 -53 -10q-14 4 -25 13q-2 2 -3 2.5t-2 2.5q-1 1 -2 2.5t-3 2.5q-5 5 -8 9.5t-6 9.5q-2 5 -4.5 9.5t-5.5 9.5q-2 4 -4 7.5t-3 7.5q-4 9 -5 16l-21 49q-69 0 -137.5 -0.5t-137.5 0.5
l-21 -49q-2 -4 -2.5 -8t-2.5 -8t-3.5 -7.5t-3.5 -7.5q-3 -5 -5.5 -9.5t-5.5 -9.5q-2 -5 -5 -9.5t-8 -9.5q-2 -1 -3 -2.5t-2 -2.5q-1 -2 -2 -2.5t-3 -2.5q-11 -9 -25 -13q-28 -4 -53 10q-7 3 -12 7.5t-8 9.5q-7 10 -7 22q0 7 0.5 12.5t1.5 11.5q2 9 5 18l3 9l208 512l6 16
q2 6 5 11t5 12q5 13 11 23q3 6 7 11l8 10q6 8 17 13q14 5 32.5 5t32.5 -5q11 -5 17 -13q7 -9 15 -21q6 -10 11 -23q2 -7 5 -12t5 -11l6 -16l208 -512l3 -9t5 -18zM420 227q-13 29 -26.5 60t-28.5 63q-4 9 -8 18.5t-8 18.5q-3 -9 -7 -18.5t-8 -18.5q-15 -32 -28.5 -63
t-26.5 -60l-18 -44h177z" />
    <glyph glyph-name="B" unicode="B" horiz-adv-x="557" 
d="M434 283q29 -19 49.5 -44.5t32.5 -62.5q13 -41 13.5 -82.5t-15 -77t-49 -62t-87.5 -37.5q-29 -7 -68 -11t-70 -4q-39 -1 -80.5 -0.5t-80.5 8.5q-17 5 -24.5 17.5t-10.5 28.5q-4 9 -4 18v568q0 28 11.5 43.5t30.5 23t43 9t50 1.5q20 0 40.5 0.5t41.5 -0.5q33 -1 68.5 -5.5
t67.5 -16.5q15 -5 32 -14q17 -8 27 -20q32 -29 47.5 -67.5t13.5 -78t-21.5 -75.5t-57.5 -59zM259 18q31 2 63 7t44 19q13 16 18.5 37.5t3 44t-13 43t-27.5 32.5q-23 18 -53 23.5t-59 5.5q-14 0 -25.5 -0.5t-20 -3t-12.5 -9.5t-4 -21q2 -26 0 -52t-2 -50q0 -14 -0.5 -30.5
t10.5 -27.5t32 -15t46 -3zM279 498q-31 1 -51.5 1.5t-32 -3t-16 -15t-3.5 -34.5q0 -19 -0.5 -37.5t-0.5 -36.5q0 -20 13 -29.5t32.5 -11.5t41 0t37.5 5q36 6 55.5 24.5t22.5 54.5q4 45 -23.5 62.5t-74.5 19.5z" />
    <glyph glyph-name="C" unicode="C" horiz-adv-x="618" 
d="M571 82q13 -29 1 -56.5t-38 -50.5t-59.5 -40t-63.5 -24q-33 -7 -69.5 -6.5t-73 9t-71 25t-63.5 40.5q-35 29 -54.5 69.5t-28.5 86.5t-9.5 92.5t2.5 87.5q3 37 15 77t33.5 78.5t52 71.5t71.5 56q31 18 69.5 24.5t78 3t75 -17t60.5 -36.5q16 -14 33.5 -39t25.5 -51
t0.5 -48.5t-40.5 -30.5q-14 -4 -25 -1.5t-20 9t-17 15.5t-15 18q-24 29 -56 39.5t-63.5 5t-59 -26t-42.5 -52.5q-16 -34 -25.5 -74.5t-10.5 -82t7.5 -80.5t29.5 -69q16 -24 39.5 -39t50.5 -21t54.5 -2t53.5 18q8 4 17.5 11.5t19.5 15.5t20.5 15t22.5 10q18 6 39.5 -1
t32.5 -29z" />
    <glyph glyph-name="D" unicode="D" horiz-adv-x="608" 
d="M566 316q2 -33 -0.5 -68t-7.5 -68q-10 -57 -37 -111t-79 -92q-54 -40 -123 -54.5t-137 -17.5q-23 -2 -46.5 -1.5t-45.5 5.5q-18 3 -27 11q-5 3 -8 8t-5 10q-3 5 -4.5 10.5t-3.5 11.5q-1 5 -1.5 9.5t-0.5 8.5v571v13t2 12q2 14 6 23q4 12 11 17q6 5 12 7.5t11 4.5
q6 2 12.5 0.5t14.5 2.5l167 -4q66 -2 118 -30.5t89 -72.5t58 -98.5t25 -107.5zM380 126q19 30 28 69t8 79.5t-11 79t-28 68.5q-14 22 -36 36t-49 21.5t-57.5 10.5t-59.5 3q1 -29 1 -56v-57q-1 -36 -1 -70v-66v-204q31 1 59.5 3.5t55 11.5t49 25.5t41.5 45.5z" />
    <glyph glyph-name="E" unicode="E" horiz-adv-x="549" 
d="M177 502l-2 -157h40q41 1 73 1t71 -1h5q12 0 23.5 -0.5t22.5 -0.5q12 -1 23 -3.5t22 -5.5q17 -6 28 -18q10 -13 10 -29v-11.5t-2 -11.5q-2 -11 -13 -20q-5 -7 -19 -10q-13 -4 -26 -5q-14 -3 -28 -3h-47l-185 -1l-2 -196l199 -2h47h15t13 -1q8 -2 14.5 -2.5t12.5 -2.5
q12 -4 20 -11q10 -10 13 -21q1 -5 1.5 -10.5t-0.5 -11.5q0 -16 -10 -29q-12 -14 -28 -18q-21 -9 -46 -9q-11 -1 -23 -1t-23 -1h-6q-78 -2 -162 0q-20 0 -32 0.5t-21.5 0.5h-19.5h-26q-23 -2 -38 8q-11 7 -17 19q-3 3 -3 6q-1 2 -2 3t-2 3q-2 5 -3 10.5t-1 10.5q-1 5 -1.5 10
t-1.5 10v16q0 4 0.5 8t0.5 8v78l2 144v133q0 36 0.5 64t1.5 61v5q1 11 1.5 20.5t0.5 19.5q1 20 11 39q4 8 8.5 14t12.5 10q15 9 31 9q8 0 12 -1v1h29h21.5t22.5 0.5t33 0.5q40 1 76 1t74 -1h4q11 -1 23 -1t23 -1q11 0 22 -2.5t22 -6.5q17 -5 28 -17q9 -14 9 -28v-11.5
t-2 -10.5q-1 -10 -12 -21q-4 -2 -8.5 -5t-10.5 -5t-12.5 -2.5t-12.5 -1.5q-8 -2 -14.5 -2h-14.5h-45l-200 -1v-3z" />
    <glyph glyph-name="F" unicode="F" horiz-adv-x="544" 
d="M507 592q9 -12 11 -28q0 -6 -0.5 -11.5t-1.5 -10.5q-1 -11 -13 -21q-7 -5 -18 -10q-6 -2 -12.5 -2.5t-14.5 -1.5q-6 -2 -13 -2h-14h-45l-209 -1v-3l-1 -163h17.5t23.5 1h71.5t69.5 -1h6q11 0 22.5 -0.5t23.5 -0.5q11 -1 22 -2.5t22 -5.5q18 -6 26 -19q11 -13 11 -27
v-11.5t-2 -11.5q-1 -8 -13 -20q-8 -7 -19 -9q-5 -2 -11.5 -3.5t-13.5 -2.5t-13.5 -1.5t-14.5 -0.5h-46l-184 -1l-3 -232v-8q0 -5 -0.5 -9.5t-1.5 -9.5q-2 -5 -3.5 -10.5t-3.5 -10.5q-7 -14 -13 -19q-11 -8 -27 -11q-27 -6 -51 6q-5 3 -9.5 7.5t-7.5 11.5q-2 4 -2 6l-3 6
q-3 5 -4 10.5t-2 10.5q0 5 -0.5 10t-1.5 10q-1 8 0 16v16l1 78l1 144q1 32 1 65v68q-1 36 -0.5 64t2.5 61v5q1 11 1 20.5t2 19.5q2 22 10 39q7 17 20 24q15 9 32 9q8 0 13 -1v1h29h21t22 0.5t32 0.5q80 1 158 0h5q11 -1 22.5 -1t23.5 -1q11 0 22 -2.5t22 -6.5q17 -5 26 -17z
" />
    <glyph glyph-name="G" unicode="G" horiz-adv-x="609" 
d="M569 152q0 -30 -3 -60.5t-12 -59t-27 -54t-49 -44.5q-15 -10 -35.5 -16.5t-43 -11t-44.5 -6t-41 -0.5q-90 3 -145.5 43.5t-85 100.5t-38 130.5t-3.5 134.5q3 38 13.5 82t31 85t51 74t72.5 50q39 16 85.5 20.5t92 -3.5t85 -29t62.5 -56q16 -26 25 -63t3 -71
q-5 -30 -21 -41.5t-35 -9t-36.5 16t-23.5 34.5q-7 23 -17 42.5t-31 32.5q-24 15 -50.5 17t-51 -6t-46 -25t-35.5 -39q-17 -25 -26 -54.5t-13 -61t-2.5 -63t7.5 -60.5q11 -49 34 -92q9 -16 24.5 -28.5t34.5 -20t40 -9.5t40 3q27 7 44 18.5t27 27.5t13.5 35t3.5 40v1
q-13 0 -23 0.5t-15 0.5q-22 0 -43 8q-18 6 -27 19q-10 11 -10 27q0 6 0.5 11.5t1.5 11.5q3 8 13 20q6 5 19 8q6 2 12 3.5t14 2.5q6 1 13 1h14h91q11 1 25.5 -2.5t22.5 -10.5l6 -8t5 -9q4 -11 5 -22q1 -6 1.5 -12.5t0.5 -11.5v-41v0z" />
    <glyph glyph-name="H" unicode="H" horiz-adv-x="609" 
d="M568 573q1 -7 1 -13v-12v-41l-6 -519v-10q0 -6 -3 -18q-1 -5 -3 -10.5t-4 -11.5q-5 -12 -14 -18q-8 -8 -26 -11q-28 -6 -51 5q-13 8 -18 20q-2 2 -4 6q0 2 -2 6q-2 5 -3 10.5t-2 11.5q0 5 -0.5 10t-1.5 10q-2 5 -2 8.5v8.5q2 4 2 15l1 79l1 126h-54l-203 -1l-2 -236v-10
q0 -6 -3 -18q-1 -5 -3 -10.5t-4 -11.5q-5 -12 -14 -18q-8 -8 -26 -11q-28 -6 -51 5q-10 6 -19 20q-2 4 -2 6l-3 6q-2 5 -3 10.5t-2 11.5q0 5 -1 10l-2 10q-1 8 0 17v15l1 79l2 147q1 32 1 66v70q-1 36 -0.5 64t2.5 63v4q1 10 1 20.5t1 21.5q1 10 3.5 19.5t7.5 19.5
q3 8 8 13.5t12 10.5q16 8 32 8q8 0 14 -0.5t12 -1.5q12 -1 23 -12q8 -7 11 -16q5 -13 6 -23q1 -7 1 -13v-12v-41l-2 -165h18.5t24.5 1q52 0 103.5 -1t108.5 -1h1q0 45 0.5 86t2.5 86q0 10 0.5 20.5t1.5 21.5q1 10 3.5 19.5t7.5 19.5q2 8 7.5 13.5t13.5 10.5q14 8 31 8
q8 0 14.5 -0.5t11.5 -1.5q14 -2 23 -12q8 -5 11 -16q2 -6 3.5 -11.5t3.5 -11.5z" />
    <glyph glyph-name="I" unicode="I" horiz-adv-x="280" 
d="M71 5v15l1 79l1 147q1 32 1 66v70v64t2 63v4q1 10 1.5 20.5t0.5 21.5q1 18 11 39q7 14 21 24q16 8 31 8q8 0 14.5 -0.5t12.5 -1.5q13 -2 23 -12q6 -5 11 -16q2 -6 3.5 -11.5t2.5 -11.5q1 -7 1.5 -13t0.5 -12q0 -7 -0.5 -12.5t-0.5 -11.5v-17l-6 -519v-10q0 -3 -0.5 -7.5
t-1.5 -10.5q-2 -5 -3.5 -10.5t-3.5 -11.5q-3 -5 -6.5 -9.5t-8.5 -8.5q-8 -8 -26 -11q-27 -6 -51 5q-12 8 -17 20q-3 3 -3 6q-1 2 -2 3t-2 3q-2 5 -3 10.5t-1 11.5q-1 5 -1.5 10t-1.5 10q-1 8 0 17z" />
    <glyph glyph-name="J" unicode="J" horiz-adv-x="624" 
d="M579 597q10 -13 10 -26q1 -6 0.5 -15t-1.5 -14q-3 -10 -14 -20q-3 -3 -7 -5.5t-10 -4.5t-12 -2.5t-13 -1.5t-13 -1.5t-13 -0.5h-57v-17q-1 -90 3.5 -180t-1.5 -180q-3 -30 -9 -61.5t-19.5 -59t-35.5 -50.5t-56 -36q-32 -12 -70 -17t-76.5 -1t-73.5 17t-59 36
q-13 12 -24 29.5t-15 37t2 38t28 30.5q19 11 34.5 5t30 -19t30 -27t34.5 -18q41 -10 67 -0.5t41 30.5t21.5 51t8 61t0.5 60t0 49q1 53 0 104t-1 104v4q1 2 1 6h-3q-6 1 -25 1.5t-41 0.5t-41.5 0.5t-25.5 0.5h-14v1q-8 1 -16 3l-16 4q-19 6 -29 19q-5 5 -7.5 16t-2.5 19v11
t2 11q2 11 14 20q8 6 19 9q7 2 14 3t15 2q7 1 14 1h15h96h14t18 1h77t74 -1h6q11 0 21.5 -0.5t21.5 -0.5q23 -1 43 -9q16 -4 26 -17z" />
    <glyph glyph-name="K" unicode="K" horiz-adv-x="569" 
d="M524 -14q8 -15 1 -30q-5 -16 -17 -24q-6 -5 -11 -8.5t-11 -5.5q-11 -6 -26 -4q-6 0 -11 2t-10 5t-10.5 6.5t-10.5 7.5q-6 5 -11 9t-9 9q-5 5 -9 10t-8 9l-12 13l-192 201l3 -201v-9q0 -4 -1 -8.5t-2 -9.5q-3 -13 -7 -23q-2 -6 -5.5 -10t-7.5 -8q-11 -10 -26 -11
q-15 -5 -27.5 -3.5t-25.5 7.5q-10 6 -18 20q-2 4 -3 5q0 1 -2 7q-6 10 -6 20q-1 6 -1.5 11t-1.5 11q-1 4 -1 8v8q1 5 1 8.5v8.5l-1 79l-1 147q0 64 -3 138q-1 36 -1 64t1 63v4q2 11 2 21.5t1 20.5q0 20 9 40q6 15 21 24q8 5 15.5 6.5t16.5 3.5q7 0 13.5 -1t12.5 -2
q13 -2 24 -11q3 -3 5.5 -7t4.5 -10q5 -8 7 -23q1 -6 1.5 -12t0.5 -13v-41l1 -122q16 14 31.5 29t30.5 32q27 28 53.5 54.5t53.5 52.5l3 3q8 8 16.5 15.5t16.5 14.5q15 17 37 24q14 9 33 7q9 -1 16.5 -4t14.5 -8q5 -5 10 -8.5t8 -8.5q8 -7 10 -21q0 -11 -4 -20l-6 -10t-7 -10
q-5 -6 -9 -11t-9 -10q-4 -5 -8.5 -9t-8.5 -9l-13 -13l-187 -191l31.5 -31.5t31.5 -32t28 -29t22 -22.5q27 -28 52 -55.5t49 -55.5l3 -3q8 -8 15 -16.5t13 -16.5q15 -17 21 -37z" />
    <glyph glyph-name="L" unicode="L" horiz-adv-x="544" 
d="M502 -10q2 -5 2 -14.5v-15.5q0 -8 -3 -15t-8 -13q-9 -12 -26 -18q-24 -8 -45 -8q-11 -1 -23 -1t-24 -2h-4q-77 -1 -159 0q-20 1 -45 -0.5t-49 1t-43.5 12t-27.5 30.5q-2 5 -3 9.5t-1 9.5q-4 34 -3 67t1 65l2 145v134q0 36 0.5 64t1.5 62v5q1 10 1.5 20t0.5 20q2 23 11 39
q6 15 21 24q13 9 31 9q7 0 13.5 -0.5t12.5 -1.5t11.5 -4t11.5 -8q6 -7 11 -17q4 -11 5 -22q1 -7 2 -13t1 -12q-2 -6 -2 -12v-11v-18l-4 -471l198 -2h47q6 0 13 -0.5t14 -1.5q8 -1 14 -2t12 -3q11 -3 18 -10q11 -10 14 -20z" />
    <glyph glyph-name="M" unicode="M" horiz-adv-x="690" 
d="M649 -14q-1 -12 -3 -25t-7 -24q-5 -12 -13 -18q-11 -10 -26 -11q-14 -5 -27 -3t-24 7q-14 9 -20.5 21.5t-9.5 26.5t-3 29v28v78l-1 153v25v16.5t-0.5 17t-0.5 27.5q0 3 0.5 10.5t-1.5 40.5q-39 -65 -64.5 -104.5t-43 -61t-30.5 -29t-27 -8.5q-8 -1 -16 3t-15.5 10
t-14 12.5t-10.5 12.5q-24 30 -54 72t-62 102q0 -1 -0.5 -33t-0.5 -79.5t-0.5 -102t-1 -101.5t-1.5 -78.5t-2 -31.5q0 -17 -8 -31.5t-21.5 -23.5t-31.5 -10t-39 10q-13 8 -19.5 23t-8.5 28q-1 14 -1.5 27t-0.5 27l1 78l1 154v134q0 87 6 171q0 11 2.5 20.5t6.5 18.5
q8 16 21 24q15 9 32 9q7 0 13.5 -0.5t12.5 -1.5q20 -4 34.5 -23.5t27.5 -33.5q8 -9 17 -22t18 -27t17 -27t14 -23q26 -42 46.5 -77t38.5 -60q3 3 7 8.5t8.5 12t8 12.5t5.5 10q10 16 20 31.5t21.5 33t24 38.5t29.5 48q7 12 18 29t25 33t29.5 27.5t31.5 11.5q8 0 14 -0.5
t12 -1.5q12 -1 23 -11q8 -8 12 -17q4 -13 5 -22q1 -7 1.5 -13t0.5 -12q0 -56 1 -111t1 -111q0 -68 0.5 -140t0.5 -140q0 -14 1 -30t0 -32z" />
    <glyph glyph-name="N" unicode="N" horiz-adv-x="625" 
d="M584 -10q-1 -17 -4.5 -36t-19.5 -31q-12 -10 -27 -12t-29.5 1.5t-27.5 11t-21 18.5q-34 42 -62.5 86.5t-57.5 89.5l-84 127q-17 27 -36 60.5t-39 62.5l-3 -382v-9q0 -16 -5.5 -31.5t-18.5 -26.5q-10 -8 -26 -11q-25 -5 -41.5 3t-26 22t-13 32.5t-1.5 36.5v17l2 78l1 145
q1 32 1 65.5v68.5q-1 43 0.5 91t3.5 90q2 23 11 39q4 14 21 24q11 7 28.5 9t30.5 -1q5 -2 10 -4.5t10 -5.5q5 -4 9.5 -8t8.5 -9q5 -5 9 -10.5t8 -10.5q3 -6 6 -11t7 -10l11 -16l231 -364v66q0 32 -0.5 65.5t-1.5 69.5q0 42 0.5 90t2.5 90q0 17 10 39q5 13 17 21t27 11t30 0
t26 -12q3 -3 6 -7t5 -9q5 -13 6 -23q3 -14 3 -25q0 -125 0.5 -255t1.5 -255q0 -14 1 -27.5t0 -27.5z" />
    <glyph glyph-name="O" unicode="O" horiz-adv-x="633" 
d="M217 598q67 25 121.5 22t97.5 -27.5t73.5 -65.5t49.5 -92q15 -38 23 -80t9.5 -83.5t-3 -81.5t-14.5 -74q-6 -23 -14 -42t-19 -38q-25 -43 -64.5 -70t-86.5 -38q-32 -8 -66 -7.5t-67 9t-63.5 25t-55.5 41.5q-31 30 -51 69.5t-31 83t-14 87.5t0 84q3 37 14.5 79t33.5 81
t53.5 70.5t73.5 47.5zM451 170q12 47 10 106t-19 111q-11 32 -27.5 56.5t-39 37.5t-52.5 13t-67 -18q-22 -11 -37.5 -30t-25 -43t-15 -50t-6.5 -50q-2 -26 -1 -54.5t6.5 -57t15.5 -54t27 -45.5q26 -30 60.5 -41.5t68.5 -3.5q55 12 84 73q12 22 18 50z" />
    <glyph glyph-name="P" unicode="P" horiz-adv-x="585" 
d="M473 559q38 -35 56 -83.5t14 -96.5q-4 -46 -29 -84.5t-76 -58.5q-40 -17 -79 -24t-86 -11q-21 -2 -35.5 -2.5t-33.5 -1.5h-13.5t-13.5 -1v-207q-3 -19 -7.5 -39t-23.5 -31q-11 -6 -27 -7t-29 1q-14 2 -23.5 7.5t-15.5 19.5q-4 9 -7.5 20.5t-3.5 28.5v553q0 7 1 13l2 12
q2 5 3 11t3 11t4.5 9t6.5 7q5 5 15.5 9t31.5 4h2q31 2 69 3.5t63 -1.5q14 -2 26 -2.5t23 -1.5l24 -2t24 -3q10 -2 18.5 -3t17.5 -3q8 -2 17.5 -4t17.5 -7q21 -6 35 -15t29 -20zM413 394q1 24 -9.5 42t-29.5 30t-43 19t-48 10q-6 0 -16.5 0.5t-22.5 1t-22.5 1t-16.5 0.5
q-5 1 -12 1h-16q1 -31 1 -59.5v-61.5q-1 -18 -1 -36v-35l62 1q24 0 53 3t55 12t44.5 26t21.5 45z" />
    <glyph glyph-name="Q" unicode="Q" horiz-adv-x="647" 
d="M601 -15q4 -7 5 -14.5t0 -14.5q-1 -14 -11 -25q-7 -8 -17 -15q-8 -5 -22 -5q-11 0 -20 4q-12 5 -21 13q-11 6 -21 15l-28 24q-17 -16 -37.5 -27t-42.5 -18q-32 -10 -65.5 -11.5t-66.5 6.5t-63.5 25t-55.5 44q-30 31 -49 71.5t-30 84.5t-14 89t0 85q3 38 12 82.5
t27.5 85.5t47 73t69.5 44q99 31 168 11.5t113 -69.5q35 -40 55.5 -94t28 -113t3.5 -118.5t-18 -110.5l-18 -48q15 -14 28.5 -25.5t17.5 -16.5q7 -7 13.5 -14.5t11.5 -17.5zM213 89q30 -39 72.5 -46.5t79.5 14.5q-14 14 -26 25t-15 15q-15 15 -23 36q-8 16 -5 30q3 16 13 27
q5 4 9 7.5t9 6.5t11.5 4t13.5 1q10 0 20 -7q9 -5 21 -13q5 -5 10.5 -9.5t10.5 -9.5q4 -4 8 -7.5t9 -7.5q7 33 10.5 70t0.5 74.5t-14 74t-31 68.5q-24 38 -61 51.5t-90 -12.5q-21 -11 -35.5 -31.5t-24.5 -46t-15.5 -52.5t-6.5 -51q-1 -26 0.5 -54.5t7 -57t15.5 -54t26 -45.5z
" />
    <glyph glyph-name="R" unicode="R" horiz-adv-x="597" 
d="M556 -42q1 -10 -2 -19q-2 -6 -5.5 -10t-8.5 -8q-9 -6 -22 -11q-8 -2 -15.5 -3.5t-15.5 0.5q-16 1 -28 12q-17 14 -28 31q-5 8 -11 18t-11 21l-111 211q-8 0 -16 -0.5t-16 -1.5q-21 -2 -39.5 -1t-38.5 0h-19v-181q0 -8 -0.5 -15t-0.5 -15q0 -5 -0.5 -13t-1.5 -15
q-2 -11 -9 -22.5t-19 -19.5q-21 -13 -51 -7q-13 3 -25 10q-4 3 -7 7.5t-5 9.5t-3.5 10.5t-3.5 10.5q-3 10 -3 19v568q0 6 0.5 12.5t1.5 11.5q1 11 7 22q3 12 10 17q6 6 18.5 10.5t36.5 3.5q45 -1 89 -1t88 -2q29 -2 61.5 -6.5t60.5 -15.5q18 -7 33 -14q19 -11 30 -21
q35 -32 53 -77t18 -91q0 -54 -25.5 -99t-81.5 -67q-2 -2 -5.5 -2.5t-5.5 -1.5l92 -185l9 -16q2 -4 5 -9t5 -10q3 -5 5.5 -11t5.5 -11q3 -14 5 -23zM306 314q18 0 34.5 6.5t30 17.5t22.5 25.5t10 31.5q4 50 -26 74.5t-79 26.5q-29 2 -63.5 2h-65.5q1 -41 0.5 -83.5
t-0.5 -100.5h137z" />
    <glyph glyph-name="S" unicode="S" horiz-adv-x="608" 
d="M558 205q5 -14 7.5 -31.5t2.5 -35.5t-2.5 -35.5t-6.5 -30.5q-16 -56 -64 -93.5t-109.5 -54.5t-127 -12t-116.5 33q-32 18 -55 44t-39 58q-6 11 -7.5 25.5t2.5 28t13 24t25 14.5q10 2 22.5 2t24.5 -3.5t22 -11t16 -20.5q11 -21 31.5 -38.5t43.5 -28.5q33 -11 66.5 -9
t61 15t44.5 35.5t17 51.5q0 24 -7 39.5t-19.5 26t-30 17.5t-38.5 12q-24 5 -48.5 7t-49.5 5t-49 8t-47 15q-46 19 -70 58t-28.5 84t10.5 89.5t48 76.5q32 29 76.5 41.5t98.5 14.5q30 1 60.5 -2t59 -10t53 -18t42.5 -26q13 -10 26 -26.5t20 -35t4.5 -35.5t-21.5 -29
q-16 -10 -30.5 -8.5t-27.5 9t-25 17.5t-22 18q-27 20 -67 27t-75 3q-22 -3 -41 -10t-32.5 -19t-21 -29.5t-5.5 -39.5q1 -16 9.5 -27t21 -18t27.5 -11t30 -6q45 -6 90 -9t88 -20q44 -17 75 -46t44 -70z" />
    <glyph glyph-name="T" unicode="T" horiz-adv-x="643" 
d="M592 591q11 -13 11 -27q0 -6 -0.5 -12.5t-1.5 -11.5q-3 -11 -13 -21q-8 -6 -22 -9q-7 -2 -14 -3t-15 -3q-7 -1 -14 -1h-15h-51q-18 -1 -35.5 -1h-34.5q1 -31 1 -66.5t-0.5 -82.5t-1 -109t-0.5 -144v-76q0 -10 1 -15v-7.5t-1 -8.5q-2 -9 -3 -21q0 -5 -1 -9.5t-3 -9.5
q-4 -4 -4 -6l-3 -6q-5 -10 -19 -19q-22 -11 -49 -5q-17 2 -26 9q-9 9 -13 18q-6 11 -7 21q-3 9 -3 19v514h-25t-40.5 0.5t-40.5 1.5t-26 2q-6 1 -18.5 3t-20.5 4q-21 6 -33 19q-11 13 -11 29v12t2 11q3 12 16 20q4 3 12.5 7.5t16.5 6.5q12 4 30 6q8 1 16 1h17h66.5t66.5 1
q58 1 115.5 0.5t114.5 -2.5q13 -1 25 -3t24 -7q9 -3 17 -7.5t13 -11.5z" />
    <glyph glyph-name="U" unicode="U" horiz-adv-x="634" 
d="M586 567q6 -48 7 -111.5t-1.5 -128t-9.5 -122t-17 -92.5q-7 -21 -16.5 -43.5t-20.5 -40.5q-16 -27 -39 -47.5t-50.5 -35t-58 -22.5t-60.5 -9q-53 -2 -100.5 15.5t-87.5 55.5q-30 29 -48 62t-28 69.5t-12.5 75.5t-2.5 80q0 19 -0.5 47.5t-0.5 59v59.5t1 49v28.5t1.5 31
t5.5 30t12 26.5q9 13 25 19t33.5 6t33.5 -7t26 -20q5 -8 7 -16t3 -18q2 -33 2.5 -75t0 -81.5t-1.5 -72.5t-1 -49q0 -60 6 -108.5t28 -80.5q20 -29 47 -37t54 -5q25 3 50.5 18.5t40.5 45.5q6 11 10 25t6 26q4 38 7 88.5t5 103.5t2 104t-1 92q2 18 11 33q8 13 23 23t41 10
q21 -1 34 -10.5t21 -20.5q9 -13 13 -30z" />
    <glyph glyph-name="V" unicode="V" horiz-adv-x="674" 
d="M631 574q5 -23 1.5 -46.5t-9.5 -42.5q-12 -39 -28 -87l-32 -96t-31 -90.5t-25 -70.5q-10 -26 -21 -59t-26.5 -64.5t-36 -57.5t-49.5 -38t-53 -5.5t-43 24t-34.5 44t-27.5 54.5t-22 54.5t-18 45.5q-31 68 -56 144t-51 145q-7 20 -16 48.5t-11.5 57t6.5 52t38 32.5
q6 2 12.5 3.5t12.5 2.5q7 0 13 -1t13 -5q5 -2 10 -4.5t9 -6.5q4 -5 7.5 -10t7.5 -10q3 -7 5.5 -12.5t4.5 -10.5q2 -7 5 -12.5t5 -10.5l6 -17l144 -411l142 410l7 17q2 5 4 10.5t4 12.5q2 5 4.5 10.5t6.5 11.5q3 5 6.5 10.5t7.5 10.5q3 4 7.5 7t8.5 5q8 4 14.5 5t11.5 1
q6 -1 12.5 -2.5t12.5 -3.5q19 -5 28.5 -17t12.5 -27z" />
    <glyph glyph-name="W" unicode="W" horiz-adv-x="797" 
d="M754 582q4 -19 0 -40q-2 -10 -3.5 -19.5t-3.5 -19.5l-1 -4q-14 -62 -31.5 -130.5t-31.5 -129.5q-12 -50 -25 -110t-27 -110q-5 -17 -10.5 -34t-13.5 -34q-7 -15 -16.5 -26.5t-21.5 -17t-25.5 -4t-29.5 12.5q-24 17 -35.5 47t-23.5 55q-4 7 -12 31t-17 52.5t-17.5 55
t-14.5 39.5q-9 -22 -18 -50t-17 -55t-14.5 -48.5t-9.5 -31.5q-8 -20 -17.5 -44t-23 -41t-32.5 -22.5t-45 11.5q-20 12 -28 34q-5 14 -10 27t-8 27l-20 75l-41 161q-8 31 -15.5 63.5t-17.5 67.5q-5 17 -8.5 33.5t-7 36t-8 44.5t-10.5 58q-2 11 -2.5 20.5t1.5 19.5q2 15 14 26
q5 5 12 8t15 5q12 4 25 4q12 0 25 -8q9 -5 14 -13l12 -21q2 -7 4 -12.5t4 -11.5q2 -7 3 -12.5t2 -10.5q9 -52 22 -101t24 -94q4 -18 10 -44.5t12 -55t12 -54.5t12 -41q13 45 26.5 90t29.5 91q8 24 16.5 43.5t19.5 32.5t25 17t33 -3q17 -7 30 -30t23 -47q9 -22 17.5 -46.5
t17 -48t16.5 -44.5t16 -36q3 11 7 28t8.5 36.5t8.5 38.5t8 35q13 54 27 108.5t27 107.5l5 17q2 5 2.5 10.5t2.5 12.5q2 6 4 11.5t4 12.5q2 5 4.5 10.5t6.5 10.5q3 5 7 8t8 5q14 8 24 8q13 0 25 -4q16 -3 29 -13q10 -10 12 -26z" />
    <glyph glyph-name="X" unicode="X" horiz-adv-x="629" 
d="M579 6q11 -20 9.5 -35t-3.5 -25q-3 -11 -14.5 -18.5t-25.5 -11.5q-18 -5 -30 -2q-15 3 -25 10q-6 5 -11 9.5t-10 8.5l-9 9t-6 8t-3.5 5.5l-2.5 2.5l-133 192l-132 -192l-2.5 -2.5t-4.5 -5.5q-2 -4 -5.5 -8t-7.5 -9q-5 -4 -11 -8.5t-11 -9.5q-6 -4 -12.5 -6t-12.5 -4
q-13 -3 -28 2q-31 7 -43 30q-6 12 -5 25.5t6.5 27.5t13 27t15.5 25q4 5 7.5 9t7.5 9q13 17 25 34.5t26 37.5l93 135l-137 198l-12 17q-4 6 -8 11t-8 12q-4 5 -8 11t-7 14q-3 6 -5.5 11.5t-4.5 13.5q-3 12 -2 22q3 13 13 22q4 5 9.5 8t10.5 6q10 4 18 6t17 2q18 -1 34 -13
q20 -13 36 -32q7 -11 14 -20.5t15 -19.5l1 -4q25 -33 45.5 -63.5t45.5 -64.5q4 -5 7 -10t7 -10q4 5 7 10t7 10q23 34 44.5 64.5t45.5 63.5l2 4q8 10 15.5 19.5t14.5 20.5q16 19 36 32q15 12 34 13q16 0 34 -8q12 -7 18 -14q12 -9 15 -22q1 -10 -2 -22q-2 -8 -4.5 -13.5
t-7.5 -11.5q-6 -15 -13 -25q-4 -7 -8 -12t-7 -11l-12 -17l-138 -198l93 -135l54 -76q9 -15 18 -29t18 -30z" />
    <glyph glyph-name="Y" unicode="Y" horiz-adv-x="619" 
d="M578 579q1 -5 0.5 -10t-3.5 -11q-4 -14 -9 -25q-6 -14 -15 -24q-4 -6 -7.5 -11.5t-6.5 -10.5l-13 -17l-128 -185l-23 -29v-266q-2 -5 -2 -10t-1 -11q-2 -5 -3 -9.5t-3 -9.5q-2 -4 -2 -6l-1.5 -3l-1.5 -3q-6 -10 -17 -18q-22 -11 -50 -5q-16 2 -24 10q-5 3 -8 7t-6 9
q-2 6 -4 11t-3 10q-2 5 -2 9.5v8.5v273l-22 34l-130 184l-11 18q-6 9 -15 21q-8 11 -14 24q-4 6 -6.5 12.5t-4.5 13.5q-3 10 -1 20q3 13 12 22q10 9 21 14q14 10 32 8q11 0 19 -4t16 -9q9 -7 17.5 -15t15.5 -17q8 -10 15 -18.5t14 -19.5l3 -4q24 -32 45 -61.5t44 -63.5
q2 -2 6 -8t9 -14q4 7 7.5 12.5t5.5 7.5q23 34 44 64t45 62l2 4q8 9 14.5 18.5t14.5 19.5q13 18 35 31q16 11 33 14q19 2 33 -8q6 -4 11.5 -7t9.5 -7q8 -9 13 -22z" />
    <glyph glyph-name="Z" unicode="Z" horiz-adv-x="609" 
d="M528 475q-14 -21 -29 -41t-29 -40q-63 -90 -125.5 -179t-124.5 -180h23h13.5h12.5t21 -0.5t38.5 -0.5h65.5h51.5t51.5 -2q5 -1 11 -1.5t11 -2.5l6 -3l6 -2q12 -7 20 -16q14 -20 8 -45q-1 -7 -4.5 -12.5t-7.5 -9.5q-8 -8 -19 -11q-11 -6 -23 -7q-5 -1 -9.5 -1.5t-9.5 -0.5
h-363h-12t-12 1q-3 1 -5.5 1t-4.5 1q-4 1 -7.5 1.5t-8.5 1.5q-11 6 -17 11q-12 9 -13 19v1q-2 5 -2.5 9t0.5 10q0 1 -0.5 1.5t-0.5 2.5q0 6 2 11.5t4 11.5q2 3 3.5 6.5t4.5 6.5q2 5 5.5 10t5.5 10q2 4 4.5 8.5t4.5 7.5q4 4 6.5 7.5t4.5 7.5l52 73l93 135q22 29 43.5 60.5
t44.5 65.5q17 26 31 45.5t30 42.5h-65.5t-60.5 0.5t-62.5 1t-71.5 1.5q-14 1 -32.5 4.5t-30.5 14.5q-11 10 -13 21q-3 10 -3 24q0 16 9 28q10 13 25 19q21 8 41 8q11 1 22 1t21 2h5q29 1 86.5 0.5t144.5 -0.5q11 0 23 0.5t23 -0.5q23 -2 48.5 -1t46.5 -11q6 -3 11 -7t11 -7
q12 -11 11.5 -26t-7 -31t-16.5 -31t-17 -25z" />
    <glyph glyph-name="bracketleft" unicode="[" horiz-adv-x="473" 
d="M346 687q17 0 35 -3.5t32 -14.5t14 -31q0 -10 -3.5 -21t-9.5 -16q-8 -8 -19 -11.5t-21 -5t-17 -1.5h-8h-45q-15 0 -23.5 -5t-12.5 -14t-4.5 -21t-0.5 -25l-1 -498q-1 -69 39 -69h43q17 0 34.5 -3.5t31.5 -14.5t14 -31q0 -10 -3.5 -21t-9.5 -16q-8 -8 -23.5 -11.5t-31 -5
t-27.5 -1.5h-13l-69 6q-24 0 -44 12t-33.5 33t-21 49.5t-7.5 60.5v541q0 31 9 56.5t25 43.5t38 28t47 10h86z" />
    <glyph glyph-name="backslash" unicode="\" horiz-adv-x="989" 
d="M844 582q4 -19 0 -40q-2 -10 -3.5 -19.5t-3.5 -19.5l-1 -4q-5 -20 -9.5 -40.5t-9.5 -40.5h67q18 0 34.5 -4t30.5 -18q7 -6 10.5 -16.5t3.5 -21.5q0 -12 -3.5 -25.5t-9.5 -19.5q-8 -9 -20 -14t-24 -6.5t-20.5 -1.5h-9.5h-91q-3 -14 -6 -27t-6 -25q-12 -50 -25 -110
t-27 -110q-5 -17 -10.5 -34t-13.5 -34q-7 -15 -16.5 -26.5t-21.5 -17t-25.5 -4t-29.5 12.5q-24 17 -35.5 47t-23.5 55q-4 7 -12 31t-17 52.5t-17.5 55t-14.5 39.5q-9 -22 -18 -50t-17 -55t-14.5 -48.5t-9.5 -31.5q-8 -20 -17.5 -44t-23 -41t-32.5 -22.5t-45 11.5
q-20 12 -28 34q-5 14 -10 27t-8 27l-20 75l-41 161q-6 24 -12 51h-49q-23 -2 -47 -0.5t-41 18.5q-23 20 -23 45q0 17 9.5 33.5t25.5 23.5q20 8 42 7.5t45 0.5h5q-5 23 -9.5 51.5t-12.5 72.5q-2 11 -2.5 20.5t1.5 19.5q2 15 14 26q5 5 12 8t15 5q12 4 25 4q12 0 25 -8
q9 -5 14 -13l12 -21q2 -7 4 -12.5t4 -11.5q2 -7 3 -12.5t2 -10.5q5 -31 11.5 -60t14.5 -58h144q6 19 12 35t13.5 25.5t18.5 12t28 -3.5q15 -6 25 -26.5t19 -42.5h136q7 26 13.5 51t12.5 50l5 17q2 5 2.5 10.5t2.5 12.5q2 6 4 11.5t4 12.5q2 5 4.5 10.5t6.5 10.5q3 5 7 8t8 5
q14 8 24 8q13 0 25 -4q16 -3 29 -13q10 -10 12 -26zM354 146q7 25 17.5 64t21.5 80h-74q4 -19 8.5 -40t9 -40.5t9 -36t8.5 -27.5zM624 165q3 10 6.5 25t7 32t7.5 35t8 33h-67q11 -39 20.5 -74t17.5 -51z" />
    <glyph glyph-name="bracketright" unicode="]" horiz-adv-x="473" 
d="M237 687q25 0 47 -10t38 -28t25 -43.5t9 -56.5v-541q0 -32 -7.5 -60.5t-21 -49.5t-33.5 -33t-44 -12l-69 -6h-13t-27.5 1.5t-31 5t-23.5 11.5q-6 5 -9.5 16t-3.5 21q0 20 14 31t31.5 14.5t34.5 3.5h43q40 0 39 69l-1 498q0 13 -0.5 25t-4.5 21t-12.5 14t-23.5 5h-45h-8
t-17 1.5t-21 5t-19 11.5q-6 5 -9.5 16t-3.5 21q0 20 14 31t32 14.5t35 3.5h86z" />
    <glyph glyph-name="asciicircum" unicode="^" horiz-adv-x="469" 
d="M143 438q-4 -6 -9.5 -14.5t-13.5 -12.5q-7 -5 -18 -4t-19 1q-11 0 -19.5 -0.5t-18.5 3.5q-8 4 -14.5 8t-4.5 15q0 10 5.5 19.5t10.5 17.5q8 11 17.5 24.5t17.5 23.5q19 25 39 46.5t40 44.5q15 18 25.5 30t23.5 26q8 8 21.5 11.5t25.5 -1.5q15 -8 26.5 -21.5t21.5 -27.5
q25 -38 51 -79.5t51 -79.5q18 -27 12.5 -43.5t-41.5 -16.5h-28t-25 10q-14 11 -22.5 28t-18.5 31t-19 29t-17 29q-7 9 -16 5t-17.5 -14t-16 -21t-12.5 -16q-7 -10 -14 -19.5t-14 -20.5q-2 -2 -4 -5t-6 -6z" />
    <glyph glyph-name="underscore" unicode="_" horiz-adv-x="530" 
d="M410 -82q17 3 34.5 -2t31.5 -16t14 -31q0 -10 -3.5 -21t-9.5 -16q-8 -8 -20.5 -11.5t-24.5 -5t-20.5 -1.5h-9.5l-232 -1q-23 -1 -47.5 0t-41.5 15q-23 17 -23 37q0 14 9.5 27.5t25.5 18.5q21 7 43 6.5t45 0.5h229z" />
    <glyph glyph-name="grave" unicode="`" horiz-adv-x="353" 
d="M187 524q-20 6 -28.5 24t-17.5 35l-45 86q-22 43 -11.5 67t59.5 27q20 2 32.5 -13.5t22.5 -33.5q12 -22 16.5 -31t6 -11t0.5 -1t0.5 -1.5t6 -11t16.5 -30.5q9 -17 17 -35t-3 -38q-11 -18 -31.5 -28.5t-40.5 -4.5z" />
    <glyph glyph-name="a" unicode="a" horiz-adv-x="575" 
d="M157 335q30 15 63 21.5t65.5 3t62.5 -17t56 -38.5q26 -26 40 -57t20 -69q4 -26 13 -48t19.5 -44t20 -44t15.5 -46q5 -23 -3.5 -44.5t-34.5 -26.5q-15 -3 -28.5 2.5t-24.5 16t-19.5 23t-15.5 23.5q-23 -30 -50 -46.5t-65 -21.5q-32 -4 -61 -2t-62 11q-43 11 -70.5 38.5
t-42 64t-15.5 78.5t10 83q14 54 42 88t65 52zM182 218q-14 -14 -22 -33t-9.5 -40t3.5 -42t16 -37q10 -14 34 -23.5t50 -11.5q30 -2 52.5 16t34 45.5t10.5 59t-17 57.5q-12 19 -31.5 28t-41.5 9.5t-43.5 -7t-35.5 -21.5z" />
    <glyph glyph-name="b" unicode="b" horiz-adv-x="476" 
d="M42 546q2 36 22.5 58t58.5 12q18 -5 26.5 -15t12 -23.5t3.5 -29v-30.5v-138q-1 -8 -0.5 -15.5t0.5 -13.5v-13h25h21.5t18.5 1q55 0 94.5 -16t64 -44.5t36 -68t10.5 -86.5q-1 -56 -18 -96t-48 -66t-74.5 -38.5t-97.5 -12.5q-62 0 -94 1t-45.5 18t-14.5 59t-1 123
q0 78 0.5 154t-0.5 153q0 10 -0.5 21t-0.5 25v33.5t1 47.5zM229 23q55 3 76 30q11 15 17 36t5 42t-8.5 40.5t-23.5 32.5q-14 12 -28 17.5t-29 7t-32 1t-39 -1.5v-120l-2 -83q10 -1 21 -2q19 -2 43 0z" />
    <glyph glyph-name="c" unicode="c" horiz-adv-x="462" 
d="M412 299q8 -14 8.5 -30t-7.5 -30q-9 -18 -25.5 -24.5t-36.5 -1.5q-9 2 -16 7t-14.5 10.5t-17 10.5t-24.5 7t-32.5 0t-31.5 -8q-22 -11 -35 -33.5t-17 -48t1.5 -51.5t21.5 -44q12 -14 31.5 -23t37.5 -11q17 -2 34 0.5t33 7.5q12 5 27 13.5t29 10.5q18 0 28 -9.5t14 -23
t1.5 -28.5t-11.5 -26q-12 -15 -34 -28.5t-42 -19.5q-24 -8 -53.5 -9t-55.5 2q-12 2 -25 5t-25 7q-44 16 -73.5 45.5t-45 66.5t-17.5 79t10 83q11 39 27.5 66t39 44.5t50.5 28t62 18.5q35 7 74 0t70 -26q24 -13 40 -37z" />
    <glyph glyph-name="d" unicode="d" horiz-adv-x="473" 
d="M352 613q19 5 33.5 1.5t25 -13.5t16 -25t5.5 -33q1 -50 0.5 -78t-0.5 -49v-307v-90t-3.5 -58.5t-12 -33.5t-25.5 -15.5t-44.5 -4.5h-68.5q-108 0 -170.5 51t-66.5 162q-2 48 12 88t41.5 68.5t68 44t92.5 14.5h55v179v31.5t3 29t12 23.5t27 15zM178 58q21 -29 76 -32
q11 -1 21 -0.5t18 2.5q9 1 17 3v185q-35 6 -63.5 7.5t-56.5 -20.5q-15 -12 -23 -30.5t-9 -39t4 -40.5t16 -35z" />
    <glyph glyph-name="e" unicode="e" horiz-adv-x="507" 
d="M386 51q12 3 24.5 4t23 -3t17.5 -13.5t7 -26.5q0 -12 -6 -23t-15 -20t-20 -15.5t-21 -10.5q-29 -13 -66.5 -20t-77.5 -5q-54 2 -103.5 21.5t-77.5 64.5q-26 44 -31 98t5 102q11 58 37.5 94.5t63.5 58.5q45 26 101 27t107 -22q34 -15 61 -40.5t41 -61.5q4 -9 6.5 -22
t3.5 -27.5t0 -28.5t-5 -25q-6 -18 -15 -28t-23 -15t-33.5 -6.5t-46.5 -2.5q-24 -1 -45 -1t-43 0.5t-45.5 1t-52.5 1.5q-3 -20 5.5 -34.5t23.5 -24t34 -14.5t37 -6q34 -2 65 5.5t64 17.5zM343 245q-19 22 -40 32q-16 7 -33.5 6.5t-33.5 -5.5q-29 -7 -49 -30q-2 -2 -7 -9.5
t-9.5 -15.5t-6.5 -15t2 -7h196q-1 14 -5 23.5t-14 20.5z" />
    <glyph glyph-name="f" unicode="f" horiz-adv-x="405" 
d="M327 337q17 -5 22 -18.5t3 -28.5q-6 -31 -34 -38q-16 -4 -32.5 -4t-33.5 -1v-231q0 -24 -3 -49q0 -9 -5 -19q-2 -5 -3 -6q0 -2 -2 -6q-6 -11 -16 -18q-22 -12 -47 -6q-15 3 -23 10q-9 7 -13 17q-2 5 -3 10t-3 10q-1 5 -1.5 9.5t-0.5 7.5v58q0 52 0.5 108t0.5 108
q-23 1 -47.5 1.5t-35.5 11.5q-6 6 -8 15.5t-1.5 19.5t3.5 18.5t8 12.5q13 12 23.5 13.5t26.5 2.5q2 0 13.5 0.5t14.5 0.5l2 68t6.5 62.5t17 50t35.5 32.5q29 13 66 16t67 -9q14 -5 27.5 -20t12.5 -33t-7 -33t-26 -20q-9 -2 -18.5 -1.5t-19.5 0.5t-18.5 -2.5t-14.5 -9.5
q-5 -6 -6.5 -16t-2.5 -21t-0.5 -21.5t0.5 -17.5v-25q23 -2 42.5 -3t33.5 -6z" />
    <glyph glyph-name="g" unicode="g" horiz-adv-x="496" 
d="M455 103q0 -32 -1.5 -69t-3.5 -69q0 -30 -3 -60q-2 -26 -8 -56.5t-17 -56.5q-14 -34 -38 -58.5t-62 -35.5q-32 -8 -60 -10.5t-60 1.5q-21 3 -45 11.5t-45 21.5t-37 30.5t-22 39.5q-7 27 -0.5 47t20.5 29t33 3t36 -31q12 -18 35 -29t49 -13t50.5 6.5t38.5 29.5
q10 15 14.5 43t5.5 55q-51 -21 -104.5 -15.5t-97 33t-70 74t-22.5 105.5q3 51 21.5 96t61.5 75q35 24 79 31.5t85 7.5h47.5t43.5 -6t36 -20t24 -41q13 -42 14.5 -83t1.5 -86zM262 20q10 0 19.5 2t18.5 5q17 6 25.5 16t11.5 22.5t2.5 27.5t-0.5 31q0 13 -0.5 29t-2.5 30.5
t-6 25.5t-12 14q-14 4 -32 5.5t-36 0t-34.5 -7t-27.5 -14.5q-15 -13 -23 -32t-9.5 -40t3 -41t16.5 -36q14 -20 38 -29t49 -9z" />
    <glyph glyph-name="h" unicode="h" horiz-adv-x="471" 
d="M430 111q1 -20 1 -41.5t-1 -39.5q-1 -27 -3 -49.5t-8 -38t-18.5 -23t-34.5 -4.5q-23 3 -33 22t-13.5 43.5t-2.5 49.5t0 39q-1 22 -1.5 50.5t-6 54t-18.5 43.5t-39 19q-33 2 -50.5 -5t-25.5 -20.5t-9.5 -32.5t-4.5 -41l-1 -39v-73q0 -18 -0.5 -37.5t-6.5 -35.5t-18.5 -27
t-36.5 -11q-30 0 -44.5 19.5t-14.5 48.5v575q0 6 0.5 11.5t1.5 11.5q2 6 3 11.5t3 10.5q3 10 10 15q5 5 10 8t11 4q5 1 11 1.5t12 0.5q15 0 29 -9q6 -4 11 -8.5t8 -12.5q8 -19 8 -36q1 -5 1.5 -14.5t0.5 -19.5t0.5 -19.5t0.5 -14.5v-5q1 -32 1 -65v-67v-17q42 14 88 13.5
t82 -18.5q37 -19 56.5 -43t28.5 -53t10.5 -62t2.5 -69z" />
    <glyph glyph-name="i" unicode="i" horiz-adv-x="214" 
d="M166 293q0 -28 0.5 -63t0.5 -72.5v-74t-1 -67.5q-1 -15 -3 -32.5t-8 -32.5t-18.5 -24.5t-33.5 -8.5q-31 2 -44.5 27t-15.5 70q0 23 -0.5 53t-1 61t-0.5 60.5v53.5q0 14 -0.5 34t0.5 41t5 40.5t13 32.5q7 8 20 12.5t27.5 4.5t28 -5t19.5 -14q4 -6 6 -17t3.5 -24.5t2 -28
t0.5 -26.5zM128 495q-31 -8 -51.5 6.5t-25.5 43.5q-4 21 3 37t21 24.5t32 7.5t36 -14q17 -12 24.5 -28t5 -31t-13.5 -27.5t-31 -18.5z" />
    <glyph glyph-name="j" unicode="j" horiz-adv-x="416" 
d="M330 493q-30 -9 -51 6.5t-26 44.5q-3 21 4.5 37t21 24t31.5 7t36 -14q17 -12 24.5 -27.5t5 -30.5t-13.5 -28t-32 -19zM370 309v-45v-71.5v-74.5v-55q-1 -30 -3.5 -64t-10 -67t-23.5 -61.5t-44 -47.5q-32 -21 -70 -27.5t-74 4.5q-22 5 -42.5 15t-34.5 26q-18 19 -26 45.5
t10 49.5q12 15 29.5 19.5t34.5 -4.5q16 -8 31 -16t30 -10.5t30 3t30 23.5q7 9 10.5 26t5 37.5t1.5 41v36.5v37.5v29v28v35.5q0 12 -1 36t-0.5 50.5t4 49.5t11.5 33q13 17 33.5 17.5t37.5 -10.5q11 -7 17 -17.5t9 -22.5t4 -24.5t1 -24.5z" />
    <glyph glyph-name="k" unicode="k" horiz-adv-x="424" 
d="M239 144q22 -23 32.5 -33.5t15 -15.5t6.5 -6t7 -6t16 -15.5t33 -33.5q18 -18 29.5 -41.5t-2.5 -50.5q-8 -14 -18 -19.5t-21.5 -4.5t-24 7t-24.5 15q-23 17 -44 39.5t-34 34.5q-9 9 -11 12q-2 2 -4 3.5t-4 3.5q-7 7 -15 14t-16 15v-39q0 -11 1 -16q0 -10 -1 -15
q-3 -11 -3 -21q-1 -5 -2 -9.5t-3 -9.5l-1.5 -3t-0.5 -3l-1.5 -3l-1.5 -3q-5 -10 -16 -19q-19 -11 -47 -6q-15 3 -23 11q-9 6 -12 17q-2 5 -3.5 10.5t-3.5 10.5t-2 9.5v7.5v569v12t1 12t2.5 11.5t3.5 10.5q4 10 10 16q5 5 10.5 7.5t10.5 4.5q5 1 11.5 1.5t12.5 0.5
q14 0 28 -8q13 -9 19 -23q8 -19 8 -37q1 -10 2 -30.5t1 -30.5v-4q1 -33 1 -63v-65q-1 -35 -1 -66.5v-62.5v-11q8 8 16 15t15 15q4 3 8 7l11 11q13 13 34 35.5t44 39.5q25 18 48.5 22t39.5 -24q14 -27 2.5 -50.5t-29.5 -43.5q-22 -23 -33 -33.5t-16 -15t-7 -5.5t-6.5 -5.5
l-15 -15t-32.5 -33.5z" />
    <glyph glyph-name="l" unicode="l" horiz-adv-x="215" 
d="M173 -6q-1 -5 -1.5 -9.5t-0.5 -9.5l-6 -21q-2 -4 -3 -5l-3 -6q-5 -11 -18 -18q-24 -12 -51 -6q-17 2 -27 10q-10 7 -14 17t-6 20q-3 10 -3 18v560q0 7 0.5 12.5t1.5 10.5q1 7 2.5 12t3.5 11q3 10 11 16q12 9 23 10q7 2 13 2.5t14 0.5q14 0 32 -8q14 -8 20 -22
q10 -20 10 -37q1 -10 1.5 -30t0.5 -30v-4q2 -32 2 -61.5t-1 -64.5q0 -34 -0.5 -65.5t-0.5 -62.5v-210q0 -4 0.5 -7.5t0.5 -7.5q0 -10 -1 -15z" />
    <glyph glyph-name="m" unicode="m" horiz-adv-x="624" 
d="M582 147q2 -32 2 -60.5t-2 -60.5v-27t-2 -29t-7 -26t-15 -19q-12 -8 -27 -10.5t-28 1.5t-22.5 15t-10.5 31q-3 46 -3 92q0 23 -0.5 44t0.5 59q0 19 -3 43.5t-15 34.5q-9 8 -20 9.5t-21.5 -2.5t-18.5 -14.5t-11 -26.5q0 -13 -0.5 -26.5t0.5 -25.5q1 -32 1 -60.5t-1 -60.5
q-1 -13 -0.5 -28t-0.5 -29.5t-5.5 -26.5t-15.5 -19q-12 -8 -25.5 -9.5t-25 4t-20 17.5t-9.5 32q-2 23 -2.5 42.5t-0.5 41.5q0 23 1 47.5t-1 47.5q0 7 -0.5 16.5t-1 19.5t-2 19.5t-4.5 15.5q-8 14 -28.5 18t-34.5 -3t-21 -18t-10 -24t-3 -27.5v-27.5q0 -65 0.5 -112.5
t-10.5 -76.5q-5 -15 -20.5 -23t-33 -8t-32.5 8t-20 25q-3 11 -5.5 31.5t-3.5 45.5t-1 50.5v46.5v144q-1 23 -1 50t8 49q7 19 22 24.5t31 4.5q18 0 28.5 -9.5t15.5 -23t6 -30t2 -31.5q11 25 26.5 41.5t44.5 21.5q74 14 118 -38q20 20 51 33q24 9 49 8.5t47.5 -9.5t41 -26
t29.5 -41q15 -32 17 -71t4 -74z" />
    <glyph glyph-name="n" unicode="n" horiz-adv-x="491" 
d="M41 271q0 23 -0.5 49t8.5 47q8 19 26.5 27.5t36.5 3.5q18 -3 28 -11t14.5 -18.5t5.5 -24t2 -26.5q10 18 25 29t31 18t30.5 10t22.5 3q38 0 75.5 -16.5t62.5 -46.5q14 -18 21.5 -37.5t11 -40.5t4.5 -42.5t2 -43.5q5 -64 0 -127q-1 -13 -1 -30t-2.5 -33.5t-9 -29
t-21.5 -15.5q-21 -5 -34.5 -2.5t-21.5 9.5t-12 18t-7 25q-2 11 -3.5 25.5t-2 29.5t-1 29.5t-0.5 26.5q0 19 -1 42t0 43q0 47 -24.5 71.5t-66.5 20.5q-32 -4 -56 -25.5t-23 -55.5v-24t-0.5 -22t-0.5 -24v-29v-69.5t-9 -59.5q-8 -24 -27 -33t-45 5q-11 6 -17.5 16.5t-10 22.5
t-4.5 24.5t-2 23.5q-3 33 -3.5 61.5t-0.5 61.5v144z" />
    <glyph glyph-name="o" unicode="o" horiz-adv-x="555" 
d="M169 366q33 16 69 23t71.5 3t69 -19t61.5 -42q23 -23 40 -55.5t25 -63.5q17 -55 5 -111t-41 -104q-14 -22 -34.5 -39.5t-43.5 -28.5q-30 -14 -65 -19.5t-68 -2.5q-60 3 -105.5 30t-73 69t-36 95.5t6.5 109.5q16 60 46.5 97.5t72.5 57.5zM199 232q-15 -14 -23 -35
t-10 -43.5t3.5 -45t17.5 -40.5q10 -15 36 -25t54 -12q32 -2 56 17.5t36.5 48.5t11.5 63t-18 62q-12 20 -33.5 29.5t-45 10t-46.5 -7t-39 -22.5z" />
    <glyph glyph-name="p" unicode="p" horiz-adv-x="492" 
d="M320 364q29 -12 53 -34.5t41.5 -51.5t27 -62.5t9.5 -67.5q1 -51 -23.5 -96t-79.5 -69q-42 -17 -86.5 -25.5t-92.5 -11.5v-183q0 -6 -1.5 -11t-1.5 -10q-2 -10 -4.5 -18t-6.5 -17q-4 -6 -8 -11t-9 -10q-24 -12 -50 -5q-16 1 -26 10q-9 9 -13 19t-7 23q-1 5 -1.5 9.5
t-0.5 9.5v557q0 6 0.5 12.5t1.5 13.5q1 12 6 24q9 25 37 34t63 8q24 -1 49.5 -5t49 -9.5t42.5 -11.5t31 -11zM322 148q4 28 -6.5 47.5t-29.5 32t-43.5 19.5t-48.5 10q-3 1 -9.5 1h-14.5q0 -32 0.5 -61.5t-0.5 -63.5v-67q23 1 48.5 5t47.5 13t37.5 24t18.5 40z" />
    <glyph glyph-name="q" unicode="q" horiz-adv-x="494" 
d="M145 -18q-57 25 -81.5 72t-22.5 101q2 46 21.5 90t51.5 76q14 14 28.5 24.5t31.5 17.5q12 5 31.5 11.5t43 12.5t49.5 10t50 4q35 1 62 -8.5t36 -34.5l6 -24q2 -7 2 -13.5v-12.5v-557q0 -5 -0.5 -9.5t-1.5 -9.5q-4 -10 -7 -23q-6 -13 -14 -19q-9 -9 -25 -10q-27 -8 -49 5
q-12 9 -18 21q-3 3 -3 6q-1 1 -1.5 2.5t-1.5 3.5q-2 6 -3.5 11.5t-1.5 11.5q-2 13 -2.5 26.5t-0.5 27.5v150q-3 1 -10 1q-20 3 -47.5 5.5t-47.5 7.5q-37 7 -75 23zM299 256q-24 -3 -48 -8.5t-43 -17t-29.5 -31t-7.5 -52.5q3 -25 18.5 -40t38 -24t48 -13t49.5 -5q-1 48 -1 97
t1 95h-15t-11 -1z" />
    <glyph glyph-name="r" unicode="r" horiz-adv-x="488" 
d="M41 268v27.5t1 32t3.5 32t7.5 27.5q8 18 25 24.5t37 5.5q21 0 33 -7t18 -18.5t7.5 -26t1.5 -30.5q9 16 24.5 26t31.5 16t29 8.5t15 2.5q25 2 45.5 1t45.5 -9q16 -6 33 -16.5t30 -24.5t17.5 -30.5t-4.5 -34.5q-14 -25 -31 -24.5t-37 5.5q-11 2 -26 9t-26 9q-34 5 -60 -5
t-45 -24q-22 -17 -38 -39v-144q0 -27 -0.5 -56t-8 -52.5t-25 -38t-50.5 -12.5q-18 1 -32 17.5t-17 32.5q-2 15 -3 36t-1.5 44t-0.5 46.5v43.5v146z" />
    <glyph glyph-name="s" unicode="s" horiz-adv-x="454" 
d="M279 90q-19 12 -42.5 19t-48 13t-47.5 13.5t-42 21.5q-41 31 -47.5 76.5t19.5 91.5q14 24 37 39.5t50.5 24t56.5 9.5t55 -3q17 -3 36 -8.5t35.5 -14.5t30 -22.5t19.5 -33.5q4 -13 1.5 -25t-10 -20t-19 -12t-24.5 -2q-15 3 -28 9t-26 13t-26.5 12t-28.5 5q-23 1 -38 -8
t-20.5 -22t1 -28t27.5 -26q19 -10 42 -16t45.5 -12t44 -14t38.5 -22q33 -27 40.5 -63t-4.5 -71t-41.5 -62t-69.5 -36q-29 -6 -62.5 -6t-66 7t-62 22t-49.5 38q-14 16 -14.5 36.5t8 36t24.5 21.5t36 -7q16 -11 38 -21.5t44 -16.5t42.5 -6t35.5 9q22 14 23 32.5t-13 28.5z" />
    <glyph glyph-name="t" unicode="t" horiz-adv-x="512" 
d="M467 355q8 -19 1.5 -42t-23.5 -30q-9 -4 -24 -6.5t-32.5 -4.5t-34.5 -3t-29 -1q1 -30 2 -61.5t2 -61.5t1 -57.5t-1 -49.5v-34.5t-2.5 -37.5t-7.5 -31.5t-15 -17.5q-31 -13 -56.5 -7.5t-36.5 21.5q-8 13 -12 30.5t-5.5 36t-1 36t0.5 30.5q1 42 1.5 95.5t0.5 107.5h-15
q-12 0 -30.5 0.5t-37 3t-34.5 7t-23 13.5q-11 13 -13.5 28t2 28.5t14.5 24t23 13.5q18 5 51 5.5t62 -0.5q-1 10 -1 19.5t-1 18.5q-1 12 -1 30.5t2.5 37t8.5 35t17 25.5q15 12 30.5 13.5t29 -4.5t23 -17.5t13.5 -25.5q3 -12 5 -28.5t2.5 -34.5t0.5 -36v-33h10q15 0 35 1
t39.5 -1t35.5 -9.5t24 -25.5z" />
    <glyph glyph-name="u" unicode="u" horiz-adv-x="493" 
d="M451 152q-2 -33 -4 -66.5t-10.5 -64.5t-26 -56t-49.5 -40q-28 -14 -60 -19.5t-64 -4.5t-62 9.5t-54 23.5t-39 39t-23.5 52t-11.5 58t-4 56q-4 69 0 136v29.5t2.5 32.5t8.5 29.5t20 20.5q30 16 55.5 2t30.5 -58q3 -23 2.5 -51t1.5 -51q1 -34 2 -73.5t11.5 -70.5t35 -46.5
t73.5 -1.5q23 7 30.5 35t7.5 83q0 24 -1 53t-1 57.5t1.5 53t5.5 37.5q5 18 21 27t34 9.5t34 -7.5t22 -26q6 -16 8.5 -40.5t3.5 -53t0.5 -58t-1.5 -55.5z" />
    <glyph glyph-name="v" unicode="v" horiz-adv-x="528" 
d="M485 352q4 -12 2 -27t-7 -30.5t-11.5 -30t-11.5 -25.5q-26 -53 -49 -104t-54 -111q-6 -12 -13.5 -28.5t-16.5 -32t-19.5 -28.5t-22.5 -19q-10 -6 -20 -5q-8 -2 -18 5q-12 6 -22.5 19t-19.5 28.5t-16.5 32t-13.5 28.5q-12 23 -22.5 43t-22 43.5t-25.5 54t-33 74.5
q-5 12 -11 25t-10.5 28t-6 30.5t1.5 31.5q3 15 15 24t27 12t30 -0.5t24 -13.5q9 -9 17 -24t15.5 -31.5t14 -33t12.5 -28.5q14 -29 31.5 -63t31.5 -63q10 23 18 38.5t15.5 30.5t16 33t21.5 46q12 26 24.5 51t30.5 44q9 10 23 13.5t29 0.5t27.5 -12.5t18.5 -25.5z" />
    <glyph glyph-name="w" unicode="w" horiz-adv-x="671" 
d="M623 364q9 -13 6.5 -40.5t-10.5 -59t-19 -62t-18 -50.5q-17 -46 -30 -86t-31 -88q-6 -14 -11.5 -28t-13 -25t-18 -18t-25.5 -7q-17 0 -29.5 12t-21 30t-14.5 38t-10 35q-13 44 -23 80.5t-18 65.5q-9 -29 -18 -63t-23 -77q-4 -15 -10 -36.5t-14.5 -40.5t-21 -32.5
t-29.5 -11.5q-24 1 -41.5 19.5t-30 44.5t-21.5 54t-15 49q-8 27 -19 60t-21.5 67.5t-19.5 69t-12 63.5q-2 19 7.5 35t25 22.5t34 2.5t33.5 -24q8 -10 14.5 -25t11.5 -32.5t10 -35.5t10 -35q11 -38 18.5 -59.5t15.5 -44.5q7 23 14.5 44.5t18.5 59.5q4 12 9.5 27.5t12 29.5
t15 26.5t18.5 18.5q22 15 40 7.5t31 -25.5t22.5 -41.5t15.5 -42.5q6 -20 11 -34.5t9 -26.5t7.5 -23t7.5 -23q4 12 7.5 23t7.5 23t9 26.5t11 34.5q4 13 8.5 30t9.5 34.5t10.5 33.5t12.5 27t19 18.5t25 9t26.5 -3.5t23.5 -20z" />
    <glyph glyph-name="x" unicode="x" horiz-adv-x="515" 
d="M371 105q11 -14 30.5 -35.5t37 -45t28.5 -46.5t6 -40q-8 -26 -30 -30t-46 8q-17 8 -39 28t-42.5 42t-36.5 41.5t-22 27.5q0 1 -0.5 1t-0.5 1q-7 -8 -14 -17.5t-15 -18.5q-10 -12 -22.5 -28.5t-27 -32.5t-30 -29.5t-30.5 -19.5q-20 -8 -38.5 2.5t-23.5 28.5q-6 21 3 44
t24 44.5t32.5 41.5t28.5 35q11 14 19.5 24.5t16.5 20.5q-14 15 -30 33.5t-45 48.5q-10 11 -22 24.5t-22 28.5t-16 31t-3 33q3 15 13 24.5t24 13t29 0.5t28 -12q26 -19 49 -47t45 -53q7 -9 13.5 -16.5t12.5 -14.5q5 8 12.5 16t15.5 19q20 24 40.5 50t45.5 45q13 10 27.5 12.5
t27.5 -1t23 -12.5t13 -22q4 -16 -0.5 -32t-14 -31t-21 -28.5t-21.5 -24.5q-23 -25 -40 -45t-32 -38q9 -10 18.5 -21.5t21.5 -27.5z" />
    <glyph glyph-name="y" unicode="y" horiz-adv-x="548" 
d="M499 360q9 -14 8 -30q0 -23 -8 -40q-2 -5 -5.5 -13t-7 -17t-7.5 -17l-6 -12l-2 -5q-14 -31 -27 -60t-29 -62q-16 -32 -30.5 -62.5t-28.5 -59.5q-4 -8 -7 -15.5t-8 -15.5l-48 -103q-13 -26 -24.5 -51t-25.5 -50q-3 -5 -5.5 -9.5t-4.5 -9.5q-7 -12 -20.5 -23.5t-28.5 -12.5
q-27 -2 -47 16q-12 7 -19 20q-4 9 -4 23q1 6 1.5 11.5t1.5 10.5q2 5 3 10t3 8q3 8 5 8l73 158q-5 11 -10 22.5t-9 20.5q-13 31 -27.5 65.5t-29.5 69t-31 67.5t-32 63q-6 10 -11 21.5t-8 23t-2 23.5t9 24q8 15 21 21.5t27.5 6t27.5 -6.5t21 -16q17 -18 27 -40t19 -45
q19 -40 39 -84t40 -86l52 110q8 16 14.5 31t13.5 29q8 17 15.5 35t17.5 33q2 4 4 7t4 7q9 12 16 19q5 4 8.5 6.5t8.5 3.5q7 2 13.5 2.5t12.5 -0.5q10 -3 24 -9q15 -6 23 -21z" />
    <glyph glyph-name="z" unicode="z" horiz-adv-x="487" 
d="M314 34q15 0 33.5 -0.5t36 -3t32 -8.5t20.5 -16q15 -26 9.5 -46.5t-22.5 -31.5q-18 -13 -42 -17.5t-44 -3.5q-41 2 -87 0.5t-87 -2.5q-14 0 -29.5 -0.5t-29.5 2t-26.5 9.5t-21.5 22q-12 19 -5.5 38.5t15.5 36.5q14 25 33.5 49t33.5 41l125 164l-101 -3h-25.5t-27.5 2.5
t-26 6.5t-21 12q-9 9 -13 20.5t-3.5 23.5t5 23.5t12.5 20.5q6 6 15.5 10t21.5 6t24.5 2.5t23.5 0.5h49t52.5 0.5t48 1t36.5 0.5q18 0 36 1t34 -3t27.5 -14.5t14.5 -33.5q2 -15 -1.5 -29.5t-11 -28t-17.5 -27t-20 -25.5l-155 -200h78z" />
    <glyph glyph-name="braceleft" unicode="{" horiz-adv-x="473" 
d="M346 687q17 0 35 -3.5t32 -14.5t14 -31q0 -10 -3.5 -21t-9.5 -16q-8 -8 -19 -11.5t-21 -5t-17 -1.5h-8h-45q-15 0 -23.5 -5t-12.5 -14t-4.5 -21t-0.5 -25v-72q0 -23 -2.5 -36t-9 -25t-17 -26t-26.5 -38q-11 -17 -15.5 -27t-3.5 -18t7 -16.5t15 -21.5q14 -20 24 -31
t16.5 -22t9 -27.5t2.5 -46.5l-1 -91q-1 -69 39 -69h43q17 0 34.5 -3.5t31.5 -14.5t14 -31q0 -10 -3.5 -21t-9.5 -16q-8 -8 -23.5 -11.5t-31 -5t-27.5 -1.5h-13l-69 6q-24 0 -44 12t-33.5 33t-21 49.5t-7.5 60.5v85q0 16 -0.5 27t-2.5 21t-6.5 21t-12.5 27l-33 43
q-15 26 -13 45.5t12 42.5l35 47q8 15 12.5 24.5t6.5 18.5t2.5 18t0.5 22l-1 99q0 31 9 56.5t25 43.5t38 28t47 10h86z" />
    <glyph glyph-name="bar" unicode="|" horiz-adv-x="364" 
d="M241 -87q-7 -8 -16 -12t-19 -5t-20.5 -0.5t-19.5 1.5q-8 1 -16 3.5t-14 8.5q-1 0 -1 1q-12 12 -13 26.5t-1 30.5v642q0 12 1 24t5 21t13 14.5t24 5.5t34 1.5t33 -7.5q11 -7 14 -15t5 -19q4 -14 3.5 -35.5t-0.5 -35.5v-493q0 -31 -1 -59.5t0 -59.5q1 -22 -11 -38z" />
    <glyph glyph-name="braceright" unicode="}" horiz-adv-x="489" 
d="M231 687q25 0 47 -10t38 -28t25 -43.5t9 -56.5l-1 -99q0 -13 0.5 -22t2.5 -18t6.5 -18.5t12.5 -24.5l35 -47q10 -23 12 -42.5t-13 -45.5l-33 -43q-8 -16 -12.5 -27t-6.5 -21t-2.5 -21t-0.5 -27v-85q0 -32 -7.5 -60.5t-21 -49.5t-33.5 -33t-44 -12l-69 -6h-13t-27.5 1.5
t-31 5t-23.5 11.5q-6 5 -9.5 16t-3.5 21q0 20 14 31t31.5 14.5t34.5 3.5h43q40 0 39 69l-1 91q0 30 2.5 46.5t9 27.5t16.5 22t24 31q9 13 15 21.5t7 16.5t-3.5 18t-15.5 27q-16 24 -26.5 38t-17 26t-9 25t-2.5 36v72q0 13 -0.5 25t-4.5 21t-12.5 14t-23.5 5h-45h-8t-17 1.5
t-21 5t-19 11.5q-6 5 -9.5 16t-3.5 21q0 20 14 31t32 14.5t35 3.5h86z" />
    <glyph glyph-name="asciitilde" unicode="~" horiz-adv-x="632" 
d="M579 338q-2 -8 -5 -15t-5 -13q-8 -17 -18.5 -32t-22.5 -29q-33 -37 -77 -37q-42 0 -73 16q-15 8 -29 16.5t-27 17.5q-13 10 -25 18.5t-24 16.5q-25 17 -52 17q-32 0 -65 -16q-9 -5 -16 -11.5l-14 -13t-15 -11.5t-18 -6q-25 -2 -36.5 15.5t-3.5 40.5q8 26 28.5 46t41.5 36
q43 31 92 34q38 2 64 -13q14 -8 26.5 -16.5t24.5 -18.5q11 -10 23.5 -18.5t25.5 -16.5q25 -15 62 -15q20 2 33 10q12 8 22 21q8 11 14.5 21t22.5 13q29 6 41 -12.5t5 -44.5z" />
    <glyph glyph-name="uni2018" unicode="&#x2018;" horiz-adv-x="300" 
d="M199 675q7 -5 11.5 -14.5t6.5 -20.5t3 -23t1 -21q1 -10 4 -27.5t6.5 -36.5t5.5 -36.5t1 -27.5q-3 -12 -14 -19.5t-24.5 -9.5t-27.5 1.5t-23 13.5q-7 9 -10 27.5t-4 39.5t-0.5 40.5t0.5 30.5q1 10 3.5 23.5t7 25.5t11 21.5t14.5 12.5q9 5 15.5 4t12.5 -4z" />
    <glyph glyph-name="uni2019" unicode="&#x2019;" horiz-adv-x="300" 
d="M98 451q-6 6 -9 16t-3 21.5t1 23.5t2 21t0 26.5t-1.5 37t0 37t3.5 27.5q4 12 16 17.5t26.5 5.5t27.5 -6t20 -17q6 -10 6 -28.5t-2.5 -39.5t-6 -40.5t-4.5 -29.5q-2 -10 -7 -22.5t-11 -24t-14 -19.5t-16 -10q-9 -4 -16 -2t-12 6z" />
    <glyph glyph-name="uni201C" unicode="&#x201c;" horiz-adv-x="400" 
d="M156 668q7 -4 11.5 -13.5t7 -21t3.5 -23t2 -20.5q1 -10 5 -27.5t8 -36t6.5 -36t1.5 -27.5q-2 -12 -12.5 -20t-24.5 -10.5t-28 0.5t-23 13q-8 9 -11.5 27.5t-5 39.5t-1.5 40v30q0 10 2 23.5t6.5 25.5t10.5 21.5t14 13.5q14 8 28 1zM323 675q8 -4 12.5 -13.5t7 -21t3.5 -23
t2 -20.5q1 -10 4.5 -27.5t7.5 -36t7 -36t2 -27.5q-2 -12 -13 -20t-25 -10.5t-28 0.5t-23 12q-8 9 -11.5 27.5t-5 39.5t-1.5 40.5v30.5q0 10 2.5 23t6.5 25t10.5 22t14.5 13q8 5 15 5t12 -3z" />
    <glyph glyph-name="uni201D" unicode="&#x201d;" horiz-adv-x="400" 
d="M62 454q-7 5 -10 15t-4 22t0 23.5t2 20.5q1 10 0 27.5t-2 37t-1 37t3 27.5q4 12 16 17.5t26 6t27 -5t21 -16.5q6 -10 6.5 -28.5t-1.5 -39.5t-5 -40.5t-4 -30.5q-2 -10 -6.5 -22.5t-10.5 -24t-14 -19.5t-16 -10q-8 -4 -15 -2.5t-12 5.5zM230 450q-7 5 -10 15t-3.5 22
t0 23.5t1.5 20.5q1 10 0 27.5t-2 37t-1 37t3 27.5q4 12 16 17.5t26 6t27 -5t21 -16.5q6 -9 6.5 -28t-1.5 -40t-5 -40.5t-4 -30.5q-2 -10 -6.5 -22.5t-10.5 -23.5t-13.5 -19.5t-15.5 -10.5q-9 -4 -16 -2.5t-12 5.5z" />
    <glyph glyph-name="uni2025" unicode="&#x2025;" horiz-adv-x="588" 
d="M213 -86q0 -26 -18.5 -44.5t-44.5 -18.5t-44.5 18.5t-18.5 44.5t18.5 45t44.5 19t44.5 -19t18.5 -45zM493 -86q0 -26 -18.5 -44.5t-44.5 -18.5t-44.5 18.5t-18.5 44.5t18.5 45t44.5 19t44.5 -19t18.5 -45z" />
    <glyph glyph-name="uni2026" unicode="&#x2026;" horiz-adv-x="780" 
d="M196 -86q0 -26 -18.5 -44.5t-44.5 -18.5t-44.5 18.5t-18.5 44.5t18.5 45t44.5 19t44.5 -19t18.5 -45zM460 -86q0 -26 -18.5 -44.5t-44.5 -18.5t-44.5 18.5t-18.5 44.5t18.5 45t44.5 19t44.5 -19t18.5 -45zM708 -86q0 -26 -18.5 -44.5t-44.5 -18.5t-44.5 18.5t-18.5 44.5
t18.5 45t44.5 19t44.5 -19t18.5 -45z" />
    <glyph glyph-name="uni2605" unicode="&#x2605;" horiz-adv-x="833" 
d="M537 415q5 -2 11 -5t14 -4q38 -7 76 -12t76 -13q8 -1 18.5 -3t20.5 -5.5t18 -9t11 -13.5q8 -20 -5.5 -35.5t-26.5 -25.5q-23 -19 -47.5 -36t-46 -32.5t-37 -29.5t-19.5 -27t2 -37.5t16 -53.5t20 -59.5t16 -56.5t3.5 -44.5t-17.5 -23.5q-11 -3 -22 -0.5t-22 8.5t-21 13
t-19 12q-8 4 -17.5 11t-20 14t-20.5 14t-17 13q-22 17 -41.5 27.5t-47.5 12.5q-8 1 -17 -2.5t-18 -9t-17 -11.5t-15 -10q-9 -5 -28.5 -16.5t-43 -24t-48 -23.5t-44 -13.5t-30.5 5.5t-7 32q4 30 14.5 60t21.5 59q7 20 11 43t2 44t-11.5 38t-22.5 31.5t-27.5 28t-26.5 29.5
q-8 10 -17.5 19t-19 19t-17 20.5t-10.5 22.5q-4 19 9.5 30t36 16.5t51 7t56 1t49 -1.5t30.5 0q16 2 25.5 10.5t16 20t11.5 25.5t11 26q10 20 18.5 40.5t17.5 40t19.5 37t26.5 32.5q13 12 24 9.5t19 -13.5t15 -28.5t13 -34.5q8 -26 18 -52.5t19 -52.5q7 -19 12 -32t18 -21z
" />
    <glyph glyph-name="uni2606" unicode="&#x2606;" horiz-adv-x="833" 
d="M226 412q18 -1 27.5 0t15.5 4t10 9t10 16q25 40 49 90t58 104q6 10 15.5 13.5t18.5 2.5t16 -5t10 -8q16 -25 27 -47.5t21 -44.5t20 -43.5t24 -43.5q10 -16 17.5 -22t28.5 -11q25 -5 44.5 -8t36.5 -5t35 -5t40 -9q20 -5 33.5 -17t18.5 -27t0 -33t-21 -35q-31 -32 -66 -60
t-54 -46q-12 -12 -12.5 -22t4.5 -28l39 -187q7 -35 -11 -54.5t-60 -4.5q-25 9 -52.5 24.5t-53.5 32.5t-49 32.5t-39 25.5q-16 9 -22.5 11t-22.5 -8q-58 -37 -106 -68.5t-104 -51.5q-10 -3 -19.5 -0.5t-16.5 9t-10 16t-1 18.5q12 53 22 103.5t19 106.5q3 17 1 27t-13 26
q-8 12 -22.5 26.5l-31.5 31.5t-35 36t-33 40q-12 16 -14 31t4 26.5t18.5 19t29.5 8.5q16 1 36.5 2t41.5 2t41 1t37 -1zM326 367q-7 -12 -17.5 -19.5t-33.5 -6.5q-45 1 -84 3t-84 1q6 -11 21.5 -27t33 -33.5t34.5 -35.5t27 -32q10 -15 14.5 -24.5t5 -18t-1 -17t-3.5 -20.5
q-5 -36 -13 -77t-24 -98l165 113q11 6 19.5 10t16.5 5t17 -2t21 -11q19 -13 40 -29t43.5 -33t47.5 -33t53 -29q-11 50 -23 98.5t-22 91.5q-6 26 -3 40t16 27q29 29 59.5 53.5t62.5 53.5q12 12 6.5 19.5t-19.5 9.5q-30 5 -69.5 7t-77.5 5q-12 1 -19 2.5t-11.5 4.5t-7.5 8.5
t-8 14.5q-14 26 -33.5 69.5t-45.5 93.5z" />
    <glyph glyph-name="uni2661" unicode="&#x2661;" horiz-adv-x="833" 
d="M335 616q21 -9 46.5 -31.5t43.5 -57.5q11 22 30 41t44 32.5t54.5 19.5t62.5 2q73 -9 112 -50t50 -97t-1.5 -119t-42.5 -117q-23 -41 -53.5 -83.5t-65.5 -83.5t-72 -79t-71 -70q-22 -13 -36 -7t-28 18q-39 35 -97 89.5t-124 117.5q-39 37 -69.5 76.5t-48 82t-21 89
t10.5 97.5q12 43 40.5 76t66.5 51t82 19.5t87 -16.5zM455 444q-4 -16 -14.5 -23t-21.5 -6t-21 8.5t-14 20.5q-3 12 -10 27.5t-18 30t-26 27t-36 19.5q-30 10 -56.5 6.5t-47 -17t-35.5 -36.5t-23 -51q-10 -37 -7 -70t17.5 -64t39.5 -61t58 -61q49 -46 97.5 -98t111.5 -102
q28 27 59 61t61 71.5t56 76t43 75.5q19 42 30 84.5t7 80t-26 66t-67 41.5q-30 9 -56.5 0.5t-47.5 -26t-34.5 -39.5t-18.5 -41z" />
    <glyph glyph-name="heart" unicode="&#x2665;" horiz-adv-x="833" 
d="M416 436q-3 12 2.5 30t15 36.5t20 35.5t17.5 27q18 29 49 46t66 18q42 1 74 -15.5t54 -44.5t33 -64.5t11 -75.5t-9 -73t-24 -66t-34 -63t-39 -62q-32 -51 -70 -93t-81 -86q-5 -5 -14.5 -15.5t-20.5 -21t-22.5 -18.5t-20.5 -8q-7 -1 -14.5 3.5t-15.5 11.5t-15 13.5
t-12 10.5q-48 37 -91.5 79t-81 89.5t-66 100t-46.5 112.5q-12 41 -11.5 91.5t17.5 95t51.5 74.5t90.5 30q40 0 68 -11.5t47.5 -30t32.5 -41t22 -43.5z" />
    <glyph glyph-name="uni3131" unicode="&#x3131;" horiz-adv-x="830" 
d="M152 384q-17 0 -38.5 4.5t-33.5 22.5q-7 12 -9 27t2 29q8 28 37 41l12 4t13 4q19 5 31.5 5.5t32.5 1.5h14t13 1q8 0 16 0.5t17 0.5h26h50t61.5 -0.5t61 -0.5t49.5 -0.5t26 -0.5q15 -1 31 -1h32q18 0 35.5 -1t35.5 -3q8 -2 16.5 -3t16.5 -6q11 -6 17 -17.5t9.5 -25
t4.5 -27.5t1 -25q0 -14 0.5 -27t0.5 -27q0 -9 0.5 -25.5t0.5 -33.5t-0.5 -33.5t-0.5 -25.5q-1 -41 -1.5 -80.5t-0.5 -80.5q0 -16 -3 -31.5t-13 -29.5q-11 -14 -27 -19.5t-33 -0.5q-20 5 -29.5 17.5t-14 29t-5.5 35t-3 34.5q-6 42 -6 82v29t-1 36.5t-1.5 36t-0.5 28.5
q0 17 -2 32.5t-16 23.5q-6 3 -14 3h-19h-21q-5 -1 -10 -0.5t-10 0.5h-115q-20 0 -39.5 -1.5t-39.5 -1.5t-40.5 0.5t-40.5 -1.5q-8 -1 -12.5 0t-12.5 1h-50v0z" />
    <glyph glyph-name="uni3132" unicode="&#x3132;" horiz-adv-x="830" 
d="M599 296v22.5t-1.5 26.5t-6.5 24t-15 16q-7 3 -16.5 2.5t-17.5 -0.5h-124q0 -7 0.5 -24.5t0.5 -36.5t0.5 -35t0.5 -19v-66.5t-2 -66.5q0 -22 -0.5 -44.5t-11.5 -41.5q-7 -12 -20 -19.5t-27.5 -9.5t-29 2.5t-23.5 16.5q-10 11 -13 26.5t-6 29.5q-3 26 -2.5 51.5t0.5 50.5
v184q-3 -2 -4.5 -1t-3.5 1q-12 -1 -31.5 -1h-39.5t-37.5 0.5t-26.5 0.5t-18.5 1t-20.5 3q-39 11 -42 45q-3 16 2 30q4 15 13.5 25t23 16t28.5 9t29 4h13.5t17.5 2q35 2 69 2h66h93t91 -2h56q17 -2 34.5 -2h34.5q15 -1 30 -3t28 -8t22.5 -16t13.5 -27q6 -21 6 -39v-38
q2 -20 2 -45.5v-48.5q0 -31 0.5 -57t-2.5 -58q-2 -31 -1 -63t-11 -64q-8 -17 -24.5 -24t-36.5 -5q-19 3 -30.5 15t-19.5 29q-9 23 -10.5 49t0.5 51v130v0z" />
    <glyph glyph-name="uni3133" unicode="&#x3133;" horiz-adv-x="830" 
d="M249 335q-2 23 -5.5 35t-23.5 14l-92 -2q-18 0 -35.5 1.5t-32 7.5t-25 18.5t-13.5 35.5q-4 25 7 41t29.5 25t42 12.5t44.5 3.5q16 0 37 1t43 1.5t42.5 -0.5t37.5 -5q24 -5 40 -13t26 -22.5t14 -38t4 -58.5v-168q-1 -22 -1.5 -43t-1.5 -40.5t-4 -35.5t-9 -28
q-17 -30 -39 -36t-47 3q-16 6 -23.5 18.5t-10.5 28t-3 33t-1 34.5v177v0zM519 74q-9 -14 -23.5 -26t-29.5 -17q-9 -2 -19 -2t-19 5q-12 7 -17 27q-7 25 -3 50t14 48t23 43t23 37q14 24 26 44t26 46q11 20 16 52t7 58q1 42 10.5 65.5t47.5 23.5q36 0 52 -11.5t21 -45.5
q1 -12 1.5 -19.5t1 -14t1.5 -14t4 -19.5q5 -19 11 -35t13 -34l64 -118q6 -13 12 -23.5t11 -21t8.5 -22t6.5 -27.5q4 -26 -5.5 -45.5t-25.5 -28.5t-34 -6t-30 21l-99 167z" />
    <glyph glyph-name="uni3134" unicode="&#x3134;" horiz-adv-x="830" 
d="M681 153q17 0 36.5 -8t30.5 -27q12 -20 6 -45q-5 -15 -13.5 -23.5t-22.5 -16.5q-23 -13 -45 -15t-48 -2h-7.5h-18t-38 0.5t-67 1t-106 1t-153.5 1.5q-38 0 -61.5 5t-38.5 18.5t-22.5 37t-11.5 59.5q-5 42 -5 87v79q-1 26 -0.5 51.5t0.5 51.5q0 22 3 43q4 29 28 50
q11 10 24 12.5t27 -0.5q19 -5 31.5 -15.5t19.5 -22.5t10 -23.5t3 -19.5l7 -246q1 -21 10.5 -27.5t32.5 -6.5h135.5h92h58h32.5h15.5h7.5q11 2 23.5 1t24.5 -1z" />
    <glyph glyph-name="uni3135" unicode="&#x3135;" horiz-adv-x="830" 
d="M684 514q30 0 50 -8.5t33 -37.5q8 -19 2 -36t-18 -30q-6 -5 -15 -10t-15 -7q-12 -2 -20 -1t-20 1h-54q31 -75 52.5 -123t35.5 -79.5t21.5 -50.5t9.5 -36q2 -14 -2 -31t-13 -30q-11 -11 -25 -13.5t-27 2t-24.5 14.5t-18.5 22q-13 23 -23 44.5t-19.5 42t-20 41.5t-23.5 42
q-20 -40 -42 -80.5t-43 -79.5q-6 -11 -17.5 -23t-26 -18t-29.5 -1.5t-27 27.5q-10 18 -6.5 33.5t8.5 32.5q5 19 12 40t15 36q6 11 17 34.5t24 51.5t25 56t21 48l-87 -2h-19.5t-18.5 4.5t-16.5 15.5t-12.5 33q-3 12 0.5 25t11 24t18.5 18t24 7zM296 181q1 0 7.5 -2t15 -7.5
t15.5 -16t9 -27.5q1 -17 1 -22.5t-1.5 -8t-4.5 -4.5t-8 -11q-6 -12 -15.5 -19t-18.5 -10t-16 -4l-7 -1h-146q-21 0 -35.5 8.5t-23 22t-12 31.5t-3.5 38v233q-2 35 0 74q2 35 22 57t44 22q5 0 18 -1.5t18 -3.5q14 -7 22 -20.5t12.5 -30.5t5.5 -36.5t2 -37.5l4 -220l94 -3h1v0
z" />
    <glyph glyph-name="uni3136" unicode="&#x3136;" horiz-adv-x="830" 
d="M597 333q61 -2 101.5 -29.5t58.5 -63.5q16 -33 16 -67q0 -54 -40 -109q-24 -31 -66 -46.5t-90 -15.5q-39 0 -74.5 11t-60.5 34q-55 54 -55 121q0 28 10 55t27 52q12 15 30.5 26t41.5 18.5t49 10.5t52 3zM295 141q15 0 29 -1.5t24.5 -6.5t17 -14.5t7.5 -27.5q1 -22 -7 -35
t-20.5 -19.5t-27 -8t-25.5 -1.5h-146q-21 0 -35.5 8.5t-23 22t-12 31.5t-3.5 38v233q-2 35 0 74q2 35 18 57t40 22q5 0 18 -1.5t18 -3.5q14 -7 22 -20.5t12.5 -30.5t5.5 -36.5t2 -37.5l4 -239zM715 483q18 0 37.5 -5t30.5 -22q6 -11 4.5 -27t-12.5 -27q-8 -8 -23 -12.5
t-32.5 -6.5t-34.5 -2h-29h-14q-3 -1 -10.5 -1h-25.5h-22.5h-30t-42 0.5t-57.5 0.5q-86 2 -94 47q-3 24 15 41q14 11 23.5 13t24.5 2h4.5h10.5h23.5t44.5 1v26q1 7 4 13.5t8 12.5q19 24 50 22q14 -1 26 -3t22 -13q9 -11 11 -22.5t3 -24.5q0 -3 0.5 -5.5t1.5 -6.5
q14 0 25 -0.5t22 -0.5h36v0zM593 88q41 5 55 25.5t13 48.5q-1 23 -8.5 37.5t-35.5 29.5q-19 10 -41 10q-17 0 -33 -6.5t-24 -19.5q-18 -28 -18 -44q0 -7 2 -14.5t5 -18.5q8 -26 28 -38t57 -10z" />
    <glyph glyph-name="uni3137" unicode="&#x3137;" horiz-adv-x="830" 
d="M730 142q10 -5 17 -16.5t9 -22.5q3 -11 0.5 -21.5t-9.5 -18.5q-26 -34 -74 -35q-97 -3 -196.5 -1.5t-215.5 1.5q-23 0 -47.5 1.5t-45.5 7.5q-17 5 -30.5 18t-21.5 30q-5 11 -7 26t-3 29.5t-0.5 25t0.5 11.5v182q0 2 -0.5 13t1 25.5t4.5 30t11 27.5q13 20 40 26t55 6h419
q1 0 15 -0.5t31 -3.5t32.5 -11t20.5 -24q2 -6 2.5 -14.5t0.5 -17.5t-1.5 -17t-3.5 -12q-8 -14 -25 -18q-15 -4 -55 -4h-359q-23 0 -34.5 -8t-17 -18.5t-5.5 -21v-15.5l4 -91q1 -10 2.5 -24t8.5 -20q10 -10 25.5 -10.5t33.5 -0.5l337 1q49 0 82 -15z" />
    <glyph glyph-name="uni3138" unicode="&#x3138;" horiz-adv-x="830" 
d="M579 205q-1 -12 -1 -21v-14.5t1 -6.5h92q14 0 27 -1q23 -2 45 -10q20 -8 26 -21.5t4 -24.5q-2 -19 -9 -26t-29 -17q-5 -3 -18.5 -4.5t-27.5 -2.5q-17 -1 -36 -2h-102q-20 1 -44.5 2.5t-41.5 12.5t-20 25.5t-5 31.5q-2 14 -2.5 28t0.5 28v249q0 6 2.5 23.5t10.5 30.5
q4 7 12.5 14t24.5 9q5 1 15 1.5t20 1.5q11 1 23 1h109q22 0 41 -3q17 -2 33 -8.5t24 -18.5q22 -34 -2 -67q-12 -17 -28 -20t-33 -3h-111v-84v-74v-29zM210 163q4 -1 4.5 -1h4.5t15.5 0.5t38.5 0.5h29q14 0 27 -1q24 -2 46 -10q20 -8 25.5 -21.5t3.5 -24.5q-2 -19 -9 -26
t-28 -17q-5 -3 -18.5 -4.5t-27.5 -2.5q-17 -1 -36 -2h-103q-20 1 -44.5 2.5t-41.5 12.5q-16 11 -19 30.5t-5 36.5q-2 14 -2.5 28t0.5 28v229q0 3 0.5 11t2 17.5t3.5 19.5t6 16q5 7 13 14t24 9q6 1 15.5 1.5t19.5 1.5q11 1 23 1h110q22 0 41 -3q17 -2 32.5 -8.5t23.5 -18.5
q22 -34 -2 -67q-11 -17 -27.5 -20t-33.5 -3h-111v-84v-74v-71z" />
    <glyph glyph-name="uni3139" unicode="&#x3139;" horiz-adv-x="830" 
d="M619 502q17 0 34 -1t33 -6q24 -7 31 -30.5t7 -45.5v-131q0 -8 -1.5 -21t-4.5 -27t-8.5 -26.5t-13.5 -17.5q-14 -8 -27 -9.5t-25 -0.5h-415v-72h416h17.5t16.5 -1q15 -1 27.5 -8.5t17.5 -24.5q5 -20 -1.5 -38t-24.5 -26q-12 -5 -24.5 -6.5t-23.5 -1.5h-405h-41.5t-43.5 1
q-21 2 -35 21t-16 45q-1 9 -1.5 28t-1 39t-0.5 38v26v24q-1 12 0.5 25.5t10.5 24.5q13 17 36.5 21.5t45.5 4.5q5 0 16.5 -1t18.5 0h375v83h-385q-5 0 -11 -0.5t-11 -0.5q-6 0 -12.5 -0.5t-12.5 -0.5q-21 0 -34 4q-17 4 -28 23q-13 23 -7 49q5 18 23 27t29 11q8 2 15.5 2
h16.5h35q16 0 39.5 -0.5t49.5 -0.5t52.5 0.5t48.5 0.5h202z" />
    <glyph glyph-name="uni313A" unicode="&#x313a;" horiz-adv-x="830" 
d="M423 115q17 -1 29.5 -8.5t17.5 -24.5q14 -41 -26 -58q-12 -5 -25.5 -6t-24.5 -1h-168h-44t-45 2q-22 1 -36.5 16.5t-16.5 41.5q-1 9 -1.5 14t-1 9t-0.5 8v12v100q-1 13 0 30t12 28q13 17 37.5 21.5t47.5 4.5h5t10 -0.5t33.5 -0.5h75.5v108h-108q-7 0 -12.5 0.5
t-10.5 -0.5h-26h-19t-16 2q-10 3 -17 5t-13 11q-7 12 -9 23.5t2 25.5q3 9 9.5 14.5t14.5 9t16 5t14 2.5q8 1 16 1.5t17 0.5h18q5 -1 9.5 -1h9.5h115q53 0 81 -17.5t28 -57.5v-149q0 -15 -6 -30t-23 -26q-13 -8 -27.5 -9t-35.5 -1h-120v-104h180h18t16 -1zM622 512
q29 0 52 -3.5t50 -19.5q17 -11 25.5 -33t8.5 -48v-259v-59t-13 -56q-7 -13 -19.5 -21.5t-26 -10.5t-26.5 3t-21 19q-9 15 -13 33t-5 36t-0.5 36.5t-0.5 35.5v177q0 24 -9.5 33.5t-28.5 10.5q-9 0 -8 0.5t-2 0.5h-16h-50q-14 0 -26.5 4t-22.5 12.5t-15.5 22.5t-4.5 35
q1 17 9 27t20.5 15.5t29.5 7t36 1.5h77z" />
    <glyph glyph-name="uni313B" unicode="&#x313b;" horiz-adv-x="830" 
d="M553 491q2 -1 19 -1h37t38 0.5t22 0.5q19 -1 34 -3t33 -10q20 -9 27 -27.5t8 -38.5v-29.5v-50t-0.5 -60.5t-0.5 -60.5t-0.5 -50.5t-0.5 -29q0 -20 -1 -40t-6 -40q-3 -12 -7 -20t-16 -13q-11 -3 -17.5 -4t-17.5 -1l-156 1q-40 3 -57 20q-13 13 -17 37t-4 66v31.5v54
t0.5 64.5t1 64.5t1.5 54t3 31.5q3 16 9.5 25.5t21.5 16.5q14 5 23 7t23 4zM383 115q17 -1 29.5 -8.5t17.5 -24.5q14 -41 -26 -58q-12 -5 -25.5 -6t-24.5 -1h-128h-44t-45 2q-22 1 -36.5 16.5t-16.5 41.5q-1 9 -1.5 14t-1 9t-0.5 8v12v101q-1 13 0 30t12 28q13 17 37.5 22
t47.5 5q4 0 3.5 0t7 -0.5t30 -0.5h73.5v100h-98q-7 0 -12.5 0.5t-10.5 -0.5h-26h-19t-16 2q-10 3 -17 5t-13 11q-7 12 -9 23.5t2 25.5q3 9 9.5 14.5t14.5 9t16 5t14 2.5q8 1 16 1.5t17 0.5h18q5 -1 9.5 -1h9.5h105q53 0 81 -17.5t28 -57.5v-142q0 -15 -6 -30t-23 -26
q-13 -8 -27.5 -9t-35.5 -1h-110v-105h140h18t16 -1zM653 112q10 1 12 5.5t3 13.5q0 2 0.5 16t1 34.5t1 46t0.5 50.5v47.5t-1 38.5q-1 13 -2.5 21t-16.5 10q-14 2 -31.5 1.5t-25.5 0.5q-8 0 -12.5 -1t-6.5 -10q-1 -2 -1 -21t-0.5 -46t-0.5 -58.5v-59.5v-47t1 -22
q0 -5 3.5 -10t6.5 -7q2 -2 12.5 -2.5t23 -0.5h22.5h11z" />
    <glyph glyph-name="uni313C" unicode="&#x313c;" horiz-adv-x="830" 
d="M749 427q1 -7 1 -33.5v-63.5v-79t-0.5 -79t-0.5 -64v-34q0 -20 -15.5 -36.5t-32.5 -18.5q-23 -4 -44.5 -3.5t-43.5 0.5h-37h-21.5t-21 0.5t-36.5 1.5q-15 1 -24.5 8.5t-14.5 19.5t-7 25.5t-2 26.5q0 21 -0.5 61.5t-1 85.5t-0.5 86t1 62q1 25 0.5 46t10.5 44
q5 7 15.5 12.5t22.5 7t23.5 -3t19.5 -17.5q4 -9 6 -29t3.5 -43t1.5 -46v-39h95v115q0 17 5 32t19 25q11 8 27.5 8.5t26.5 -7.5t15 -20t7 -23q3 -13 3 -28zM355 115q17 -1 29.5 -8.5t17.5 -24.5q14 -41 -26 -58q-12 -5 -25.5 -6t-24.5 -1h-108h-44t-45 2q-22 1 -36.5 16.5
t-16.5 41.5q-1 9 -1.5 14t-1 9t-0.5 8v12v100q-1 13 0 30t12 28q13 17 37.5 21.5t47.5 4.5h5t10 -0.5t33.5 -0.5h75.5v104h-108q-7 0 -12.5 0.5t-10.5 -0.5h-26h-19t-16 2q-10 3 -17 5t-13 11q-7 12 -9 23.5t2 25.5q3 9 9.5 14.5t14.5 9t16 5t14 2.5q8 1 16 1.5t17 0.5h18
q5 -1 9.5 -1h9.5h115q53 0 76 -17.5t23 -57.5v-142q0 -24 -6 -38t-16.5 -20.5t-25.5 -8.5t-34 -2h-120v-104h120h18t16 -1zM552 233v-95q0 -11 2.5 -15t12.5 -5h79v115h-94z" />
    <glyph glyph-name="uni313D" unicode="&#x313d;" horiz-adv-x="830" 
d="M345 115q17 -1 29.5 -8.5t17.5 -24.5q14 -41 -26 -58q-12 -5 -25.5 -6t-24.5 -1h-98h-44t-45 2q-22 1 -36.5 16.5t-16.5 41.5q-1 9 -1.5 14t-1 9t-0.5 8v12v100q-1 13 0 30t12 28q13 17 37.5 21.5t47.5 4.5h5t10 -0.5t33.5 -0.5h75.5v101h-108q-7 0 -12.5 0.5t-10.5 -0.5
h-26h-19t-16 2q-10 3 -17 5.5t-13 11.5q-7 12 -9 23.5t2 25.5q3 9 9.5 14.5t14.5 8.5t16 4.5t14 2.5q8 1 16 1.5t17 0.5h18q5 -1 9.5 -1h9.5h115q53 0 76 -17.5t23 -57.5v-139q0 -24 -6 -38t-16.5 -20.5t-25.5 -8.5t-34 -2h-120v-104h110h18t16 -1zM524 64q-9 -14 -23.5 -26
t-29.5 -17q-9 -2 -19 -2t-19 5q-12 7 -17 27q-8 26 -4 49.5t13 44.5q20 48 45 88t50 85q11 20 16 52.5t7 58.5q1 42 10.5 65.5t47.5 23.5q36 0 52 -11.5t21 -45.5q3 -23 2.5 -43.5t5.5 -43.5q5 -19 11 -30.5t13 -29.5l64 -112q6 -13 12 -23.5t11 -21t8.5 -22.5t6.5 -28
q4 -26 -5.5 -44.5t-25.5 -26.5t-34 -4.5t-30 21.5l-99 168z" />
    <glyph glyph-name="uni313E" unicode="&#x313e;" horiz-adv-x="830" 
d="M355 115q17 -1 29.5 -8.5t17.5 -24.5q14 -41 -26 -58q-12 -5 -25.5 -6t-24.5 -1h-108h-44t-45 2q-22 1 -36.5 16.5t-16.5 41.5q-1 9 -1.5 14t-1 9t-0.5 8v12v105q-1 13 0 30t12 28q13 17 37.5 21.5t47.5 4.5q4 0 3.5 0t7 -0.5t30.5 -0.5h74v107h-99q-7 0 -12.5 0.5
t-10.5 -0.5h-26h-19t-16 2q-10 3 -17 5t-13 11q-7 12 -9 23.5t2 25.5q3 9 9.5 14.5t14.5 9t16 5t14 2.5q8 1 16 1.5t17 0.5h18q5 -1 9.5 -1h9.5h106q53 0 76 -17.5t23 -57.5v-145q0 -24 -6 -38t-16.5 -20.5t-25.5 -8.5t-34 -2h-111v-109h120h18t16 -1zM753 98q9 -6 13 -16
t3 -20.5t-6 -20t-15 -13.5q-16 -8 -33 -10.5t-34 -2.5h-131q-24 0 -46.5 4t-37.5 21q-7 7 -11 20t-5.5 25.5t-2 22t-0.5 10.5v331v6t1 11.5l2 13t4 10.5q6 9 12.5 13t17.5 6q6 2 15 2h10h183q7 0 13.5 -0.5t12.5 -2.5q7 -2 13.5 -3.5t11.5 -7.5q5 -4 7 -9.5t4 -11.5
q1 -5 1.5 -10t-1.5 -10q-2 -14 -11.5 -24t-26.5 -10h-157v-65v-17v-31h22h24h35h55q8 0 16.5 -1t15.5 -5q11 -6 14 -17.5t1 -22.5q0 -5 -0.5 -10.5t-3.5 -9.5q-8 -8 -17 -12t-25 -4h-136q1 -26 0 -47t-1 -22v-24q0 -22 6.5 -25.5t29.5 -3.5l104 1q14 0 27 -1.5t27 -6.5z" />
    <glyph glyph-name="uni313F" unicode="&#x313f;" horiz-adv-x="830" 
d="M774 425q-8 -5 -16 -9t-31 -2q1 -3 1 -25.5t0.5 -54t0.5 -69t-0.5 -70t-0.5 -57v-30.5q0 1 11 0.5t14 -1.5q19 -3 26.5 -12t9.5 -26q1 -13 -5 -21t-16.5 -12.5t-24.5 -6.5t-29 -2h-232q-9 0 -20.5 2t-21 6.5t-17 12.5t-8.5 20q-2 17 4.5 25.5t17.5 12.5t24.5 4t24.5 1v34
v52.5v62.5t-0.5 63t-1 54.5t-0.5 36.5q-23 1 -35.5 6t-19.5 21q-8 18 0 34t25 21q17 7 38 7.5t40 0.5h203q15 0 24.5 -3t20.5 -15q5 -6 6.5 -15t0.5 -18t-4.5 -17t-8.5 -11zM355 115q17 -1 29.5 -8.5t17.5 -24.5q14 -41 -26 -58q-12 -5 -25.5 -6t-24.5 -1h-108h-44t-45 2
q-22 1 -36.5 16.5t-16.5 41.5q-1 9 -1.5 14t-1 9t-0.5 8v12v100q-1 13 0 30t12 28q13 17 37.5 21.5t47.5 4.5h5t10 -0.5t33.5 -0.5h75.5v107h-108q-7 0 -12.5 0.5t-10.5 -0.5h-26h-19t-16 2q-10 3 -17 5t-13 11q-7 12 -9 23.5t2 25.5q3 9 9.5 14.5t14.5 9t16 5t14 2.5
q8 1 16 1.5t17 0.5h18q5 -1 9.5 -1h9.5h115q53 0 76 -17.5t23 -57.5v-145q0 -24 -6 -38t-16.5 -20.5t-25.5 -8.5t-34 -2h-120v-104h120h18t16 -1zM581 127q0 -2 -0.5 -8t7.5 -6h47v284q0 17 -11 17h-28q-9 0 -11.5 -3.5t-2.5 -17.5z" />
    <glyph glyph-name="uni3140" unicode="&#x3140;" horiz-adv-x="830" 
d="M325 115q17 -1 29.5 -8.5t17.5 -24.5q14 -41 -26 -58q-12 -5 -25.5 -6t-24.5 -1h-78h-44t-45 2q-22 1 -36.5 16.5t-16.5 41.5q-1 9 -1.5 14t-1 9t-0.5 8v12v100q-1 13 0 30t12 28q13 17 37 21.5t47 4.5q-1 0 0.5 -0.5t11 -0.5h29h54.5v107h-78q-7 0 -12.5 0.5t-10.5 -0.5
h-26h-19t-16 2q-10 3 -17 5t-13 11q-7 12 -9 23.5t2 25.5q3 9 9.5 14.5t14.5 9t16 5t14 2.5q8 1 16 1.5t17 0.5h18q5 -1 9.5 -1h9.5h85q53 0 76 -17.5t23 -57.5v-145q0 -24 -6 -38t-16.5 -20.5t-25.5 -8.5t-34 -2h-90v-104h90h18t16 -1zM597 313q61 -2 101.5 -29.5
t58.5 -63.5q16 -33 16 -67q0 -54 -40 -109q-24 -31 -66 -46.5t-90 -15.5q-39 0 -74.5 11t-60.5 34q-55 54 -55 121q0 28 10 55t27 52q12 15 30.5 26t41.5 18.5t49 10.5t52 3zM735 463q18 0 37.5 -5t30.5 -22q6 -11 4.5 -27t-12.5 -27q-8 -8 -23 -12.5t-32.5 -6.5t-34.5 -2
h-29h-14q-3 -1 -10.5 -1h-25.5h-21h-26.5t-38.5 0.5t-56 0.5q-86 2 -94 47q-3 24 15 41q14 11 23.5 13t24.5 2h3h7h20t43 1v26q1 7 4 13.5t8 12.5q19 24 50 22q14 -1 26 -3t22 -13q9 -11 11 -22.5t3 -24.5q0 -3 0.5 -5.5t1.5 -6.5q14 0 25 -0.5t22 -0.5h36v0zM593 68
q41 5 55 25.5t13 48.5q-1 23 -8.5 37.5t-35.5 29.5q-19 10 -41 10q-17 0 -33 -6.5t-24 -19.5q-18 -28 -18 -44q0 -7 2 -14.5t5 -18.5q8 -26 28 -38t57 -10z" />
    <glyph glyph-name="uni3141" unicode="&#x3141;" horiz-adv-x="830" 
d="M700 493q13 -8 20 -23.5t10.5 -32t4 -29t0.5 -13.5v-186q0 -23 -0.5 -46t-4.5 -47q-2 -14 -7 -28t-20 -22q-17 -8 -40 -8.5t-41 0.5q-21 0 -42.5 -1.5t-42.5 -1.5h-28q-16 0 -31.5 0.5t-31.5 -0.5q-75 -3 -150 0q-26 2 -51.5 0.5t-51.5 0.5q-25 2 -47 12.5t-27 39.5
t-7 53t-2.5 47t0 47t0.5 53v1q0 8 0.5 17t0.5 18v35q0 13 -0.5 29.5t2 32.5t9 29t20.5 21q31 15 69 18t72 3h326q1 0 11.5 -0.5t25 -3t29.5 -6t25 -9.5zM315 183q7 1 13 0.5t12 -0.5h122q26 0 43 -1t41 1q10 2 19 1t18 3q7 3 9.5 12t3.5 19.5t0.5 21t-0.5 16.5v35v3v3
q-1 3 -0.5 6.5t0.5 6.5q-1 13 0 25t-5 23q-7 11 -25.5 12t-32.5 1h-197l-7.5 -0.5t-18 -1t-22 -1.5t-19.5 -2q-10 -1 -15.5 -5t-8.5 -8.5t-4 -9.5t-1 -8v-39v-9.5t-1 -9.5q-2 -35 3 -70q2 -12 10.5 -17.5t19.5 -7t22.5 -0.5t20.5 1z" />
    <glyph glyph-name="uni3142" unicode="&#x3142;" horiz-adv-x="830" 
d="M573 374q11 -1 18.5 0.5t10.5 12.5q0 5 0.5 15.5t0.5 22t0.5 21.5t0.5 14q1 18 7.5 28.5t25.5 14.5q21 5 45.5 3t35.5 -12q5 -5 7.5 -19t3 -30.5t0.5 -31.5v-21q-1 -23 -0.5 -57.5t0.5 -71.5t-0.5 -71.5t-2.5 -57.5q-5 -61 -63 -70q-15 -2 -30.5 -2h-30.5q-62 0 -120 -1
t-107.5 -1.5t-88 -0.5t-60.5 1q-21 1 -43 3.5t-39 15.5q-11 9 -17.5 25t-9.5 32t-3.5 28.5t-0.5 13.5v204q0 20 -1.5 40t2.5 40q5 23 22 31t40 10q9 0 19 -1t19 -4.5t15.5 -10t8.5 -16.5q1 -5 0.5 -17.5t-0.5 -27t0.5 -27t2.5 -16.5q2 -5 10.5 -6.5t13.5 -2.5q23 -2 36 -0.5
t36 1.5zM241 188q4 -15 21.5 -17.5t34.5 -3.5l16 0.5t41 0.5t54 0.5t55 0.5t44.5 -0.5t21.5 -0.5q8 -1 16.5 -0.5t16.5 -0.5q5 0 11.5 -1t12.5 0t10 5t4 12v12.5v19t-0.5 21t-2.5 17.5q-3 12 -9.5 13.5t-16.5 0.5q-5 0 -15.5 -0.5t-15.5 0.5h-235q-9 0 -20 0.5t-20.5 -1
t-16.5 -7t-8 -17.5v-11v-17t0.5 -16.5t0.5 -9.5z" />
    <glyph glyph-name="uni3143" unicode="&#x3143;" horiz-adv-x="830" 
d="M475 374q42 0 77 0.5t54 1.5l1 39v28t4.5 36t16 31t35.5 13q21 0 37 -11q12 -8 18 -21.5t9 -30t3.5 -35.5t1.5 -38l-1 -146v-29.5t-1.5 -34.5t-6 -35.5t-12.5 -32.5q-3 -7 -9.5 -14.5t-9.5 -10.5q-8 -8 -20 -12t-24 -6t-22 -3t-13 -1l-399 -1q-24 0 -47.5 4t-41.5 18
q-13 10 -19.5 25t-9.5 30.5t-2.5 27.5t0.5 16v243q0 14 3.5 31t11.5 31.5t20 24t30 9.5q26 0 37.5 -10.5t19.5 -32.5q5 -14 6 -28l2 -28v-2l1 -46q14 -1 48 -1h78v51v9.5t2 20t6.5 24t12.5 20.5q14 14 36 14q11 0 24.5 -4t20.5 -11q14 -14 18 -32.5t4 -52.5v-38zM474 250
q0 -19 -0.5 -36t-0.5 -33l136 1l-1 69zM219 250q2 -17 1 -36t-1 -33h132v69h-132v0z" />
    <glyph glyph-name="uni3144" unicode="&#x3144;" horiz-adv-x="830" 
d="M504 45q-9 -14 -23.5 -26t-29.5 -17q-9 -2 -19 -2t-19 5q-12 7 -17 27q-2 5 -4 15q-9 -11 -22 -18t-24 -9q-23 -4 -44 -3.5t-43 0.5h-41.5h-30.5t-30 0.5t-41 1.5q-15 1 -24.5 8.5t-14.5 19.5t-7 25.5t-2 26.5q0 21 -0.5 61.5t-1 85.5t-0.5 86t1 62q1 25 0.5 46t10.5 44
q5 7 18.5 12.5t28.5 7t29 -3t22 -17.5q4 -9 6 -24t3.5 -32.5t1.5 -36v-34.5h97v85q0 17 5 32t19 25q5 4 15 6t21 2.5t20.5 -1.5t14.5 -6q10 -8 15 -20t7 -23q3 -13 3 -28q1 -8 1 -43.5v-81.5t-0.5 -95t-0.5 -84q0 1 0.5 1t0.5 1q20 48 45 88t50 85q11 20 16 52.5t7 58.5
q1 42 10.5 65.5t47.5 23.5q36 0 52 -11.5t21 -45.5q3 -23 2.5 -43.5t5.5 -43.5q5 -19 11 -30.5t13 -29.5l64 -112q6 -13 12 -23.5t11 -21t8.5 -22.5t6.5 -28q4 -26 -5.5 -44.5t-25.5 -26.5t-34 -4.5t-30 21.5l-99 168zM188 244v-105q0 -11 2.5 -15t12.5 -5h81v125h-96z" />
    <glyph glyph-name="uni3145" unicode="&#x3145;" horiz-adv-x="830" 
d="M284 98q-11 -8 -22.5 -18t-23.5 -20.5t-25 -19.5t-29 -13q-18 -5 -39 1t-32 21q-8 12 -8 24t4.5 23.5t11.5 22.5t15 20q30 35 61.5 66.5t65.5 61.5q11 9 25 24.5t27 30.5q15 18 31 36q-1 13 -1 26q0 11 0.5 25.5t2.5 28.5q2 18 9 34t15 24q13 12 35 15.5t38 -1.5
q23 -7 33.5 -24t12.5 -40q1 -9 1 -21.5t1 -25.5t3 -24.5t8 -19.5q8 -12 15.5 -23t17.5 -22q35 -39 70.5 -78.5t71.5 -77.5q12 -12 23 -30t15.5 -36.5t-1 -35t-26.5 -26.5q-15 -7 -29 -5.5t-27 8t-24.5 16.5t-20.5 20l-168 159z" />
    <glyph glyph-name="uni3146" unicode="&#x3146;" horiz-adv-x="830" 
d="M505 402q0 4 1 14t2 20.5t2.5 19.5t3.5 13q2 5 5.5 11.5t8.5 11.5q5 7 16 10.5t22 5.5h2q10 2 17 1.5t16 -2.5q10 -3 16 -8q5 -3 12.5 -9t11.5 -14q10 -18 12 -42v-33q1 -24 0.5 -41.5t1.5 -33.5t8 -32.5t18 -39.5q8 -14 15.5 -26t15 -23.5t15 -23.5t15.5 -27
q3 -5 6.5 -11t6.5 -12q5 -10 8.5 -22t3.5 -24t-5 -22.5t-17 -17.5q-6 -3 -15 -7t-20 -5t-22 2.5t-20 14.5q-15 16 -26.5 30t-22.5 28.5t-22 31t-26 37.5q-17 -23 -34.5 -46t-36.5 -46q-10 -13 -19 -23.5t-24 -17.5q-26 -14 -50 -6q-7 1 -13 6q-9 6 -17 14t-16 19
q-21 26 -40.5 55.5t-27.5 45.5q-17 -23 -35 -46l-36 -46q-13 -16 -24.5 -29t-38.5 -17q-20 -3 -36 -0.5t-27 15.5q-12 13 -12 27.5t6.5 28.5t16.5 27.5t18 25.5l62 97q9 18 16.5 29.5t12.5 22.5t8 23t3 32v65q0 21 8 37q5 11 15 23q5 7 16 10.5t22 5.5h2q10 2 17 1.5
t15 -2.5q5 -2 9 -4l8 -4q5 -3 12.5 -9t11.5 -14q5 -9 7.5 -19.5t4.5 -22.5v-53q0 -20 -1 -34.5t0 -28t5.5 -26.5t14.5 -28q8 -17 17 -34t18 -35q11 14 20 27t19 32q18 36 27.5 61.5t9.5 49.5v36z" />
    <glyph glyph-name="uni3147" unicode="&#x3147;" horiz-adv-x="830" 
d="M456 519q34 -3 65 -7t59 -12.5t53 -23t47 -38.5q35 -38 48 -90.5t9 -102.5q-4 -57 -27.5 -99t-60 -69.5t-83 -41t-95.5 -13.5h-87t-90.5 8t-84 27.5t-67.5 59.5q-23 31 -30.5 72.5t-7.5 79.5q0 39 11 74.5t31 65.5t48.5 52t64.5 34q48 16 97.5 22t99.5 2zM595 230
q3 13 2 25q-2 52 -29 84t-75 38q-16 2 -33.5 3t-39.5 1q-29 0 -58.5 -4.5t-54.5 -15t-43 -29t-22 -47.5q-3 -24 0.5 -48t16.5 -43.5t36 -33.5t59 -17q15 -2 30.5 -3.5t31.5 -2.5q25 -2 53.5 0.5t53.5 12.5t44.5 29t27.5 51z" />
    <glyph glyph-name="uni3148" unicode="&#x3148;" horiz-adv-x="830" 
d="M665 526q18 0 34 -2t28 -8t19 -16.5t7 -27.5q1 -25 -6.5 -38.5t-21 -19.5t-30.5 -6.5t-34 0.5l-150 -2l1 -58q0 -8 -1 -19t1 -19q3 -11 11 -18.5t15 -15.5q29 -34 67.5 -61t76.5 -60q9 -10 20 -21.5t19 -25t10.5 -27.5t-4.5 -29q-8 -16 -22.5 -22t-30.5 -5t-32.5 6.5
t-28.5 13.5q-48 31 -89 66t-82 73q-1 1 -15.5 -10.5t-34.5 -27.5t-41.5 -33.5t-35.5 -28.5q-16 -12 -38 -30.5t-46 -30.5t-47.5 -11t-42.5 27q-13 20 -11 37t12 31t25.5 26t30.5 22q39 26 77.5 61t72.5 69q13 13 13 26v32v65h-158q-25 -1 -45 3q-17 4 -32 15t-17 34
q-3 33 14 47t42 16q7 1 23.5 1h25.5z" />
    <glyph glyph-name="uni3149" unicode="&#x3149;" horiz-adv-x="830" 
d="M688 370h-25t-27 1v-32v-30t2.5 -28.5t9 -31t19.5 -37.5l69 -112q6 -9 9.5 -20.5t3.5 -22.5t-4.5 -21.5t-16.5 -16.5q-11 -7 -33.5 -5.5t-41.5 21.5l-93 105q-17 -21 -33.5 -42.5t-34.5 -42.5q-11 -13 -19.5 -23.5t-25.5 -15.5q-13 -7 -23.5 -7.5t-20.5 2.5h-1
q-10 2 -14 7h-1v1h-1q-8 5 -15 12.5t-14 15.5q-10 12 -20 25.5t-19 26.5t-16 24t-11 18q-17 -21 -34 -42.5t-35 -42.5q-8 -10 -21 -21t-28 -17.5t-30.5 -5.5t-29.5 15q-12 12 -14 25.5t2 26.5t11.5 25.5t15.5 23.5l61 77q10 16 18.5 28.5t13.5 25.5t8 27t3 32v53h-42
q-25 -1 -45 3q-17 4 -32 15t-17 34q-3 33 14 51t42 20q7 1 23.5 1h25.5l481 2q36 0 62 -16t26 -50q0 -38 -24 -50t-58 -11zM501 372h-134v-41v-32t1.5 -26t5.5 -24t12 -27l35 -65l42 56q19 25 28.5 50.5t9.5 61.5v47z" />
    <glyph glyph-name="uni314A" unicode="&#x314a;" horiz-adv-x="830" 
d="M356 469v35q0 13 3 24q2 10 7.5 20.5t16.5 18.5q13 9 31 10t34.5 -5t28.5 -19t12 -31l1 -53h79q7 -2 22 -1t22 1q18 0 38 0.5t37 -3.5t29 -16t14 -37q3 -27 -7.5 -40.5t-28 -19t-38 -4.5t-37.5 2l-122 -1l1 -28v-14t2 -14q3 -11 9.5 -18.5t13.5 -15.5q15 -17 34 -33.5
t39.5 -33t40 -32.5t35.5 -32q19 -20 34.5 -42t7.5 -53q-6 -20 -20 -26.5t-30.5 -4t-34 10t-29.5 15.5q-48 31 -89 66t-82 73q-1 1 -15 -10t-33 -27.5t-40 -34t-37 -30.5q-16 -12 -40 -26.5t-48.5 -23.5t-47.5 -8.5t-36 18.5q-13 20 -12 35.5t10 28.5t24 25t31 24
q33 25 73 57t74 66q14 14 15.5 25.5t1.5 30.5l1 34h-109q-34 -2 -60 2q-23 4 -42.5 14.5t-21.5 33.5q-1 11 1 22.5t7 21t14 16t21 7.5q7 1 14.5 1h16.5h13.5t23.5 -0.5t24 -0.5h15h88z" />
    <glyph glyph-name="uni314B" unicode="&#x314b;" horiz-adv-x="830" 
d="M148 282q9 -1 20.5 1.5t21.5 2.5q9 1 33 1.5t55 1t65.5 0.5t66 0.5t56 0.5h35.5h41.5t44.5 -1v45t-2 45h-36.5h-58.5h-69t-69 -0.5t-59 -0.5h-37q-32 0 -67.5 1t-73.5 6q-19 2 -27.5 24.5t-7.5 48.5q0 23 16.5 35t34.5 17q22 6 42.5 6.5t43.5 1.5q14 0 28 -0.5t28 -0.5
h251q6 0 12.5 0.5t12.5 -0.5h29q10 0 19 -0.5t19 -0.5h18t19 -1h8.5t9.5 -2q2 -1 5 -2t5 -2q21 -10 32 -28q9 -15 12 -33t3 -35q0 -48 1 -104t-1 -104q-1 -14 -1.5 -37.5t-3 -49t-6.5 -48t-11 -35.5q-8 -15 -22.5 -24t-30.5 -11t-31 3.5t-24 20.5t-12 33t-3 36.5t2 37.5
t2 37h-433l-4.5 2.5t-10.5 6.5t-12.5 10t-10.5 13q-7 14 -7 32q0 20 8 31q7 11 15 14t16 5z" />
    <glyph glyph-name="uni314C" unicode="&#x314c;" horiz-adv-x="830" 
d="M725 113q13 -9 18.5 -24t4.5 -31t-8.5 -30t-21.5 -21q-22 -12 -46 -16t-47 -4h-41h-33h-55h-65.5h-65.5h-55h-33h-18q-16 0 -35 1t-37 5t-34 11.5t-27 20.5q-10 12 -15 31.5t-6.5 38.5t-1.5 33v16v275v9t1 17.5t3 19t5 15.5q9 14 18 21t24 9q4 1 9.5 1t11.5 1q6 0 14 1
h430h12q5 0 10.5 -0.5t10.5 0.5h2q9 0 18.5 -1t18.5 -4q9 -2 18 -5t16 -11q5 -7 9 -15.5t6 -17.5q3 -13 1 -30q-3 -21 -17 -36.5t-36 -15.5h-448v-56v-9q8 0 24 -0.5t36.5 -0.5h44h47.5q55 0 120 1h97q5 0 10 -0.5t10 0.5h27q11 0 22.5 -2t21.5 -8q15 -9 19 -26.5t2 -33.5
q0 -8 -0.5 -16t-5.5 -14q-12 -17 -24 -20.5t-26 -3.5h-120q-61 -1 -113 -1h-139h-26t-27 1q1 -20 1 -24t0 -1.5t-0.5 8l-0.5 5.5v-36q0 -7 0.5 -9t1.5 -1.5t2 1.5t2 1q7 -4 22.5 -6t35.5 -2h4q6 0 26 0.5t47 0.5h58h58t47 -0.5t26 -0.5h48q10 0 15 1h17q16 0 32 -1t32 -6
q3 -1 5.5 -2t5.5 -3z" />
    <glyph glyph-name="uni314D" unicode="&#x314d;" horiz-adv-x="830" 
d="M747 384q-4 -4 -12 -7q-19 -8 -41.5 -6t-42.5 -2q2 -14 2.5 -26t0.5 -20v-166q0 1 9.5 0t21 -2.5t21.5 -3.5t12 -2q25 -4 37.5 -12.5t9.5 -38.5q-2 -25 -10.5 -36.5t-21.5 -16t-30.5 -4t-37.5 0.5q-26 -1 -51.5 -0.5t-51.5 0.5h-58h-80t-80.5 -0.5t-57.5 -0.5h-53.5
t-53.5 1q-13 0 -30 2t-33 8t-27.5 16.5t-13.5 27.5q-3 23 9.5 34.5t31 16.5t39.5 5.5t36 2.5q-1 19 -0.5 37t0.5 36v81q0 3 -1.5 20t-0.5 40q-15 1 -31 1t-30.5 3t-27 10.5t-20.5 23.5q-12 23 -0.5 44t34.5 29t51 10t53 2h101t123.5 -0.5t123.5 -0.5h101q20 0 44.5 -4.5
t39.5 -20.5q7 -8 10.5 -19t3.5 -23t-4.5 -22.5t-13.5 -17.5zM319 299q1 -8 1 -13v-10v-90q0 -3 1.5 -12t5.5 -17h196v122v10t-0.5 23l-1 26t-1.5 20q0 6 -3 11h-192q-4 -4 -5 -11q-2 -8 -2 -26.5t1 -32.5z" />
    <glyph glyph-name="uni314E" unicode="&#x314e;" horiz-adv-x="830" 
d="M645 370q28 -27 43.5 -65.5t11.5 -92.5q-4 -48 -25 -84.5t-54 -61.5t-76 -38t-91 -12h-50q-38 0 -87.5 7t-94.5 30.5t-76 67t-31 116.5q0 43 13 75.5t36 57.5h-26q-23 0 -39.5 17t-16.5 41t16.5 41t39.5 17h195v32q0 10 3 20.5t11 18t23 12.5t39 5t39 -5t23.5 -12.5
t11 -18t2.5 -20.5v-32h204q23 0 40 -17t17 -41t-17 -41t-40 -17h-44zM559 204q6 35 -3 60.5t-28 42t-46.5 25t-59.5 10.5q-28 1 -57 -2.5t-52.5 -14t-39 -29t-17.5 -46.5q-2 -35 8.5 -58.5t31 -38.5t49 -21.5t61.5 -6.5q27 0 52.5 3t46.5 12t35.5 24.5t18.5 39.5z" />
    <glyph glyph-name="uni314F" unicode="&#x314f;" horiz-adv-x="830" 
d="M542 348q5 0 9.5 -1t9.5 -1q5 -1 11 -1.5t12 -1.5q11 -2 22 -7.5t16 -16.5q7 -11 7 -26q0 -8 -0.5 -14.5t-2.5 -14.5t-4.5 -17t-9.5 -14q-14 -10 -27 -13q-16 -2 -39 -1t-39 0q-1 0 -2 -1h-1l-1 -1v-3q-1 -25 -0.5 -47.5t0.5 -48.5q2 -52 0 -102v-14q0 -13 -0.5 -28.5
t-2.5 -30.5t-7 -28.5t-14 -22.5q-12 -14 -32 -14l-2 1q-24 1 -38.5 14t-22 32t-9.5 39.5t-2 36.5v594v9.5t2 20t6.5 24t12.5 20.5q7 7 20.5 10.5t24.5 3.5q22 0 37 -15q14 -14 16.5 -29.5t4.5 -32.5q1 -4 1 -12q2 -17 2.5 -35t1.5 -36q0 -11 0.5 -21.5t0.5 -21.5
q-1 -6 -0.5 -11.5t0.5 -10.5v-86v-11t2 -11q0 -1 10 -1h11q9 -2 14 -1h2z" />
    <glyph glyph-name="uni3150" unicode="&#x3150;" horiz-adv-x="830" 
d="M607 -6q1 -27 -3 -55t-26 -43q-17 -10 -30 -10q-17 0 -27.5 12t-16 29t-7 35.5t-1.5 32.5v224h-65v-230q2 -23 -1.5 -47.5t-13.5 -38.5q-12 -17 -35 -17q-11 0 -20.5 5t-17.5 13q-17 17 -20 41t-3 47v582q0 14 1 30.5t6 31.5t14.5 26.5t26.5 15.5q23 5 37 -11
q11 -11 16.5 -31t7.5 -43.5t2 -49v-47.5v-156h65v225v32.5t3.5 36t14 30t31.5 14.5q22 2 35 -13q12 -12 18 -32t8 -43t2 -45.5t-1 -38.5v-512z" />
    <glyph glyph-name="uni3151" unicode="&#x3151;" horiz-adv-x="830" 
d="M532 225q5 -1 16 -2t17 -2q11 -2 22 -7.5t16 -16.5q7 -11 7 -26q0 -8 -0.5 -13.5t-2.5 -13.5t-4.5 -17t-9.5 -14q-14 -10 -27 -13q-14 -2 -30.5 -2t-31.5 1q0 -19 -0.5 -36t-0.5 -31v-30v-28.5t-2.5 -30.5t-7 -28.5t-13.5 -22.5q-12 -14 -32 -14l-2 1q-24 1 -38.5 14
t-22 32t-9.5 39.5t-2 36.5v594v9.5t2 20t6.5 24t12.5 20.5q7 7 20.5 10.5t24.5 3.5q22 0 37 -15q14 -14 17 -29.5t5 -32.5q4 -17 4 -41t1 -42v-35q11 0 19 -0.5t9 -0.5q5 -1 16 -2t17 -2q11 -2 22 -7.5t16 -16.5q7 -11 7 -26q0 -8 -0.5 -15.5t-2.5 -15.5t-4.5 -15t-9.5 -12
q-14 -10 -27 -13q-14 -2 -30.5 -2t-31.5 1v-135q11 0 19 -0.5t9 -0.5z" />
    <glyph glyph-name="uni3152" unicode="&#x3152;" horiz-adv-x="830" 
d="M407 479h65v86q0 14 -0.5 32.5t3.5 36t14.5 30t31.5 14.5q21 3 35 -13q12 -12 17.5 -32t8 -42.5t2 -45t-0.5 -39.5v-512q1 -26 -3 -54.5t-26 -42.5q-16 -11 -30 -11q-17 0 -27.5 12t-16 29t-7 35.5t-1.5 32.5v113h-65v-119q2 -22 -1.5 -47t-13.5 -39q-12 -17 -35 -17
q-11 0 -20.5 5t-17.5 13q-17 17 -20 41t-3 47v567q0 4 -0.5 7.5t-0.5 7.5q0 14 1 30.5t6.5 31.5t15 26.5t25.5 15.5q22 6 38 -10q11 -12 16.5 -28.5t7.5 -37t2 -42.5v-44v-37zM407 223h65v135h-65v-135z" />
    <glyph glyph-name="uni3153" unicode="&#x3153;" horiz-adv-x="830" 
d="M424 222q-5 0 -22 1t-25 1q-10 0 -18.5 0.5t-16.5 2.5q-8 0 -15.5 2t-15.5 5q-13 7 -21 17q-5 7 -8.5 13t-3.5 14q-2 12 1.5 28t10.5 24q3 5 5.5 8t6.5 7q6 5 13 7.5t13 4.5q11 2 20.5 2h18.5h59v92q0 12 -1 25t-1 24v47.5t2 47.5q0 15 2.5 31t7.5 30q4 12 14 23
q13 12 30 12h2q21 0 34 -7.5t21.5 -20t12 -28.5t4.5 -32q3 -26 3 -54v-55v-445q0 -34 1 -69.5t-10 -67.5q-5 -13 -13 -21q-3 -2 -9 -5t-12 -5t-11.5 -3t-10.5 -1q-23 0 -36.5 13.5t-20.5 33t-9 40.5t-2 37v36q-1 36 0.5 76t-0.5 78v31z" />
    <glyph glyph-name="uni3154" unicode="&#x3154;" horiz-adv-x="830" 
d="M452 1q0 -25 -1.5 -40t-9.5 -38q-5 -15 -17 -25t-34 -10q-6 0 -15 1.5t-14 5.5q-10 6 -15.5 19.5t-8.5 28.5t-3.5 29t-0.5 22v237l-96 3q-9 0 -18.5 2.5t-18 8.5t-14.5 16t-7 25q-2 18 2.5 38.5t27.5 31.5q9 5 22.5 6t23.5 0h78v231v26.5t3 26.5q2 5 3.5 9t3.5 9
q6 10 12 15.5t17 9.5q5 2 10.5 2.5t10.5 0.5q33 0 50 -30q4 -6 5.5 -17t2.5 -22.5t1 -20v-10.5v-478v-113v0zM612 -84q-6 -13 -19 -22q-11 -7 -24 -8.5t-26 1.5q-15 3 -24.5 12.5t-14.5 21.5t-7 26t-2 27v608v25.5t2 28t5.5 25.5t10.5 19q11 10 23 12.5t26 2.5q17 0 31 -9.5
t20 -25.5q9 -21 10 -43t2 -45v-5q2 -76 1 -155.5t-1 -150.5v-250q0 -26 -1.5 -50t-11.5 -45z" />
    <glyph glyph-name="uni3155" unicode="&#x3155;" horiz-adv-x="830" 
d="M421 562q0 13 0.5 28.5t3 31t7 29t13.5 22.5q13 13 32 13h2q25 -1 39 -14.5t21.5 -32.5t9.5 -39.5t2 -36.5v-593v-9.5t-2 -20.5t-6 -24t-13 -20q-7 -7 -20 -11t-24 -4q-24 0 -38 16q-13 14 -16.5 27.5t-5.5 30.5q0 9 -0.5 30t-0.5 45.5v48v37.5h-89q-23 0 -35.5 7
t-17.5 18q-3 6 -5.5 12.5t-2.5 13.5v12t2 12q2 8 5 17t9 14q13 10 28 13q8 1 22 2t29 1.5t29.5 1t22.5 1.5v48t-1 67l-87 2q-19 1 -34 5t-20 15q-7 14 -7 27v12t2 12q2 8 5 16t9 13q13 10 28 13q6 1 17.5 1.5t26.5 1t30.5 1t28.5 1.5v53t1 33z" />
    <glyph glyph-name="uni3156" unicode="&#x3156;" horiz-adv-x="830" 
d="M267 364q-9 0 -18.5 2.5t-18 8.5t-14.5 16t-7 25q-2 18 2.5 33.5t27.5 26.5q9 5 22.5 6t23.5 0h68v111v26.5t3 26.5q2 5 3.5 9t3.5 9q6 10 12 15.5t17 9.5q5 2 10.5 2.5t10.5 0.5q33 0 50 -30q4 -6 5.5 -17t2.5 -22.5t1 -20v-10.5v-478v-113q0 -25 -1.5 -40t-9.5 -38
q-5 -15 -17 -25t-34 -10q-6 0 -15 1.5t-14 5.5q-10 6 -15.5 19.5t-8.5 28.5t-3.5 29t-0.5 22v138l-86 2q-9 0 -18.5 2.5t-18 8t-14.5 15t-7 24.5q-2 18 2.5 33.5t27.5 26.5q9 5 22.5 6t23.5 0h68v112zM645 572q2 -75 1 -157.5t-1 -153.5v-250q0 -26 -1.5 -50t-11.5 -45
q-6 -13 -19 -22q-11 -7 -24 -8.5t-26 1.5q-15 3 -24.5 12.5t-14.5 21.5t-7 26t-2 27v608v25.5t2 28t5.5 25.5t10.5 19q11 10 23 12.5t26 2.5q17 0 31 -9.5t20 -25.5q9 -21 10 -43t2 -45z" />
    <glyph glyph-name="uni3157" unicode="&#x3157;" horiz-adv-x="830" 
d="M717 91q3 -1 6 -0.5t6 0.5q17 -2 31.5 -6.5t28.5 -16.5q14 -14 14 -35q0 -11 -3.5 -23.5t-9.5 -19.5q-8 -8 -20 -12t-23 -5.5t-19.5 -1.5h-9.5h-560q-5 0 -10 -0.5t-10 -0.5q-21 -1 -45 0.5t-41 15.5q-21 19 -21 43q0 15 9 31t24 22q20 8 41.5 8t43.5 1h5q92 2 189 0
l-1 215q3 15 7 27q4 11 11 21t18 15q13 6 28 5.5t28.5 -7t23 -19t9.5 -30.5l2 -227q25 0 47.5 0.5t43.5 0.5h43t46 -1q18 -1 35 0.5t33 -0.5z" />
    <glyph glyph-name="uni3158" unicode="&#x3158;" horiz-adv-x="830" 
d="M794 352q6 0 11.5 -1t11.5 -2q11 -2 22 -7.5t17 -16.5q6 -12 6 -27v-14t-2 -14q-2 -8 -5 -17t-9 -14q-13 -10 -28 -13q-20 -3 -40 -2.5t-41 1.5q0 -23 -0.5 -50.5t-0.5 -56.5v-57.5v-52.5v-28.5t-2.5 -30.5t-7 -29t-13.5 -23q-15 -13 -35 -13q-24 1 -38.5 14.5
t-21.5 32.5t-9 39.5t-2 36.5v594v9.5t1.5 20t6 24t12.5 20.5q8 7 21 10.5t24 3.5q23 0 38 -15q13 -14 15.5 -29.5t4.5 -32.5q1 -11 2.5 -33t2.5 -48.5t1.5 -55.5t1 -54t0.5 -43.5v-24.5zM536 70q11 -7 17 -18.5t7.5 -24.5t-1 -26t-7.5 -22q-9 -16 -26 -19.5t-33 -3.5h-395
l-6 0.5t-14 2t-17 3.5t-16 5q-21 11 -26 41q-2 16 2.5 30t14.5 23q18 15 37.5 19t36.5 4q7 0 30 -0.5t58 -1.5l3 275q4 12 12 20.5t19 13.5q11 4 23 4q22 0 39 -11.5t22 -29.5q1 -2 1.5 -22t1 -48.5t1 -61.5t0.5 -62.5v-50.5v-26v-1q3 -1 20 -1t40.5 0.5t50.5 0.5h52
q33 0 53 -12z" />
    <glyph glyph-name="uni3159" unicode="&#x3159;" horiz-adv-x="830" 
d="M802 4q1 -27 -3 -55.5t-26 -42.5q-14 -10 -30 -10q-17 0 -27.5 12t-16.5 29t-8 35.5t-2 32.5v224h-68v-230q2 -23 -1.5 -48t-13.5 -39q-13 -16 -38 -16q-20 0 -38 18q-18 16 -20.5 40.5t-2.5 46.5v568q0 3 -0.5 6.5t-0.5 8.5q0 14 1 30t6.5 31t15 26.5t25.5 16.5
q11 2 22 -0.5t19 -10.5q11 -11 16.5 -26.5t7.5 -33.5t2 -38.5v-42.5v-186h68v225v32.5t4 35.5t15 30t32 15q22 2 35 -13q12 -12 17.5 -32t8 -43t2 -45.5t-0.5 -38.5v-512zM383 74q33 0 53 -12q11 -7 17 -17.5t7.5 -22.5t-1 -24t-7.5 -21q-9 -16 -26 -19.5t-33 -3.5h-295
l-6 0.5t-14 2t-17 3.5t-16 5q-21 11 -26 41q-2 16 2.5 27t14.5 20q18 15 31.5 18t30.5 3h46q0 5 1 21t1.5 36.5t1 43t1 42t1 33t1.5 15.5q4 12 12 20.5t19 13.5q11 4 23 4q22 0 39 -11.5t22 -29.5q1 -2 1.5 -16t1 -33t1 -41t0.5 -42v-35v-20z" />
    <glyph glyph-name="uni315A" unicode="&#x315a;" horiz-adv-x="830" 
d="M771 132q2 -52 0 -102v-14v-28.5t-2.5 -30.5t-7 -29t-13.5 -23q-15 -13 -33 -13h-2q-24 1 -38.5 14.5t-21.5 32.5t-9 39.5t-2 36.5v594v9.5t1.5 20t6 24t12.5 20.5q8 7 21 10.5t24 3.5q23 0 38 -15q13 -14 16 -29.5t4 -32.5q1 -3 1 -6t1 -7q2 -16 2 -34t1 -36
q0 -11 0.5 -21.5t0.5 -21.5v-362v0zM110 82q2 1 13 0.5t24.5 -1l27 -1t19.5 -0.5q1 5 1.5 21t1 37t1 44.5t1 43t1 33.5t1.5 16q4 12 12 20.5t19 13.5q11 4 23 4q22 0 39 -11.5t22 -29.5q1 -4 2 -31.5t1.5 -60.5t0.5 -62.5v-36.5v-1h183q33 0 53 -12q11 -7 17 -18.5
t7.5 -24.5t-1 -26t-7.5 -22q-9 -16 -26 -19.5t-33 -3.5h-415l-6 0.5t-14 2t-17 3.5t-16 5q-21 11 -26 41q-2 16 2.5 30t14.5 23q18 15 37.5 19t36.5 4z" />
    <glyph glyph-name="uni315B" unicode="&#x315b;" horiz-adv-x="830" 
d="M710 74q3 -1 6 -0.5t6 0.5q17 -2 31.5 -6.5t28.5 -17.5q14 -12 14 -34q0 -11 -3.5 -23.5t-9.5 -19.5q-8 -8 -19.5 -12t-23 -5.5t-20 -1.5h-9.5h-540q-5 0 -9.5 -0.5t-9.5 -0.5q-22 -1 -46 0.5t-41 15.5q-21 19 -21 43q0 15 9 31t24 22q20 8 41.5 8t43.5 1h5q17 0 35 0.5
t36 0.5q-1 4 -1 10v4v156q0 9 3 19q2 8 7.5 17t16.5 17q13 9 29 11t30.5 -3t25 -16.5t11.5 -28.5q0 -9 0.5 -29t1 -46t1 -55.5t0.5 -56.5h85q-1 4 -1 11v4v156q0 9 3 19q2 8 7.5 17t16.5 17q13 9 29 11t30.5 -3t25 -16.5t11.5 -28.5q0 -9 0.5 -29t1 -46t1 -55.5t0.5 -56.5
q16 0 31.5 0.5t37.5 -0.5q18 -1 35 0.5t33 -0.5z" />
    <glyph glyph-name="uni315C" unicode="&#x315c;" horiz-adv-x="830" 
d="M717 273q16 -2 32.5 -6t27.5 -18q12 -12 12 -34q0 -13 -2.5 -21.5t-13.5 -17.5q-6 -6 -15.5 -9.5t-20.5 -6.5q-12 -3 -30 -4.5t-31 -1.5h-186v-140q-2 -13 -2 -23t-2 -16q0 -9 -2.5 -18t-5.5 -18q-4 -8 -10 -14.5t-15 -11.5q-6 -6 -14.5 -8t-17.5 -2q-15 -2 -28 1t-22 17
q-6 6 -8 15t-4 15t-3 16t-1 16v171h-213q-24 3 -42 6q-23 7 -34 26q-5 8 -8 17t-3 18q2 9 5.5 17.5t11.5 14.5q6 9 18 12q6 2 11 3t11 3q5 0 9 1t9 1h587v0z" />
    <glyph glyph-name="uni315D" unicode="&#x315d;" horiz-adv-x="830" 
d="M513 -26q-9 1 -18.5 3.5t-18 8t-14.5 15t-7 24.5q-2 18 2.5 31.5t27.5 24.5q9 5 24.5 6t26.5 1h113v487v25t2 28t5.5 25.5t10.5 18.5q11 11 23 13t26 2q17 0 31 -9t20 -25q9 -21 10 -43.5t2 -45.5q2 -80 1 -160t-1 -151v-250q0 -23 -2.5 -46.5t-10.5 -48.5
q-5 -13 -19 -21q-11 -7 -24 -8.5t-26 0.5q-15 3 -25 12q-9 8 -13.5 20.5t-7 24.5t-2.5 21v9v8q-16 0 -37.5 -0.5t-42 -0.5h-36.5t-20 1zM98 129q-14 1 -28 5.5t-26 17.5q-12 12 -12 35q0 21 12 35q7 8 17.5 12t20.5 6t17.5 2h8.5h410q20 0 33.5 -2t28.5 -16q9 -9 12.5 -19
t3.5 -22q0 -15 -7 -27.5t-21 -17.5q-18 -8 -37 -9.5t-38 -2.5q-29 -1 -45 -2t-26.5 -1.5t-20 -0.5h-26.5l-1 -160q0 -29 -18 -50t-46 -19q-11 1 -21 4t-18 9.5t-13 18t-5 30.5l-3 168q-39 1 -73 2.5t-79 3.5z" />
    <glyph glyph-name="uni315E" unicode="&#x315e;" horiz-adv-x="830" 
d="M511 -105q-9 5 -14.5 15.5t-9 22.5t-5 24.5t-1.5 22.5l-79 2q-9 0 -18.5 1t-18 5t-14.5 12.5t-7 23.5q-2 18 2.5 33.5t27.5 26.5q9 5 22.5 6t23.5 0h61v505v26.5t3 26.5q2 5 4 9t4 9q7 10 13 15.5t18 9.5q5 2 11.5 2.5t11.5 0.5q35 0 54 -30q4 -6 6 -17t3 -22.5t1 -20
v-10.5v-479v-113q0 -13 -0.5 -22.5t-1.5 -18t-3.5 -17.5t-6.5 -21q-6 -15 -19 -25t-36 -10q-7 0 -16.5 1.5t-15.5 5.5zM776 -84q-6 -13 -19 -22q-11 -7 -24 -8.5t-26 1.5q-15 3 -23.5 12.5t-12.5 21.5t-5 26t-1 27v606v25.5t2 28t5.5 25.5t10.5 19q11 10 20 12.5t23 2.5
q17 0 31 -9.5t20 -25.5q9 -21 10 -43t2 -45v-5q2 -76 1 -154.5t-1 -149.5v-250q0 -26 -1.5 -50t-11.5 -45zM88 129q-14 1 -28 5.5t-26 17.5q-12 12 -12 32q0 21 12 35q7 8 17.5 12t20.5 5.5t17.5 1.5h8.5h260q20 0 33.5 -1.5t28.5 -15.5q9 -9 12.5 -19t3.5 -22
q0 -31 -28 -42q-18 -8 -37 -9.5t-38 -2.5q-16 -1 -30.5 -1h-29.5l-1 -163q0 -29 -17 -50t-45 -19q-11 1 -21 4t-18 9.5t-13 18t-5 30.5l-3 171q-15 1 -30.5 1.5t-31.5 1.5z" />
    <glyph glyph-name="uni315F" unicode="&#x315f;" horiz-adv-x="830" 
d="M766 -92q-5 -13 -19 -21q-11 -7 -24 -8.5t-26 0.5q-15 3 -25 12q-9 8 -13.5 20.5t-7 24.5t-2.5 21v9v609v25t2 28t5.5 25.5t10.5 18.5q11 11 23 13t26 2q17 0 31 -9t20 -25q9 -21 10 -43.5t2 -45.5q2 -80 1 -160t-1 -151v-250q0 -23 -2.5 -46.5t-10.5 -48.5zM98 119
q-14 1 -28 5.5t-26 17.5q-12 12 -12 35q0 21 12 35q7 8 17.5 12t20.5 6t17.5 2h8.5h393q20 0 42 -2t37 -16q9 -9 12.5 -19t3.5 -22q0 -15 -7 -27.5t-21 -17.5q-18 -8 -37 -9.5t-38 -2.5q-29 -1 -45 -2t-26.5 -1.5t-20 -0.5h-26.5l-1 -150q0 -29 -18 -50t-46 -19q-11 1 -21 4
t-18 9.5t-13 18t-5 30.5l-3 158q-39 1 -73 2.5t-79 3.5z" />
    <glyph glyph-name="uni3160" unicode="&#x3160;" horiz-adv-x="830" 
d="M686 274q16 1 33.5 -0.5t32.5 -7.5t24.5 -18t9.5 -33q0 -25 -17 -37.5t-40.5 -18t-49 -6t-41.5 -0.5q-5 0 -9 -0.5t-9 -0.5q0 -17 0.5 -43t0.5 -52t-0.5 -49t-1.5 -35q-3 -19 -10 -36.5t-24 -28.5q-15 -10 -35 -10t-36 9q-13 8 -19.5 23t-9.5 29q-2 11 -1 24t0 24v145
l-132 1q0 -15 1 -40t1 -51.5t-0.5 -50.5t-2.5 -37q-3 -19 -10 -36.5t-24 -28.5q-15 -10 -35 -10t-36 9q-13 8 -19.5 23t-9.5 29q-2 11 -1 24t0 24v145l-81 -1q-23 0 -44 6t-33 26q-11 17 -10.5 36t14.5 34q7 8 19 12t23.5 5.5t20 1.5h9.5l552 1v0z" />
    <glyph glyph-name="uni3161" unicode="&#x3161;" horiz-adv-x="830" 
d="M134 156q-16 1 -31.5 4.5t-27.5 10t-19.5 18.5t-7.5 32t13 35q8 8 20 12t23 6t19.5 2h9.5l547 -1q26 0 47.5 -0.5t38.5 -14.5q21 -19 21 -43q0 -15 -9 -27.5t-24 -17.5q-20 -8 -41.5 -11t-42.5 -4q-73 -3 -144 -2t-138 1q-72 0 -140.5 -1t-113.5 1z" />
    <glyph glyph-name="uni3162" unicode="&#x3162;" horiz-adv-x="830" 
d="M530 -7q-11 0 -36 -0.5t-58 -0.5t-70 -0.5t-70 0t-58.5 0.5t-36.5 1h-67q-20 0 -37 4q-9 2 -18.5 5.5t-16.5 10.5q-14 12 -14 35q0 22 13 35q7 8 19 12t23 6t19.5 2h9.5h363q18 1 35 -1q14 -2 28.5 -5t22.5 -10q21 -18 21 -43q0 -15 -9 -27.5t-24 -18.5q-9 -3 -19 -4
t-20 -1zM768 -70q-5 -8 -9.5 -16t-17.5 -15q-20 -13 -47 -8q-15 3 -25 12q-9 8 -13.5 20.5t-7 24.5t-2.5 20.5v9.5l-1 609q-2 23 1.5 53t17.5 44q11 11 23 13t26 2q17 0 31 -9t20 -25q9 -22 9.5 -44t1.5 -45q1 -26 1.5 -64.5t0.5 -83.5v-92.5v-91.5t-0.5 -81t-0.5 -60
q0 -22 -1 -52.5t1 -59.5q0 -19 -2 -35.5t-6 -25.5z" />
    <glyph glyph-name="uni3163" unicode="&#x3163;" horiz-adv-x="830" 
d="M496 -43q-2 -12 -3 -23.5t-5 -23.5q-2 -4 -3 -7t-3 -7q-7 -14 -18 -22q-23 -14 -51 -7q-16 3 -26 12q-9 8 -13.5 20.5t-7 24.5t-2.5 21v10v618v26t2 28t6 26t11 19q11 11 23 13.5t26 2.5q17 0 31.5 -9.5t20.5 -26.5q9 -21 10 -44l2 -46v-5q2 -77 1 -158t-1 -153v-253
q0 -9 0.5 -18t-0.5 -18z" />
    <glyph glyph-name="uniAC00" unicode="&#xac00;" horiz-adv-x="830" 
d="M291 55q-1 12 -1 24v24v318v32t-2 33q-1 5 -2.5 14t-6.5 11q-5 3 -11.5 2.5t-12.5 0.5q-7 1 -13.5 0t-13.5 0h-47q-17 -1 -34 0t-34 0q-8 -1 -14.5 -0.5t-14.5 0.5q-11 0 -23 1t-22 8q-14 10 -19 25t-5 31q-1 19 8 38q5 12 13 17q5 5 14.5 8.5t16.5 5.5q21 5 44 5.5
t45 0.5h174q13 -2 27.5 -3.5t26.5 -6.5q8 -3 15.5 -8t12.5 -12q9 -14 10.5 -28t3.5 -31q2 -28 2 -55.5v-55.5v-328q0 -1 0.5 -15.5t0.5 -34v-41t-1 -37.5q-1 -10 -3 -21t-6.5 -21t-12.5 -18t-21 -13q-17 -7 -34 -7q-13 0 -26 5.5t-18 16.5q-16 32 -16 71v44v0zM714 379
q14 -1 29 -1.5t29 -1.5q5 0 11 -1l12 -2q20 -4 32.5 -16.5t12.5 -33.5q0 -14 -2.5 -32t-15.5 -28q-6 -5 -12 -8t-14 -5q-16 -2 -39 -1t-39 0q-4 0 -4 -5v-28.5v-34v-34v-29.5q2 -52 0 -102v-14q0 -13 -0.5 -28.5t-2.5 -30.5t-7 -28.5t-14 -22.5q-12 -14 -32 -14l-2 1
q-24 1 -38.5 14t-22 32t-9.5 39.5t-2 36.5v594v9.5t2 20t6.5 24t12.5 20.5q7 7 20.5 10.5t24.5 3.5q22 0 37 -15q14 -14 16.5 -29.5t4.5 -32.5q1 -4 1 -12q2 -17 2.5 -35t1.5 -36v-13t0.5 -15.5t0.5 -31.5v-61v-23v0z" />
    <glyph glyph-name="uniAC01" unicode="&#xac01;" horiz-adv-x="855" 
d="M654 159q42 0 61.5 -18t19.5 -41v-57v-11.5v-17.5t0.5 -17t0.5 -11v-22t-1 -22q-2 -21 -16.5 -34t-37.5 -13q-5 0 -17.5 0.5t-17.5 2.5q-14 4 -21.5 12t-11.5 18t-5 21.5t-2 22.5v14t-0.5 20.5t-1.5 20t-2 13.5q-3 1 -16 2t-51 1q-32 0 -39.5 -0.5t-8.5 -0.5h-361
q-1 0 -7.5 2t-14.5 6.5t-15 11.5t-8 17q-6 39 12 60q12 14 26 16.5t15 3.5h520v0zM345 670h17.5t16.5 -2q14 -5 27.5 -12t22.5 -19q9 -13 14 -32.5t5 -35.5q0 -43 1 -86t-1 -86v-29.5t-0.5 -31t-3.5 -30t-9 -26.5q-8 -14 -21 -22t-27.5 -10t-28.5 3t-22 19q-9 15 -13 32.5
t-5 36.5t0 38t1 36q0 25 -0.5 52t-2.5 52q-1 12 -6 17.5t-12 7.5t-16 2t-19 1h-14h-7t-7 -0.5t-14 -0.5h-43q-32 0 -67 1t-72 6q-14 2 -20.5 11t-9 21t-2 25t2.5 22q4 19 21 30q11 8 23.5 8.5t25.5 1.5q14 2 28 1t28 -1h209v0zM734 596q0 1 0 -12v-30.5v-34.5v-24
q4 0 15 -0.5t23 -1t23 -1.5t16 -2q20 -4 28 -11.5t10 -18.5q3 -11 3 -25.5t-6 -24.5q-12 -20 -36 -22.5t-53 -3.5h-23v-79q-1 -11 -3 -22.5t-8 -22.5q-6 -12 -17 -20q-14 -10 -33 -10q-17 0 -28 7q-10 6 -16 15t-9.5 17.5t-4.5 15l-1 6.5v318q-1 4 1 22t8 30q10 21 40 24
q37 5 55 -15q6 -8 8.5 -15.5t4.5 -15.5q3 -10 3.5 -21t-0.5 -22z" />
    <glyph glyph-name="uniAC04" unicode="&#xac04;" horiz-adv-x="855" 
d="M222 -113q-41 0 -66 17.5t-25 40.5v144q-2 22 0 45q2 21 16.5 34t37.5 13q5 0 18 -0.5t18 -2.5q13 -4 20.5 -12t11.5 -18.5t5 -22t2 -22.5q0 -4 0.5 -18.5t1 -31t1 -30.5t1.5 -17q3 -1 16.5 -2.5t50.5 -1.5q32 0 39.5 1t8.5 1h327l6.5 -2t14.5 -6.5t15 -12t9 -17.5
q5 -38 -13 -59q-12 -14 -26 -17t-15 -3h-475v0zM344 670h17.5t16.5 -2q14 -5 27.5 -12t22.5 -19q9 -13 14 -32.5t5 -35.5q0 -43 1 -86t-1 -86v-29.5t-0.5 -31t-3.5 -30t-9 -26.5q-8 -14 -21 -22t-27.5 -10t-28.5 3t-22 19q-9 15 -13 32.5t-5 36.5t0 38t1 36q0 25 -0.5 52
t-2.5 52q-1 12 -6 17.5t-12 7.5t-16 2t-19 1h-14h-7t-7 -0.5t-14 -0.5h-43q-32 0 -67 1t-72 6q-14 2 -20.5 11t-9 21t-2 25t2.5 22q4 19 21 30q11 8 23.5 8.5t25.5 1.5q14 2 28 1t28 -1h209v0zM730 378v-91q-1 -11 -3 -22.5t-8 -22.5q-7 -13 -17 -19q-16 -11 -33 -11
q-15 0 -28 8q-10 6 -16 15t-9.5 17t-4.5 14.5l-1 6.5v330q0 5 1.5 22.5t7.5 29.5q10 21 41 24q17 2 31.5 -2t22.5 -13q6 -8 8.5 -15.5t4.5 -15.5q3 -10 3.5 -21t-0.5 -22v-100q4 0 15 -1t23.5 -1.5t23.5 -1.5t15 -2q20 -4 28 -11.5t11 -18.5q2 -11 2 -25.5t-6 -24.5
q-12 -20 -36 -23t-53 -3h-23z" />
    <glyph glyph-name="uniAC07" unicode="&#xac07;" horiz-adv-x="855" 
d="M74 68q-2 21 -0.5 45t14.5 44q7 10 19 15t25 6.5t23 1t13 -0.5h467q21 0 40 -1.5t39 -9.5q17 -7 26.5 -18t8.5 -29q-2 -17 -12.5 -29t-27.5 -17q-16 -4 -57 -4q-13 0 -21.5 0.5t-9.5 0.5h-365q-6 0 -14.5 1t-16.5 1t-15 -2t-10 -9q-2 -3 -4 -12t-2.5 -19t0.5 -18.5
t4 -10.5q4 -2 16 -4t17 -2q11 -1 21.5 -0.5t21.5 0.5h190q19 -2 35 0h145q25 0 45 -0.5t37 -8.5q11 -5 18 -10t9 -17q6 -25 -9 -45q-16 -20 -34.5 -23t-40.5 -4q-5 0 -17.5 -0.5t-29 -0.5h-36.5h-39q-46 0 -101 -1h-304q-8 1 -16 3q-7 2 -14 3t-12 3q-16 5 -20.5 23.5
t-5.5 32.5q-2 22 -0.5 47t0.5 47v22zM344 670h17.5t16.5 -2q14 -5 27.5 -12t22.5 -19q9 -13 14 -32.5t5 -35.5q0 -43 1 -86t-1 -86v-29.5t-0.5 -31t-3.5 -30t-9 -26.5q-8 -14 -21 -22t-27.5 -10t-28.5 3t-22 19q-9 15 -13 32.5t-5 36.5t0 38t1 36q0 25 -0.5 52t-2.5 52
q-1 12 -6 17.5t-12 7.5t-16 2t-19 1h-14h-7t-7 -0.5t-14 -0.5h-43q-32 0 -67 1t-72 6q-14 2 -20.5 11t-9 21t-2 25t2.5 22q4 19 21 30q11 8 23.5 8.5t25.5 1.5q14 2 28 1t28 -1h209v0zM733 596q0 1 0 -12v-30.5v-34.5v-24q4 0 15 -0.5t23 -1t23 -1.5t16 -2q20 -4 28 -11.5
t10 -18.5q3 -11 3 -25.5t-6 -24.5q-12 -20 -36 -22.5t-53 -3.5h-23v-79q-1 -11 -3 -22.5t-8 -22.5q-6 -12 -17 -20q-14 -10 -33 -10q-17 0 -28 7q-10 6 -16 15t-9.5 17.5t-4.5 15l-1 6.5v318q-1 4 1 22t8 30q10 21 40 24q37 5 55 -15q6 -8 8.5 -15.5t4.5 -15.5
q3 -10 3.5 -21t-0.5 -22z" />
    <glyph glyph-name="uniAC08" unicode="&#xac08;" horiz-adv-x="855" 
d="M688 -40q15 -1 27.5 -7.5t17.5 -22.5q11 -36 -26 -50q-12 -5 -24.5 -6t-23.5 -1h-465h-41.5t-43.5 1q-21 1 -35 15t-16 37q-2 18 -2.5 37t-0.5 44q-1 11 0.5 26t10.5 26q14 17 40.5 19.5t62.5 2.5h4.5h16.5t40.5 -0.5t77 -0.5h125h185.5v43h-492h-18t-16 2t-15.5 4
t-12.5 10q-13 20 -7 43q3 8 9 12.5t14 7.5t15.5 4.5t13.5 2.5q8 1 15.5 1.5t16.5 0.5h47.5t87.5 -0.5t141.5 -0.5h210.5q51 0 78 -15.5t27 -50.5v-78q0 -14 -6 -27t-22 -23q-14 -8 -27 -8.5t-25 -0.5h-475v-47h510v0zM350 667h17.5t16.5 -2q14 -5 27.5 -12t22.5 -19
q10 -13 14.5 -32.5t4.5 -34.5q0 -44 1.5 -82t-0.5 -81q-1 -13 -1 -28.5t-0.5 -31.5t-3.5 -30.5t-9 -26.5q-8 -14 -21 -22t-27.5 -10t-28.5 3t-22 19q-9 15 -13 32.5t-4.5 36.5t0 38t0.5 36v47t-3 47q-1 12 -6 17.5t-12 8t-16 2.5h-19h-13.5h-7.5h-7h-14h-43q-32 0 -67 0.5
t-72 5.5q-13 2 -20 11t-9.5 21t-2 25t2.5 22q4 19 21 31q11 7 24 7.5t25 1.5q14 2 28 1t28 -1h209v0zM728 394v-81q0 -26 -15 -45.5t-46 -19.5q-17 0 -28 7q-20 12 -25.5 29.5t-5.5 25.5v299q-1 4 1 22t8 30q10 21 40 24q37 5 55 -15q6 -8 8.5 -15.5t4.5 -15.5q3 -9 3.5 -26
t-0.5 -27v-81q4 0 15 -0.5t23 -1t23 -1.5t16 -2q20 -4 28 -11.5t10 -18.5q3 -11 3 -25.5t-6 -24.5q-12 -20 -36 -22.5t-53 -3.5h-23z" />
    <glyph glyph-name="uniAC09" unicode="&#xac09;" horiz-adv-x="859" 
d="M614 201q28 0 50 -3.5t48 -17.5q17 -10 25 -30t8 -44v-101v-54t-12 -51q-7 -12 -19 -19.5t-25.5 -9.5t-26 3t-19.5 17q-17 28 -17 62.5t-1 65.5v27q0 22 -9.5 30.5t-27.5 9.5h-12.5h-6.5h-6.5h-12.5h-22q-15 0 -28.5 0.5t-24.5 2.5v-23q0 -14 -6 -27.5t-22 -23.5
q-13 -7 -27 -8t-34 -1h-151v-41h161h17t16 -1q16 -1 28 -7.5t17 -22.5q12 -38 -25 -53q-12 -5 -24.5 -6t-23.5 -1h-150h-41.5t-43.5 2q-21 1 -35 15.5t-16 37.5q-2 17 -2.5 21t-0.5 18v38q-1 11 0 26.5t11 26.5q13 15 36.5 19t45.5 4h10.5t22 -0.5t44 -0.5h78.5v37h-130
q-6 0 -11.5 0.5t-10.5 -0.5h-25h-18t-16 2q-9 2 -16 4t-12 10q-7 11 -9 21.5t2 23.5q3 8 9 13t14 8t15.5 4.5t13.5 2.5q8 1 15.5 1.5t16.5 0.5h17q5 -1 9 -1h9h137q58 0 84 -21q13 9 28 11.5t22 2.5h110zM350 667h17.5t16.5 -2q14 -5 27.5 -12t22.5 -19q10 -13 14.5 -32.5
t4.5 -34.5q0 -44 1.5 -82t-0.5 -81q-1 -13 -1 -28.5t-0.5 -31.5t-3.5 -30.5t-9 -26.5q-8 -14 -21 -22t-27.5 -10t-28.5 3t-22 19q-9 15 -13 32.5t-4.5 36.5t0 38t0.5 36v47t-3 47q-1 12 -6 17.5t-12 8t-16 2.5h-19h-13.5h-7.5h-7h-14h-43q-32 0 -67 0.5t-72 5.5
q-13 2 -20 11t-9.5 21t-2 25t2.5 22q4 19 21 31q11 7 24 7.5t25 1.5q14 2 28 1t28 -1h209v0zM728 394v-81q0 -26 -15 -45.5t-46 -19.5q-17 0 -28 7q-20 12 -25.5 29.5t-5.5 25.5v299q-1 4 1 22t8 30q10 21 40 24q37 5 55 -15q6 -8 8.5 -15.5t4.5 -15.5q3 -9 3.5 -26
t-0.5 -27v-81q4 0 15 -0.5t23 -1t23 -1.5t16 -2q20 -4 28 -11.5t10 -18.5q3 -11 3 -25.5t-6 -24.5q-12 -20 -36 -22.5t-53 -3.5h-23z" />
    <glyph glyph-name="uniAC0A" unicode="&#xac0a;" horiz-adv-x="855" 
d="M350 667h17.5t16.5 -2q14 -5 27.5 -12t22.5 -19q10 -13 14.5 -32.5t4.5 -34.5q0 -44 1.5 -82t-0.5 -81q-1 -13 -1 -28.5t-0.5 -31.5t-3.5 -30.5t-9 -26.5q-8 -14 -21 -22t-27.5 -10t-28.5 3t-22 19q-9 15 -13 32.5t-4.5 36.5t0 38t0.5 36v47t-3 47q-1 12 -6 17.5t-12 8
t-16 2.5h-19h-13.5h-7.5h-7h-14h-43q-32 0 -67 0.5t-72 5.5q-13 2 -20 11t-9.5 21t-2 25t2.5 22q4 19 21 31q11 7 24 7.5t25 1.5q14 2 28 1t28 -1h209v0zM219 7v-47h166q15 -1 27.5 -7.5t17.5 -22.5q11 -36 -26 -50q-12 -5 -24.5 -6t-23.5 -1h-121h-41.5t-43.5 1
q-21 1 -35 15t-16 37q-2 17 -3 42t0 39q-1 11 0.5 26t10.5 26q13 14 36.5 18t45.5 4l116 -1v43h-138h-18t-16 2t-15.5 4t-12.5 10q-13 20 -7 43q3 8 9 12.5t14 7.5t15.5 4.5t13.5 2.5q8 1 15.5 1.5t16.5 0.5l133 -1q51 0 78 -15.5t27 -50.5v-78q0 -14 -6 -27t-22 -23
q-14 -8 -30.5 -9t-30.5 0h-112zM539 191q2 -1 15 -1h28.5t29.5 0.5t18 0.5q19 -1 34 -3t33 -10q20 -9 27 -27.5t8 -38.5v-27t-0.5 -33t-1 -33t-0.5 -27q0 -20 -1 -40t-6 -40q-3 -12 -7 -20t-16 -13q-11 -3 -17.5 -4t-17.5 -1l-131 1q-12 1 -28 1.5t-29 9.5q-10 8 -13.5 23.5
t-3.5 26.5q0 18 -2 36t-2 36v29.5t0.5 35.5t1.5 35.5t4 29.5q3 16 9.5 25.5t21.5 16.5q14 5 23 7t23 4zM728 394v-81q0 -26 -15 -45.5t-46 -19.5q-17 0 -28 7q-20 12 -25.5 29.5t-5.5 25.5v299q-1 4 1 22t8 30q10 21 40 24q37 5 55 -15q6 -8 8.5 -15.5t4.5 -15.5
q3 -9 3.5 -26t-0.5 -27v-81q4 0 15 -0.5t23 -1t23 -1.5t16 -2q20 -4 28 -11.5t10 -18.5q3 -11 3 -25.5t-6 -24.5q-12 -20 -36 -22.5t-53 -3.5h-23zM616 -28q10 1 12 5.5t3 13.5q0 4 0.5 18.5t0.5 31t-1.5 30.5t-4.5 18t-9 5.5t-13.5 2t-15 0.5h-12.5q-8 0 -12.5 -1t-6.5 -10
q-1 -3 -1.5 -16.5t-1 -29.5t-0.5 -30t1 -18q0 -5 3 -10t6 -7q2 -2 10 -2.5t17 -0.5h16.5h8.5z" />
    <glyph glyph-name="uniAC10" unicode="&#xac10;" horiz-adv-x="844" 
d="M85 -104q-1 0 -3 2q-10 8 -13.5 23.5t-3.5 26.5q-1 18 -2.5 36t-1.5 35v51t5 50q3 16 10 25.5t22 15.5q28 11 56 11h471q19 -1 39 -3t38 -10q20 -8 26.5 -26.5t8.5 -38.5q1 -17 1.5 -39.5t-0.5 -45.5t-3 -45.5t-7 -40.5q-3 -11 -7 -19.5t-16 -12.5q-11 -4 -22.5 -5
t-22.5 -1l-521 2q-13 1 -28 1t-26 8zM335 670h17.5t16.5 -2q14 -5 27.5 -12t22.5 -19q9 -13 14 -32.5t5 -35.5q0 -43 1 -86t-1 -86v-29.5t-0.5 -31t-3.5 -30t-9 -26.5q-8 -14 -21 -22t-27.5 -10t-28.5 3t-22 19q-9 15 -13 32.5t-5 36.5t0 38t1 36q0 25 -0.5 52t-2.5 52
q-1 12 -6 17.5t-12 7.5t-16 2t-19 1h-14h-7t-7 -0.5t-14 -0.5h-43q-32 0 -67 1t-72 6q-14 2 -20.5 11t-9 21t-2 25t2.5 22q4 19 21 30q11 8 23.5 8.5t25.5 1.5q14 2 28 1t28 -1h209v0zM724 596q0 1 0 -12v-30.5v-34.5v-24q4 0 15 -0.5t23 -1t23 -1.5t16 -2q20 -4 28 -11.5
t10 -18.5q3 -11 3 -25.5t-6 -24.5q-12 -20 -36 -22.5t-53 -3.5h-23v-79q-1 -11 -3 -22.5t-8 -22.5q-6 -12 -17 -20q-14 -10 -33 -10q-17 0 -28 7q-10 6 -16 15t-9.5 17.5t-4.5 15l-1 6.5v318q-1 4 1 22t8 30q10 21 40 24q37 5 55 -15q6 -8 8.5 -15.5t4.5 -15.5
q3 -10 3.5 -21t-0.5 -22zM180 13q0 -5 0.5 -9.5t3.5 -6.5q2 -2 6.5 -2.5t9.5 -0.5t12 1h313q14 -1 27 -2q11 -1 23 -1t22 2q10 1 12 5.5t3 13.5q1 8 1 18.5t-6 18.5q-7 8 -19.5 8.5t-22.5 -0.5h-278q-22 2 -43 1.5t-43 -1.5q-8 0 -12.5 -0.5t-6.5 -9.5q-2 -7 -2 -13.5v-12.5
q1 -2 0.5 -4t-0.5 -5z" />
    <glyph glyph-name="uniAC11" unicode="&#xac11;" horiz-adv-x="855" 
d="M610 -110q-9 -2 -40.5 -2.5t-74.5 -0.5t-92 0.5t-92 1t-74 0.5h-39q-20 0 -42 3t-39 16q-11 9 -17.5 22.5t-9.5 26.5t-4 23t-1 11v76q0 29 0.5 53.5t0.5 26.5q0 14 5 26.5t19 18.5q7 3 15.5 4t16.5 2q17 1 34.5 -5.5t21.5 -26.5v-26q2 -15 7 -14.5t17 -0.5h406v30
q1 18 7.5 29t24.5 14q14 3 35 2t32 -11q10 -9 10 -21.5v-24.5q-2 -46 0 -91t-3 -91q-1 -14 -5 -23.5t-12 -20.5q-8 -12 -21.5 -17t-28.5 -7t-30 -2t-27 -1zM345 670h17.5t16.5 -2q14 -5 27.5 -12t22.5 -19q9 -13 14 -32.5t5 -35.5q0 -43 1 -86t-1 -86v-29.5t-0.5 -31
t-3.5 -30t-9 -26.5q-8 -14 -21 -22t-27.5 -10t-28.5 3t-22 19q-9 15 -13 32.5t-5 36.5t0 38t1 36q0 25 -0.5 52t-2.5 52q-1 12 -6 17.5t-12 7.5t-16 2t-19 1h-14h-7t-7 -0.5t-14 -0.5h-43q-32 0 -67 1t-72 6q-14 2 -20.5 11t-9 21t-2 25t2.5 22q4 19 21 30q11 8 23.5 8.5
t25.5 1.5q14 2 28 1t28 -1h209v0zM734 596q0 1 0 -12v-30.5v-34.5v-24q4 0 15 -0.5t23 -1t23 -1.5t16 -2q20 -4 28 -11.5t10 -18.5q3 -11 3 -25.5t-6 -24.5q-12 -20 -36 -22.5t-53 -3.5h-23v-79q-1 -11 -3 -22.5t-8 -22.5q-6 -12 -17 -20q-14 -10 -33 -10q-17 0 -28 7
q-10 6 -16 15t-9.5 17.5t-4.5 15l-1 6.5v318q-1 4 1 22t8 30q10 21 40 24q37 5 55 -15q6 -8 8.5 -15.5t4.5 -15.5q3 -10 3.5 -21t-0.5 -22zM257 33q-9 0 -19.5 0.5t-18.5 -1t-13.5 -6t-5.5 -13.5q0 -11 1 -16q5 -17 15.5 -17.5t23.5 0.5q28 0 61 -0.5t63 -1.5h19.5t40.5 0.5
t51 0.5t51 0.5t40.5 0.5h19.5q5 0 12 -1t13 0t10 5t4 12t1 14t-5 13q-7 8 -16.5 9t-19.5 0h-26.5h-61t-78 0.5t-77.5 0.5h-60.5h-24.5z" />
    <glyph glyph-name="uniAC12" unicode="&#xac12;" horiz-adv-x="844" 
d="M434 -129q-4 2 -7.5 4.5t-5.5 6.5q-28 -16 -60 -16q-34 0 -70.5 0.5t-73.5 -0.5q-22 0 -42.5 1t-36 7t-25 20t-9.5 39q0 18 -0.5 40.5t-1 46.5t-0.5 47t1 41q1 11 0.5 18.5t0.5 14t3 13t7 16.5q6 11 16.5 18t22.5 8.5t23 -3t18 -15.5q7 -12 10 -20t4 -16t0.5 -17.5
t-0.5 -22.5l147 3q1 11 1 29t4 33q3 12 12 18.5t19.5 8.5t21 0.5t17.5 -5.5q13 -8 16 -15.5t5 -20.5q2 -12 2.5 -25.5t0.5 -32.5v-55.5t-1 -55.5l70 86q12 14 20.5 33t10.5 37q1 14 2 26t6 21t15.5 14t28.5 5q13 0 31 -3.5t23 -16.5q6 -15 4 -27.5t3 -28.5q5 -14 10.5 -24
t14.5 -21l65 -87q13 -17 25 -36t17 -40q4 -18 -5.5 -31t-24.5 -19t-32.5 -4t-29.5 14q-32 30 -54 63.5t-50 67.5l-11.5 -16t-25.5 -36.5t-27.5 -39t-16.5 -22.5q-9 -11 -23 -19t-28 -11q-22 -5 -37 2zM335 670h17.5t16.5 -2q14 -5 27.5 -12t22.5 -19q9 -13 14 -32.5t5 -35.5
q0 -43 1 -86t-1 -86v-29.5t-0.5 -31t-3.5 -30t-9 -26.5q-8 -14 -21 -22t-27.5 -10t-28.5 3t-22 19q-9 15 -13 32.5t-5 36.5t0 38t1 36q0 25 -0.5 52t-2.5 52q-1 12 -6 17.5t-12 7.5t-16 2t-19 1h-14h-7t-7 -0.5t-14 -0.5h-43q-32 0 -67 1t-72 6q-14 2 -20.5 11t-9 21t-2 25
t2.5 22q4 19 21 30q11 8 23.5 8.5t25.5 1.5q14 2 28 1t28 -1h209v0zM724 596q0 1 0 -12v-30.5v-34.5v-24q4 0 15 -0.5t23 -1t23 -1.5t16 -2q20 -4 28 -11.5t10 -18.5q3 -11 3 -25.5t-6 -24.5q-12 -20 -36 -22.5t-53 -3.5h-23v-79q-1 -11 -3 -22.5t-8 -22.5q-6 -12 -17 -20
q-14 -10 -33 -10q-17 0 -28 7q-10 6 -16 15t-9.5 17.5t-4.5 15l-1 6.5v318q-1 4 1 22t8 30q10 21 40 24q37 5 55 -15q6 -8 8.5 -15.5t4.5 -15.5q3 -10 3.5 -21t-0.5 -22zM354 -29q1 12 1 25t1 27q-41 -3 -85 -3h-31t-33 1l1 -48q2 -2 7.5 -2.5t11.5 -0.5t11.5 0.5t8.5 0.5
h107z" />
    <glyph glyph-name="uniAC13" unicode="&#xac13;" horiz-adv-x="851" 
d="M603 99q37 -26 73 -52t71 -54q12 -10 28 -20.5t19 -27.5q3 -14 -3.5 -29t-17.5 -24q-17 -14 -33 -12t-34 10q-37 17 -71 38t-68 44q-17 11 -33 23.5t-32 23.5q-11 8 -23 18t-28 8q-14 -1 -22 -6t-18 -13q-11 -8 -23.5 -18t-21.5 -18q-26 -22 -56.5 -44.5t-59.5 -37.5
q-11 -6 -25 -12t-28 -9.5t-28.5 -3t-26.5 6.5q-16 8 -23 24t-2 33t22.5 30t29.5 23q38 29 82 60.5t83 59.5q17 13 34 22.5t34 23.5q6 5 14 11.5t17 12t18 8.5t18 1q14 -4 24 -14t21 -18zM335 670h17.5t16.5 -2q14 -5 27.5 -12t22.5 -19q9 -13 14 -32.5t5 -35.5q0 -43 1 -86
t-1 -86v-29.5t-0.5 -31t-3.5 -30t-9 -26.5q-8 -14 -21 -22t-27.5 -10t-28.5 3t-22 19q-9 15 -13 32.5t-5 36.5t0 38t1 36q0 25 -0.5 52t-2.5 52q-1 12 -6 17.5t-12 7.5t-16 2t-19 1h-14h-7t-7 -0.5t-14 -0.5h-43q-32 0 -67 1t-72 6q-14 2 -20.5 11t-9 21t-2 25t2.5 22
q4 19 21 30q11 8 23.5 8.5t25.5 1.5q14 2 28 1t28 -1h209v0zM724 596q0 1 0 -12v-30.5v-34.5v-24q4 0 15 -0.5t23 -1t23 -1.5t16 -2q20 -4 28 -11.5t10 -18.5q3 -11 3 -25.5t-6 -24.5q-12 -20 -36 -22.5t-53 -3.5h-23v-79q-1 -11 -3 -22.5t-8 -22.5q-6 -12 -17 -20
q-14 -10 -33 -10q-17 0 -28 7q-10 6 -16 15t-9.5 17.5t-4.5 15l-1 6.5v318q-1 4 1 22t8 30q10 21 40 24q37 5 55 -15q6 -8 8.5 -15.5t4.5 -15.5q3 -10 3.5 -21t-0.5 -22z" />
    <glyph glyph-name="uniAC14" unicode="&#xac14;" horiz-adv-x="855" 
d="M224 -55q-11 -15 -22.5 -28.5t-25 -22.5t-28.5 -11.5t-32 3.5q-21 7 -24.5 21t2.5 30t17 31t18 26q18 29 35 58.5t37 57.5q8 11 17.5 24t20.5 23.5t24 18t28 8.5t27 -6t21.5 -17.5t18 -23t15.5 -22.5q36 -56 69 -111q17 26 32.5 53t33.5 53q16 23 37.5 47.5t52.5 26.5
q15 1 27 -6t21.5 -17.5t18 -23t15.5 -22.5q24 -35 45.5 -71.5t44.5 -72.5q6 -9 11.5 -17t9 -16t3.5 -16.5t-7 -18.5q-11 -17 -28 -20.5t-34 7.5q-34 20 -59 52t-48 62q-15 19 -24.5 18t-22.5 -20q-9 -12 -19 -24t-21 -29q-11 -15 -22.5 -29.5t-25 -24t-28.5 -12.5t-32 3
q-16 6 -22 15q-27 20 -48 48.5t-42 54.5q-15 19 -24 18t-23 -20q-9 -12 -19 -26t-21 -31zM335 670h17.5t16.5 -2q14 -5 27.5 -12t22.5 -19q9 -13 14 -32.5t5 -35.5q0 -43 1 -86t-1 -86v-29.5t-0.5 -31t-3.5 -30t-9 -26.5q-8 -14 -21 -22t-27.5 -10t-28.5 3t-22 19
q-9 15 -13 32.5t-5 36.5t0 38t1 36q0 25 -0.5 52t-2.5 52q-1 12 -6 17.5t-12 7.5t-16 2t-19 1h-14h-7t-7 -0.5t-14 -0.5h-43q-32 0 -67 1t-72 6q-14 2 -20.5 11t-9 21t-2 25t2.5 22q4 19 21 30q11 8 23.5 8.5t25.5 1.5q14 2 28 1t28 -1h209v0zM724 596q0 1 0 -12v-30.5
v-34.5v-24q4 0 15 -0.5t23 -1t23 -1.5t16 -2q20 -4 28 -11.5t10 -18.5q3 -11 3 -25.5t-6 -24.5q-12 -20 -36 -22.5t-53 -3.5h-23v-79q-1 -11 -3 -22.5t-8 -22.5q-6 -12 -17 -20q-14 -10 -33 -10q-17 0 -28 7q-10 6 -16 15t-9.5 17.5t-4.5 15l-1 6.5v318q-1 4 1 22t8 30
q10 21 40 24q37 5 55 -15q6 -8 8.5 -15.5t4.5 -15.5q3 -10 3.5 -21t-0.5 -22z" />
    <glyph glyph-name="uniAC15" unicode="&#xac15;" horiz-adv-x="851" 
d="M74 34q0 45 26.5 75t71.5 47.5t106 24.5t130 7t130 -5t106 -21.5t71.5 -46.5t26.5 -81q0 -50 -26.5 -80t-71.5 -46.5t-106 -22t-130 -5.5t-130 5.5t-106 22t-71.5 46.5t-26.5 80zM335 670h17.5t16.5 -2q14 -5 27.5 -12t22.5 -19q9 -13 14 -32.5t5 -35.5q0 -43 1 -86
t-1 -86v-29.5t-0.5 -31t-3.5 -30t-9 -26.5q-8 -14 -21 -22t-27.5 -10t-28.5 3t-22 19q-9 15 -13 32.5t-5 36.5t0 38t1 36q0 25 -0.5 52t-2.5 52q-1 12 -6 17.5t-12 7.5t-16 2t-19 1h-14h-7t-7 -0.5t-14 -0.5h-43q-32 0 -67 1t-72 6q-14 2 -20.5 11t-9 21t-2 25t2.5 22
q4 19 21 30q11 8 23.5 8.5t25.5 1.5q14 2 28 1t28 -1h209v0zM724 596q0 1 0 -12v-30.5v-34.5v-24q4 0 15 -0.5t23 -1t23 -1.5t16 -2q20 -4 28 -11.5t10 -18.5q3 -11 3 -25.5t-6 -24.5q-12 -20 -36 -22.5t-53 -3.5h-23v-79q-1 -11 -3 -22.5t-8 -22.5q-6 -12 -17 -20
q-14 -10 -33 -10q-17 0 -28 7q-10 6 -16 15t-9.5 17.5t-4.5 15l-1 6.5v318q-1 4 1 22t8 30q10 21 40 24q37 5 55 -15q6 -8 8.5 -15.5t4.5 -15.5q3 -10 3.5 -21t-0.5 -22zM607 34q0 17 -18 27t-46.5 15t-64 6.5t-70.5 1.5t-69.5 -1.5t-62 -6.5t-44.5 -15t-17 -27
q0 -15 17 -25t44.5 -15t62 -7t69.5 -2h70.5t64 4t46.5 14.5t18 30.5z" />
    <glyph glyph-name="uniAC16" unicode="&#xac16;" horiz-adv-x="855" 
d="M699 -7q20 -9 36 -18.5t32 -23.5q9 -8 12 -19.5t0.5 -22.5t-10 -20t-20.5 -12q-33 -7 -67 1t-63 22q-6 3 -20 10.5t-32 17.5t-37.5 21t-37.5 21t-32.5 17.5t-21.5 10.5q-4 -2 -25 -14.5t-46 -27t-46 -27t-24 -14.5q-17 -9 -34.5 -17.5t-35.5 -15.5t-38 -10.5t-39 1.5
q-13 3 -24.5 11.5t-13.5 20.5q-2 6 -1 12.5t3 11.5q4 16 17.5 26t28.5 18q17 10 35 19l36 18q19 10 37 19t36 19q1 1 11 6t21.5 11t21.5 11.5t10 7.5h-161q-20 2 -36 7q-14 5 -26.5 13t-15.5 22q-2 20 8 40t34 22q7 1 14.5 1h15.5h447q18 0 36 -0.5t33 -4.5t25.5 -14
t13.5 -28q-2 -22 -12 -34t-24 -17.5t-31.5 -6.5t-33.5 0h-133q2 -1 15.5 -8.5t32 -17.5t40 -21t40 -20.5t32.5 -16.5t17 -7zM335 670h17.5t16.5 -2q14 -5 27.5 -12t22.5 -19q9 -13 14 -32.5t5 -35.5q0 -43 1 -86t-1 -86v-29.5t-0.5 -31t-3.5 -30t-9 -26.5q-8 -14 -21 -22
t-27.5 -10t-28.5 3t-22 19q-9 15 -13 32.5t-5 36.5t0 38t1 36q0 25 -0.5 52t-2.5 52q-1 12 -6 17.5t-12 7.5t-16 2t-19 1h-14h-7t-7 -0.5t-14 -0.5h-43q-32 0 -67 1t-72 6q-14 2 -20.5 11t-9 21t-2 25t2.5 22q4 19 21 30q11 8 23.5 8.5t25.5 1.5q14 2 28 1t28 -1h209v0z
M724 597q0 1 0 -12v-30.5v-34.5v-24q4 0 15 -0.5t23 -1t23 -1.5t16 -2q20 -4 28 -11.5t10 -18.5q3 -11 3 -25.5t-6 -24.5q-12 -20 -36 -22.5t-53 -3.5h-23v-79q-1 -11 -3 -22.5t-8 -22.5q-6 -12 -17 -20q-14 -10 -33 -10q-17 0 -28 7q-10 6 -16 15t-9.5 17.5t-4.5 15l-1 6.5
v318q-1 4 1 22t8 30q10 21 40 24q37 5 55 -15q6 -8 8.5 -15.5t4.5 -15.5q3 -10 3.5 -21t-0.5 -22z" />
    <glyph glyph-name="uniAC17" unicode="&#xac17;" horiz-adv-x="855" 
d="M719 -12q20 -8 36 -17.5t32 -22.5q9 -8 12 -19t0.5 -22t-10 -19.5t-20.5 -11.5q-33 -7 -67 1t-63 21q-6 3 -20 10.5t-32 17t-37.5 20.5t-37.5 20.5t-32.5 16.5t-21.5 10q-4 -2 -25 -14t-46 -26t-46 -26t-24 -14q-17 -9 -34.5 -17.5t-35.5 -14.5q-18 -7 -38 -10.5t-39 1.5
q-13 3 -24.5 11t-13.5 20q-2 6 -1 12t3 11q4 16 17.5 25.5t28.5 17.5q17 10 35 18.5t36 17.5q19 9 37 18t36 19q1 1 11 5.5t21.5 10.5t21.5 11.5t10 7.5h-161q-20 2 -36 7q-14 5 -26.5 12t-15.5 21q-2 20 8 39.5t34 21.5h210q1 17 3 29t10 26q11 20 32 28t42 -3
q20 -10 28 -30t10 -43v-7h142q18 0 36 -0.5t33 -4.5t25.5 -13t13.5 -27q-2 -21 -12 -33t-24 -17t-31.5 -6t-33.5 0h-133q3 -1 16 -8.5t31.5 -17t40 -20.5t40 -20.5t32.5 -16t17 -6.5zM350 667h17.5t16.5 -2q14 -5 27.5 -12t22.5 -19q10 -13 14.5 -32.5t4.5 -34.5
q0 -44 1.5 -82t-0.5 -81q-1 -13 -1 -28.5t-0.5 -31.5t-3.5 -30.5t-9 -26.5q-8 -14 -21 -22t-27.5 -10t-28.5 3t-22 19q-9 15 -13 32.5t-4.5 36.5t0 38t0.5 36v47t-3 47q-1 12 -6 17.5t-12 8t-16 2.5h-19h-13.5h-7.5h-7h-14h-43q-32 0 -67 0.5t-72 5.5q-13 2 -20 11t-9.5 21
t-2 25t2.5 22q4 19 21 31q11 7 24 7.5t25 1.5q14 2 28 1t28 -1h209v0zM728 394v-81q0 -26 -15 -45.5t-46 -19.5q-17 0 -28 7q-20 12 -25.5 29.5t-5.5 25.5v299q-1 4 1 22t8 30q10 21 40 24q37 5 55 -15q6 -8 8.5 -15.5t4.5 -15.5q3 -9 3.5 -26t-0.5 -27v-81q4 0 15 -0.5
t23 -1t23 -1.5t16 -2q20 -4 28 -11.5t10 -18.5q3 -11 3 -25.5t-6 -24.5q-12 -20 -36 -22.5t-53 -3.5h-23z" />
    <glyph glyph-name="uniAC19" unicode="&#xac19;" horiz-adv-x="863" 
d="M688 -42q21 0 39.5 -10t16.5 -36q-1 -17 -11 -25t-24 -11t-30 -2.5t-28 0.5h-429q-21 0 -40.5 0.5t-43.5 1.5q-22 2 -32.5 19.5t-14.5 35.5q-5 26 -4.5 51.5t0.5 51.5q0 19 -1.5 37.5t-0.5 37.5q1 17 3 34t13 31q27 30 72 30h22q5 -1 8 -1h7h198q52 0 104 -0.5t105 1.5
q12 0 30 1t36 -1t33.5 -7.5t22.5 -18.5q9 -17 1 -34.5t-24 -19.5q-28 -5 -54 -4.5t-54 0.5h-360q-8 0 -15 1t-15 0q-9 -1 -10.5 -2.5t-1.5 -9.5v-24q4 -6 12.5 -4.5t15.5 1.5q16 2 28.5 1.5t29.5 -0.5q29 0 58 -0.5t58 -0.5h280q11 0 25 -0.5t24 -8.5q11 -11 13 -31t-8 -31
q-6 -7 -14.5 -9.5t-19.5 -3.5q-26 -3 -52.5 -2t-47.5 1h-379h-10t-10 -2l-2 -32q5 -2 11 -2.5t11 -1.5q8 -1 10.5 -1h10.5h438v0zM350 667h17.5t16.5 -2q14 -5 27.5 -12t22.5 -19q10 -13 14.5 -32.5t4.5 -34.5q0 -44 1.5 -82t-0.5 -81q-1 -13 -1 -28.5t-0.5 -31.5
t-3.5 -30.5t-9 -26.5q-8 -14 -21 -22t-27.5 -10t-28.5 3t-22 19q-9 15 -13 32.5t-4.5 36.5t0 38t0.5 36v47t-3 47q-1 12 -6 17.5t-12 8t-16 2.5h-19h-13.5h-7.5h-7h-14h-43q-32 0 -67 0.5t-72 5.5q-13 2 -20 11t-9.5 21t-2 25t2.5 22q4 19 21 31q11 7 24 7.5t25 1.5
q14 2 28 1t28 -1h209v0zM728 394v-81q0 -26 -15 -45.5t-46 -19.5q-17 0 -28 7q-20 12 -25.5 29.5t-5.5 25.5v299q-1 4 1 22t8 30q10 21 40 24q37 5 55 -15q6 -8 8.5 -15.5t4.5 -15.5q3 -9 3.5 -26t-0.5 -27v-81q4 0 15 -0.5t23 -1t23 -1.5t16 -2q20 -4 28 -11.5t10 -18.5
q3 -11 3 -25.5t-6 -24.5q-12 -20 -36 -22.5t-53 -3.5h-23z" />
    <glyph glyph-name="uniAC1A" unicode="&#xac1a;" horiz-adv-x="859" 
d="M138 -109q-17 0 -36 3.5t-28 19.5q-5 7 -7 17t-1 20t5.5 18.5t12.5 13.5q10 5 20.5 7t21.5 4h28h23l-3 82l-7.5 -0.5t-17 -0.5t-18 0.5t-11.5 0.5q-12 1 -25.5 11t-18.5 23q-7 20 1 42q6 18 21.5 24t32.5 9h22h14h459h34q14 -1 29 -2t26 -5t19.5 -15t11.5 -24.5t-0.5 -26
t-15.5 -19.5q-11 -8 -17 -10t-22 -5q-12 -2 -29.5 -1.5t-29.5 0.5v-15t0.5 -28t1 -27.5t1.5 -12.5q11 -1 26 0.5t26 0.5q17 -1 29.5 -2t26.5 -12t13 -33.5t-12 -35.5q-10 -11 -31 -16t-42 -6q-25 -2 -53 1h-480v0zM350 667h17.5t16.5 -2q14 -5 27.5 -12t22.5 -19
q10 -13 14.5 -32.5t4.5 -34.5q0 -44 1.5 -82t-0.5 -81q-1 -13 -1 -28.5t-0.5 -31.5t-3.5 -30.5t-9 -26.5q-8 -14 -21 -22t-27.5 -10t-28.5 3t-22 19q-9 15 -13 32.5t-4.5 36.5t0 38t0.5 36v47t-3 47q-1 12 -6 17.5t-12 8t-16 2.5h-19h-13.5h-7.5h-7h-14h-43q-32 0 -67 0.5
t-72 5.5q-13 2 -20 11t-9.5 21t-2 25t2.5 22q4 19 21 31q11 7 24 7.5t25 1.5q14 2 28 1t28 -1h209v0zM728 394v-81q0 -26 -15 -45.5t-46 -19.5q-17 0 -28 7q-20 12 -25.5 29.5t-5.5 25.5v299q-1 4 1 22t8 30q10 21 40 24q37 5 55 -15q6 -8 8.5 -15.5t4.5 -15.5q3 -9 3.5 -26
t-0.5 -27v-81q4 0 15 -0.5t23 -1t23 -1.5t16 -2q20 -4 28 -11.5t10 -18.5q3 -11 3 -25.5t-6 -24.5q-12 -20 -36 -22.5t-53 -3.5h-23zM284 16v-6.5t1 -5.5q1 -5 9 -5q4 0 8 1h220q1 18 1 34v25t-2 14q-3 5 -9.5 5t-11.5 -1h-173q-12 1 -17 0t-18 0q-8 1 -8.5 -3.5t-0.5 -12.5
z" />
    <glyph glyph-name="uniAC1B" unicode="&#xac1b;" horiz-adv-x="851" 
d="M119 -9q0 46 47 73h-6q-21 -2 -38 2q-14 3 -27 11t-15 25t7 32.5t29 17.5q6 1 12 1h14h224q0 12 1 24t5 22.5t11.5 19t20.5 12.5q16 6 30.5 3t25 -10.5t17.5 -19.5t9 -24q3 -15 1 -27h156q15 0 33 2t35.5 0.5t30.5 -8.5t18 -26q4 -17 -2 -28t-17.5 -17.5t-27 -9
t-30.5 -3.5q19 -13 29 -30.5t10 -41.5q0 -37 -23.5 -59t-64.5 -34t-96 -16t-117 -4t-117 4t-96 16t-65 34t-24 59zM350 667h17.5t16.5 -2q14 -5 27.5 -12t22.5 -19q10 -13 14.5 -32.5t4.5 -34.5q0 -22 0.5 -40.5t1 -36.5t0.5 -36.5t-1 -39.5q-1 -13 -1 -28.5t-0.5 -31.5
t-3.5 -30.5t-9 -26.5q-8 -14 -21 -22t-27.5 -10t-28.5 3t-22 19q-9 15 -13 32.5t-4.5 36.5t0 38t0.5 36v42t-3 42q-1 12 -6 17.5t-12 8t-16 2.5h-19h-13.5h-7.5h-7h-14h-43q-32 0 -67 0.5t-72 5.5q-13 2 -20 11t-9.5 21t-2 25t2.5 22q4 19 21 31q11 7 24 7.5t25 1.5
q14 2 28 1t28 -1h209v0zM728 394v-81q0 -26 -15 -45.5t-46 -19.5q-17 0 -28 7q-20 12 -25.5 29.5t-5.5 25.5v299q-1 4 1 22t8 30q10 21 40 24q37 5 55 -15q6 -8 8.5 -15.5t4.5 -15.5q3 -9 3.5 -26t-0.5 -27v-81q4 0 15 -0.5t23 -1t23 -1.5t16 -2q20 -4 28 -11.5t10 -18.5
q3 -11 3 -25.5t-6 -24.5q-12 -20 -36 -22.5t-53 -3.5h-23zM598 -9q0 13 -16 19t-41 8.5t-57 2.5h-63h-62.5t-54.5 -2.5t-39 -8.5t-15 -19q0 -11 15 -17t39 -8.5t54.5 -3t62.5 -0.5q31 0 63 -1t57 1t41 8t16 21z" />
    <glyph glyph-name="uniAC1C" unicode="&#xac1c;" horiz-adv-x="830" 
d="M782 4q1 -27 -3 -55t-26 -43q-17 -10 -30 -10q-17 0 -27.5 12t-16 29t-7 35.5t-1.5 32.5v244h-65v-250q2 -23 -1.5 -47.5t-13.5 -38.5q-12 -17 -35 -17q-11 0 -20.5 5t-17.5 13q-17 17 -20 41t-3 47v592q0 14 1 28.5t6 27t14.5 22.5t26.5 14q23 5 37 -11q11 -11 16.5 -29
t7.5 -39.5t2 -45v-45.5v-146h65v215v31t3.5 31.5t14 25.5t31.5 13q22 2 35 -13q12 -12 17.5 -30.5t7.5 -38.5t2 -41v-37v-522zM260 20v28v31t-0.5 43t-0.5 65v97v138v32.5t-2 32.5q-3 18 -9 23t-24 5q-44 1 -78 0.5t-73 -0.5q-35 0 -52 18t-17 47t13.5 44.5t39.5 20.5
q20 5 38 6t40 1h143q5 0 10.5 -0.5t10.5 -0.5q13 -1 27.5 -3t26.5 -7q8 -3 15.5 -8t12.5 -12q10 -14 11 -26t3 -29q2 -27 2 -55v-56v-320q0 -1 0.5 -15t0.5 -34v-41.5t-1 -37.5q-3 -36 -22.5 -58t-54.5 -22q-18 0 -30 9t-18.5 23t-9 30.5t-2.5 30.5z" />
    <glyph glyph-name="uniAC1D" unicode="&#xac1d;" horiz-adv-x="803" 
d="M589 287q-1 -11 -3 -22.5t-8 -22.5q-7 -13 -17 -19q-7 -5 -12 -8t-14 -3q-14 0 -28 8q-10 6 -16 15t-9 17.5t-4 14.5t-1 7v329q0 5 1 22.5t7 29.5q10 21 41 24q17 2 28 -2t19 -13q7 -8 9 -15.5t4 -15.5q3 -10 3.5 -21t0.5 -22l-0.5 -10t-0.5 -23.5v-26.5v-20
q5 -1 18 -1.5t27 -1.5l1 86q-1 11 -0.5 21.5t3.5 21.5q4 15 18 30q16 20 47 16q26 -4 36 -26q6 -12 7.5 -29t0.5 -21v-335q0 -1 -0.5 -7t-3.5 -14.5t-8.5 -17.5t-15.5 -15q-11 -7 -23 -7q-20 0 -33 10q-11 8 -17 20q-5 9 -7.5 21.5t-3.5 26t-1 26.5v22v62h-45v-111v0z
M639 144q41 0 66 -12.5t25 -35.5v-134q2 -23 0 -44t-16.5 -34t-37.5 -13q-5 0 -18 0.5t-18 2.5q-13 4 -20.5 12t-11.5 18t-5.5 21.5t-2.5 22.5q0 4 -0.5 15.5t-0.5 24t-0.5 23.5t-1.5 15q-3 1 -16.5 2t-50.5 1q-32 0 -39.5 -1t-8.5 -1h-361l-1 1l-6.5 2t-14.5 6t-15.5 11
t-8.5 18q-5 38 13 60q12 14 26 16.5t15 2.5h510v0zM279 647h21t20 -2q14 -5 27.5 -12t22.5 -19q10 -13 14.5 -32.5t4.5 -34.5q0 -44 1.5 -87t-0.5 -86q-1 -13 -1 -28.5t-0.5 -31.5t-3.5 -30.5t-9 -26.5q-8 -14 -20.5 -22t-26.5 -10t-27.5 3t-21.5 19q-9 15 -13 32.5
t-4.5 36.5t0 38t0.5 36v52t-3 52q-1 12 -6 17.5t-12 8t-16 2.5h-19h-85h-23.5t-13.5 0.5t-14.5 2t-26.5 3.5q-13 2 -20 11t-9.5 21t-2 25t2.5 22q4 19 21 31q11 7 24 7.5t25 1.5h194z" />
    <glyph glyph-name="uniAC20" unicode="&#xac20;" horiz-adv-x="803" 
d="M589 246q-1 -11 -3 -22.5t-8 -22.5q-7 -13 -17 -19q-7 -5 -12 -8t-14 -3q-14 0 -28 8q-10 6 -16 15t-9 17.5t-4 14.5t-1 7v370q0 5 1 22.5t7 29.5q10 21 41 24q17 2 28 -2t19 -13q7 -8 9 -15.5t4 -15.5q3 -10 3.5 -21t0.5 -22l-0.5 -10t-0.5 -23.5v-26.5v-20
q5 -1 18.5 -1.5t27.5 -1.5v86q-1 11 -0.5 21.5t3.5 21.5q4 15 18 30q16 20 47 16q26 -4 36 -26q6 -12 7.5 -29t0.5 -21v-387q0 -1 -0.5 -7t-3.5 -14.5t-8.5 -17.5t-15.5 -15q-11 -7 -23 -7q-20 0 -33 10q-11 8 -17 20q-5 9 -7.5 22t-3.5 26.5t-1 26.5v22v113h-45v-152v0z
M741 -37q5 -38 -13 -59q-12 -14 -26 -17t-15 -3h-521q-41 0 -56 17.5t-15 40.5v142q-2 22 0 45q2 21 16.5 34t37.5 13q5 0 18 -1t18 -3q13 -4 20.5 -11.5t11.5 -18t5 -22t2 -22.5q0 -5 0.5 -19t1 -29.5t1 -29.5t1.5 -17q3 -1 16.5 -2.5t50.5 -1.5q32 0 39.5 1t8.5 1h353
l6.5 -2t14.5 -6.5t15 -12t9 -17.5zM279 647h21t20 -2q14 -5 27.5 -12t22.5 -19q10 -13 14.5 -32.5t4.5 -34.5q0 -44 1.5 -87t-0.5 -86q-1 -13 -1 -28.5t-0.5 -31.5t-3.5 -30.5t-9 -26.5q-8 -14 -20.5 -22t-26.5 -10t-27.5 3t-21.5 19q-9 15 -13 32.5t-4.5 36.5t0 38t0.5 36
v52t-3 52q-1 12 -6 17.5t-12 8t-16 2.5h-19h-85h-23.5t-13.5 0.5t-14.5 2t-26.5 3.5q-13 2 -20 11t-9.5 21t-2 25t2.5 22q4 19 21 31q11 7 24 7.5t25 1.5h194z" />
    <glyph glyph-name="uniAC24" unicode="&#xac24;" horiz-adv-x="807" 
d="M695 -36q16 -1 28 -7.5t17 -22.5q11 -37 -26 -50q-12 -5 -24.5 -6t-22.5 -1h-465h-42t-44 1q-27 1 -37.5 17t-12.5 39l-4 66q-1 11 0.5 26.5t10.5 26.5q14 14 32 18t40 4h31q5 0 8 -0.5t6 -0.5h436v35h-446q-5 0 -10.5 0.5t-11.5 -0.5h-24h-18t-16 2q-9 2 -16.5 4
t-12.5 10q-6 11 -8 21t2 22q3 8 9 12.5t14 7.5t15.5 4.5t13.5 2.5q8 1 15.5 1.5t15.5 0.5h17q5 -1 9.5 -1h9.5h452q51 0 78 -15.5t27 -50.5v-70q0 -14 -6.5 -27t-22.5 -23q-13 -8 -26 -8.5t-26 -0.5h-475v-37h510v0zM633 374q-1 1 -1 5v15h-47v-80q-1 -11 -3 -22.5t-8 -22.5
q-6 -12 -17 -20q-8 -5 -12.5 -7.5t-13.5 -2.5q-15 0 -28 7q-10 6 -16 15t-9 17.5t-4.5 14.5t-1.5 7v310q0 4 1.5 22t7.5 30q10 19 41 24q17 2 28 -2t19 -14q7 -8 9 -15t4 -15q3 -11 3.5 -21.5t-0.5 -21.5v-92q4 -1 17.5 -0.5t30.5 0.5q0 37 0.5 65.5t0.5 30.5q-1 10 -0.5 21
t3.5 22q4 15 18 30q8 9 18.5 13.5t27.5 2.5q15 -2 23.5 -9.5t13.5 -16.5q6 -12 7 -29t1 -21v-316l-0.5 -6.5t-3.5 -15t-8.5 -17t-15.5 -14.5q-6 -5 -11 -6t-13 -1q-19 0 -32 10q-12 8 -17 20q-15 28 -13.5 51.5t1.5 54.5zM279 667h21t20 -2q14 -5 27.5 -12t22.5 -19
q10 -13 14.5 -32.5t4.5 -34.5q0 -44 1.5 -87t-0.5 -86q-1 -13 -1 -28.5t-0.5 -31.5t-3.5 -30.5t-9 -26.5q-8 -14 -20.5 -22t-26.5 -10t-27.5 3t-21.5 19q-9 15 -13 32.5t-4.5 36.5t0 38t0.5 36v52t-3 52q-1 12 -6 17.5t-12 8t-16 2.5h-19h-85h-23.5t-13.5 0.5t-14.5 2
t-26.5 3.5q-13 2 -20 11t-9.5 21t-2 25t2.5 22q4 19 21 31q11 7 24 7.5t25 1.5h194z" />
    <glyph glyph-name="uniAC2C" unicode="&#xac2c;" horiz-adv-x="807" 
d="M148 -113q-12 1 -28.5 0.5t-27.5 10.5q-10 8 -13.5 23.5t-3.5 26.5q-1 18 -2.5 36t-1.5 35v51t5 50q3 16 10 25.5t22 15.5q28 11 56 11h471q19 -1 39 -3t38 -10q20 -8 26.5 -26.5t8.5 -38.5q1 -17 1.5 -39.5t-0.5 -45.5t-3 -45.5t-7 -40.5q-3 -11 -7 -19.5t-16 -12.5
q-11 -4 -22.5 -5t-22.5 -1l-522 2v0zM589 287q-1 -11 -3 -22.5t-8 -22.5q-7 -13 -17 -19q-7 -5 -12 -8t-14 -3q-14 0 -28 8q-10 6 -16 15t-9 17.5t-4 14.5t-1 7v329q-1 5 0.5 22.5t7.5 29.5q10 21 41 24q17 2 28 -2t19 -13q7 -8 9 -15.5t4 -15.5q3 -10 3.5 -21t0.5 -22
l-0.5 -10t-0.5 -23.5v-26.5v-20q5 -1 18 -1.5t27 -1.5l1 86q-1 11 -0.5 21.5t3.5 21.5q4 15 18 30q16 20 47 16q26 -4 36 -26q6 -12 7.5 -29t0.5 -21v-335q0 -1 -0.5 -7t-3.5 -14.5t-8.5 -17.5t-15.5 -15q-11 -7 -23 -7q-20 0 -33 10q-11 8 -17 20q-5 9 -7.5 21.5t-3.5 26
t-1 26.5v22v62h-45v-111v0zM279 647h21t20 -2q14 -5 27.5 -12t22.5 -19q10 -13 14.5 -32.5t4.5 -34.5q0 -44 1.5 -87t-0.5 -86q-1 -13 -1 -28.5t-0.5 -31.5t-3.5 -30.5t-9 -26.5q-8 -14 -20.5 -22t-26.5 -10t-27.5 3t-21.5 19q-9 15 -13 32.5t-4.5 36.5t0 38t0.5 36v52
t-3 52q-1 12 -6 17.5t-12 8t-16 2.5h-19h-85h-23.5t-13.5 0.5t-14.5 2t-26.5 3.5q-13 2 -20 11t-9.5 21t-2 25t2.5 22q4 19 21 31q11 7 24 7.5t25 1.5h194zM190 13q0 -5 0.5 -9.5t3.5 -6.5q2 -2 6.5 -2.5t9.5 -0.5t12 1h313q14 -1 27 -2q11 -1 23 -1t22 2q10 1 12 5.5
t3 13.5q1 8 1 18.5t-6 18.5q-7 8 -19.5 8.5t-22.5 -0.5h-278q-22 2 -43 1.5t-43 -1.5q-8 0 -12.5 -0.5t-6.5 -9.5q-2 -7 -2 -13.5v-12.5q1 -2 0.5 -4t-0.5 -5z" />
    <glyph glyph-name="uniAC2D" unicode="&#xac2d;" horiz-adv-x="807" 
d="M620 -110q-9 -2 -40.5 -2.5t-74.5 -0.5t-92 0.5t-92 1t-74 0.5h-39q-20 0 -42 3t-39 16q-11 9 -17.5 22.5t-9.5 26.5t-4 23t-1 11v75q0 29 0.5 53t0.5 26q0 14 5 26.5t19 18.5q7 3 15.5 4t16.5 2q17 1 34.5 -5.5t21.5 -26.5v-26q2 -15 7 -14.5t17 -0.5h406v30
q1 18 7.5 29t24.5 14q14 3 35 2t32 -11q10 -9 10 -21.5v-24.5q-2 -46 0 -90t-3 -90q-1 -14 -5 -23.5t-12 -20.5q-8 -12 -21.5 -17t-28.5 -7t-30 -2t-27 -1zM589 307q-1 -11 -3 -22.5t-8 -22.5q-7 -13 -17 -19q-7 -5 -12 -8t-14 -3q-14 0 -28 8q-10 6 -16 15t-9 17.5t-4 14.5
t-1 7v309q-1 5 0.5 22.5t7.5 29.5q10 21 41 24q17 2 28 -2t19 -13q7 -8 9 -15.5t4 -15.5q3 -10 3.5 -21t0.5 -22l-0.5 -10t-0.5 -23.5v-26.5v-20q5 -1 18 -1.5t27 -1.5l1 86q-1 11 -0.5 21.5t3.5 21.5q4 15 18 30q16 20 47 16q26 -4 36 -26q6 -12 7.5 -29t0.5 -21v-315
q0 -1 -0.5 -7t-3.5 -14.5t-8.5 -17.5t-15.5 -15q-11 -7 -23 -7q-20 0 -33 10q-11 8 -17 20q-5 9 -7.5 21.5t-3.5 26t-1 26.5v22v42h-45v-91v0zM279 647h21t20 -2q14 -5 27.5 -12t22.5 -19q10 -13 14.5 -32.5t4.5 -34.5q0 -44 1.5 -87t-0.5 -86q-1 -13 -1 -28.5t-0.5 -31.5
t-3.5 -30.5t-9 -26.5q-8 -14 -20.5 -22t-26.5 -10t-27.5 3t-21.5 19q-9 15 -13 32.5t-4.5 36.5t0 38t0.5 36v52t-3 52q-1 12 -6 17.5t-12 8t-16 2.5h-19h-85h-23.5t-13.5 0.5t-14.5 2t-26.5 3.5q-13 2 -20 11t-9.5 21t-2 25t2.5 22q4 19 21 31q11 7 24 7.5t25 1.5h194z
M267 33q-9 0 -19.5 0.5t-18.5 -1t-13.5 -6t-5.5 -13.5q0 -11 1 -16q5 -17 15.5 -17.5t23.5 0.5q28 0 61 -0.5t63 -1.5h19.5t40.5 0.5t51 0.5t51 0.5t40.5 0.5h19.5q5 0 12 -1t13 0t10 5t4 12t1 14t-5 13q-7 8 -16.5 9t-19.5 0h-26.5h-61t-78 0.5t-77.5 0.5h-60.5h-24.5z" />
    <glyph glyph-name="uniAC2F" unicode="&#xac2f;" horiz-adv-x="805" 
d="M589 297q-1 -11 -3 -22.5t-8 -22.5q-7 -13 -17 -19q-7 -5 -12 -8t-14 -3q-14 0 -28 8q-10 6 -16 15t-9 17.5t-4 14.5t-1 7v319q-1 5 0.5 22.5t7.5 29.5q10 21 41 24q17 2 28 -2t19 -13q7 -8 9 -15.5t4 -15.5q3 -10 3.5 -21t0.5 -22l-0.5 -10t-0.5 -23.5v-26.5v-20
q5 -1 18 -1.5t27 -1.5l1 86q-1 11 -0.5 21.5t3.5 21.5q4 15 18 30q16 20 47 16q26 -4 36 -26q6 -12 7.5 -29t0.5 -21v-345q0 -1 -0.5 -7t-3.5 -14.5t-8.5 -17.5t-15.5 -15q-11 -7 -23 -7q-20 0 -33 10q-11 8 -17 20q-5 9 -7.5 21.5t-3.5 26t-1 26.5v22v72h-45v-101v0z
M582 99q37 -26 73 -52t71 -54q12 -10 28 -20.5t19 -27.5q3 -14 -3.5 -29t-17.5 -24q-17 -14 -33 -12t-34 10q-37 17 -71 38t-68 44q-17 11 -33 23.5t-32 23.5q-11 8 -23 18t-28 8q-14 -1 -22 -6t-18 -13q-11 -8 -23.5 -18t-21.5 -18q-26 -22 -56.5 -44.5t-59.5 -37.5
q-11 -6 -25 -12t-28 -9.5t-28.5 -3t-26.5 6.5q-16 8 -23 24t-2 33t22.5 30t29.5 23q38 29 82 60.5t83 59.5q17 13 34 22.5t34 23.5q6 5 14 11.5t17 12t18 8.5t18 1q14 -4 24 -14t21 -18zM279 647h21t20 -2q14 -5 27.5 -12t22.5 -19q10 -13 14.5 -32.5t4.5 -34.5
q0 -44 1.5 -87t-0.5 -86q-1 -13 -1 -28.5t-0.5 -31.5t-3.5 -30.5t-9 -26.5q-8 -14 -20.5 -22t-26.5 -10t-27.5 3t-21.5 19q-9 15 -13 32.5t-4.5 36.5t0 38t0.5 36v52t-3 52q-1 12 -6 17.5t-12 8t-16 2.5h-19h-85h-23.5t-13.5 0.5t-14.5 2t-26.5 3.5q-13 2 -20 11t-9.5 21
t-2 25t2.5 22q4 19 21 31q11 7 24 7.5t25 1.5h194z" />
    <glyph glyph-name="uniAC30" unicode="&#xac30;" horiz-adv-x="805" 
d="M224 -55q-11 -15 -22.5 -28.5t-25 -22.5t-28.5 -11.5t-32 3.5q-21 7 -24.5 21t2.5 30t17 31t18 26q18 29 35 58.5t37 57.5q8 11 17.5 24t20.5 23.5t24 18t28 8.5t27 -6t21.5 -17.5t18 -23t15.5 -22.5q36 -56 69 -111q17 26 32.5 53t33.5 53q16 23 37.5 47.5t52.5 26.5
q15 1 27 -6t21.5 -17.5t18 -23t15.5 -22.5q24 -35 45.5 -71.5t44.5 -72.5q6 -9 11.5 -17t9 -16t3.5 -16.5t-7 -18.5q-11 -17 -28 -20.5t-34 7.5q-34 20 -59 52t-48 62q-15 19 -24.5 18t-22.5 -20q-9 -12 -19 -24t-21 -29q-11 -15 -22.5 -29.5t-25 -24t-28.5 -12.5t-32 3
q-16 6 -22 15q-27 20 -48 48.5t-42 54.5q-15 19 -24 18t-23 -20q-9 -12 -19 -26t-21 -31zM589 287q-1 -11 -3 -22.5t-8 -22.5q-7 -13 -17 -19q-7 -5 -12 -8t-14 -3q-14 0 -28 8q-10 6 -16 15t-9 17.5t-4 14.5t-1 7v329q-1 5 0.5 22.5t7.5 29.5q10 21 41 24q17 2 28 -2
t19 -13q7 -8 9 -15.5t4 -15.5q3 -10 3.5 -21t0.5 -22l-0.5 -10t-0.5 -23.5v-26.5v-20q5 -1 18 -1.5t27 -1.5l1 86q-1 11 -0.5 21.5t3.5 21.5q4 15 18 30q16 20 47 16q26 -4 36 -26q6 -12 7.5 -29t0.5 -21v-335q0 -1 -0.5 -7t-3.5 -14.5t-8.5 -17.5t-15.5 -15q-11 -7 -23 -7
q-20 0 -33 10q-11 8 -17 20q-5 9 -7.5 21.5t-3.5 26t-1 26.5v22v62h-45v-111v0zM279 647h21t20 -2q14 -5 27.5 -12t22.5 -19q10 -13 14.5 -32.5t4.5 -34.5q0 -44 1.5 -87t-0.5 -86q-1 -13 -1 -28.5t-0.5 -31.5t-3.5 -30.5t-9 -26.5q-8 -14 -20.5 -22t-26.5 -10t-27.5 3
t-21.5 19q-9 15 -13 32.5t-4.5 36.5t0 38t0.5 36v52t-3 52q-1 12 -6 17.5t-12 8t-16 2.5h-19h-85h-23.5t-13.5 0.5t-14.5 2t-26.5 3.5q-13 2 -20 11t-9.5 21t-2 25t2.5 22q4 19 21 31q11 7 24 7.5t25 1.5h194z" />
    <glyph glyph-name="uniAC31" unicode="&#xac31;" horiz-adv-x="803" 
d="M97 34q0 45 26.5 75t71.5 47.5t106 24.5t130 7t130 -5t106 -21.5t71.5 -46.5t26.5 -81q0 -50 -26.5 -80t-71.5 -46.5t-106 -22t-130 -5.5t-130 5.5t-106 22t-71.5 46.5t-26.5 80zM589 287q-1 -11 -3 -22.5t-8 -22.5q-7 -13 -17 -19q-7 -5 -12 -8t-14 -3q-14 0 -28 8
q-10 6 -16 15t-9 17.5t-4 14.5t-1 7v329q-1 5 0.5 22.5t7.5 29.5q10 21 41 24q17 2 28 -2t19 -13q7 -8 9 -15.5t4 -15.5q3 -10 3.5 -21t0.5 -22l-0.5 -10t-0.5 -23.5v-26.5v-20q5 -1 18 -1.5t27 -1.5l1 86q-1 11 -0.5 21.5t3.5 21.5q4 15 18 30q16 20 47 16q26 -4 36 -26
q6 -12 7.5 -29t0.5 -21v-335q0 -1 -0.5 -7t-3.5 -14.5t-8.5 -17.5t-15.5 -15q-11 -7 -23 -7q-20 0 -33 10q-11 8 -17 20q-5 9 -7.5 21.5t-3.5 26t-1 26.5v22v62h-45v-111v0zM279 647h21t20 -2q14 -5 27.5 -12t22.5 -19q10 -13 14.5 -32.5t4.5 -34.5q0 -44 1.5 -87t-0.5 -86
q-1 -13 -1 -28.5t-0.5 -31.5t-3.5 -30.5t-9 -26.5q-8 -14 -20.5 -22t-26.5 -10t-27.5 3t-21.5 19q-9 15 -13 32.5t-4.5 36.5t0 38t0.5 36v52t-3 52q-1 12 -6 17.5t-12 8t-16 2.5h-19h-85h-23.5t-13.5 0.5t-14.5 2t-26.5 3.5q-13 2 -20 11t-9.5 21t-2 25t2.5 22q4 19 21 31
q11 7 24 7.5t25 1.5h194zM630 34q0 17 -18 27t-46.5 15t-64 6.5t-70.5 1.5t-69.5 -1.5t-62 -6.5t-44.5 -15t-17 -27q0 -15 17 -25t44.5 -15t62 -7t69.5 -2h70.5t64 4t46.5 14.5t18 30.5z" />
    <glyph glyph-name="uniAC38" unicode="&#xac38;" horiz-adv-x="830" 
d="M742 225q5 -1 16 -2t17 -2q11 -2 22 -7.5t16 -16.5q7 -11 7 -26q0 -8 -0.5 -13.5t-2.5 -13.5t-4.5 -17t-9.5 -14q-14 -10 -27 -13q-14 -2 -30.5 -2t-31.5 1q0 -19 -0.5 -36t-0.5 -31v-30v-28.5t-2.5 -30.5t-7 -28.5t-13.5 -22.5q-12 -14 -32 -14l-2 1q-24 1 -38.5 14
t-22 32t-9.5 39.5t-2 36.5v594v9.5t2 20t6.5 24t12.5 20.5q7 7 20.5 10.5t24.5 3.5q22 0 37 -15q14 -14 17 -29.5t5 -32.5q4 -17 4 -41t1 -42v-35q11 0 19 -0.5t9 -0.5q5 -1 16 -2t17 -2q11 -2 22 -7.5t16 -16.5q7 -11 7 -26q0 -8 -0.5 -15.5t-2.5 -15.5t-4.5 -15t-9.5 -12
q-14 -10 -27 -13q-14 -2 -30.5 -2t-31.5 1v-135q11 0 19 -0.5t9 -0.5zM291 55q-1 12 -1 24v24v318v32t-2 33q-1 5 -2.5 14t-6.5 11q-5 3 -11.5 2.5t-12.5 0.5q-7 1 -13.5 0t-13.5 0h-47q-17 -1 -34 0t-34 0q-8 -1 -14.5 -0.5t-14.5 0.5q-11 0 -23 1t-22 8q-14 10 -19 25
t-5 31q-1 19 8 38q5 12 13 17q5 5 14.5 8.5t16.5 5.5q21 5 44 5.5t45 0.5h174q13 -2 27.5 -3.5t26.5 -6.5q8 -3 15.5 -8t12.5 -12q9 -14 10.5 -28t3.5 -31q2 -28 2 -55.5v-55.5v-328q0 -1 0.5 -15.5t0.5 -34v-41t-1 -37.5q-1 -10 -3 -21t-6.5 -21t-12.5 -18t-21 -13
q-17 -7 -34 -7q-13 0 -26 5.5t-18 16.5q-16 32 -16 71v44v0z" />
    <glyph glyph-name="uniAC39" unicode="&#xac39;" horiz-adv-x="863" 
d="M654 159q42 0 61.5 -18t19.5 -41v-57v-11.5v-17.5t0.5 -17t0.5 -11v-22t-1 -22q-2 -21 -16.5 -34t-37.5 -13q-5 0 -17.5 0.5t-17.5 2.5q-14 4 -21.5 12t-11.5 18t-5 21.5t-2 22.5v14t-0.5 20.5t-1.5 20t-2 13.5q-3 1 -16 2t-51 1q-32 0 -39.5 -0.5t-8.5 -0.5h-361
q-1 0 -7.5 2t-14.5 6.5t-15 11.5t-8 17q-6 39 12 60q12 14 26 16.5t15 3.5h520v0zM345 670h17.5t16.5 -2q14 -5 27.5 -12t22.5 -19q9 -13 14 -32.5t5 -35.5q0 -43 1 -86t-1 -86v-29.5t-0.5 -31t-3.5 -30t-9 -26.5q-8 -14 -21 -22t-27.5 -10t-28.5 3t-22 19q-9 15 -13 32.5
t-5 36.5t0 38t1 36q0 25 -0.5 52t-2.5 52q-1 12 -6 17.5t-12 7.5t-16 2t-19 1h-14h-7t-7 -0.5t-14 -0.5h-43q-32 0 -67 1t-72 6q-14 2 -20.5 11t-9 21t-2 25t2.5 22q4 19 21 30q11 8 23.5 8.5t25.5 1.5q14 2 28 1t28 -1h209v0zM734 585q4 0 15 -0.5t23 -1t23 -1.5t16 -2
q20 -4 28 -11.5t10 -18.5q3 -11 3 -25.5t-6 -24.5q-12 -20 -36 -22.5t-53 -3.5h-23v-61h75q20 -4 28 -11.5t10 -18.5q3 -11 4 -25.5t-5 -24.5q-12 -20 -36.5 -23t-53.5 -4h-22v-13q-1 -11 -3 -22.5t-8 -22.5q-6 -12 -17 -20q-14 -10 -33 -10q-17 0 -28 7q-10 6 -16 15
t-9.5 17.5t-4.5 15l-1 6.5v330q-1 4 1 22t8 30q10 21 40 24q37 5 55 -15q6 -8 8.5 -13t4.5 -13q3 -10 3.5 -15.5t-0.5 -18.5v-25z" />
    <glyph glyph-name="uniAC3C" unicode="&#xac3c;" horiz-adv-x="867" 
d="M233 -113q-41 0 -66 17.5t-25 40.5v144q-2 22 0 45q2 21 16.5 34t37.5 13q5 0 18 -0.5t18 -2.5q13 -4 20.5 -12t11.5 -18.5t5 -22t2 -22.5q0 -4 0.5 -18.5t1 -31t1 -30.5t1.5 -17q3 -1 16.5 -2.5t50.5 -1.5q32 0 39.5 1t8.5 1h327l6.5 -2t14.5 -6.5t15 -12t9 -17.5
q5 -38 -13 -59q-12 -14 -26 -17t-15 -3h-475v0zM355 670h17.5t16.5 -2q14 -5 27.5 -12t22.5 -19q9 -13 14 -32.5t5 -35.5q0 -43 1 -86t-1 -86v-29.5t-0.5 -31t-3.5 -30t-9 -26.5q-8 -14 -21 -22t-27.5 -10t-28.5 3t-22 19q-9 15 -13 32.5t-5 36.5t0 38t1 36q0 25 -0.5 52
t-2.5 52q-1 12 -6 17.5t-12 7.5t-16 2t-19 1h-14h-7t-7 -0.5t-14 -0.5h-43q-32 0 -67 1t-72 6q-14 2 -20.5 11t-9 21t-2 25t2.5 22q4 19 21 30q11 8 23.5 8.5t25.5 1.5q14 2 28 1t28 -1h209v0zM734 575q4 0 15 -0.5t23 -1t23 -1.5t16 -2q20 -4 28 -11.5t10 -18.5
q3 -11 3 -25.5t-6 -24.5q-12 -20 -36 -22.5t-53 -3.5h-23v-61h75q20 -4 28 -11.5t10 -18.5q3 -11 4 -25.5t-5 -24.5q-12 -20 -36.5 -23t-53.5 -4h-22v-63q-1 -11 -3 -22.5t-8 -22.5q-6 -12 -17 -20q-14 -10 -33 -10q-17 0 -28 7q-10 6 -16 15t-9.5 17.5t-4.5 15l-1 6.5v390
q-1 4 1 22t8 30q10 21 40 24q37 5 55 -15q6 -8 8.5 -13t4.5 -13q3 -10 3.5 -15.5t-0.5 -18.5v-35z" />
    <glyph glyph-name="uniAC40" unicode="&#xac40;" horiz-adv-x="848" 
d="M511 7q-61 0 -122 -1t-124 1h-43q-14 0 -21 -6t-7.5 -13t5.5 -13t18 -6q20 0 41 -2t41 -2h352q14 0 27.5 1.5t26.5 -3.5q10 -4 16 -14t8 -22t-1 -23.5t-10 -19.5q-13 -13 -31.5 -13h-35.5h-442h-41.5t-41.5 2q-11 0 -20 4.5t-16 10.5q-13 13 -16 37q-2 26 -4 53.5t1 53.5
q0 8 3 14t8 13q13 13 35 16q13 4 24 4.5t22 0.5h402q7 0 16 -1t16.5 -0.5t13.5 4.5t7 13q1 12 -4.5 17.5t-14.5 7t-19.5 1t-18.5 -0.5h-419q-12 0 -27 1t-25 8q-9 6 -14 14t-5 25q1 19 13 28t28 12t33.5 2.5t30.5 -0.5q64 -2 128 -2h128h194q25 0 44 -3.5t33 -11.5
q27 -14 27 -52v-77q0 -17 -7 -28.5t-18.5 -18t-25.5 -9t-28 -2.5h-140zM121 542h-28.5t-30 3t-26 10.5t-17.5 22.5q-6 16 -4 36t13 33q11 11 27.5 14.5t30.5 3.5h269q9 0 18 1t17 -1q14 -5 27.5 -12.5t22.5 -18.5q5 -8 8.5 -16t6.5 -17q2 -10 3 -19t1 -17v-42t2 -39
q0 -22 1 -44.5t1 -45.5q-2 -28 -2 -55.5t-14 -52.5q-13 -20 -34 -28.5t-43 -0.5q-13 4 -20.5 14.5t-12 23t-6 25.5t-1.5 24q-2 43 -0.5 85t-1.5 84q-2 6 -3 10.5t-3 6.5q-4 3 -7 4.5t-6 3.5q-4 2 -17 2h-60h-55.5t-55.5 2zM722 486v-56h75q15 0 24.5 -7.5t14 -18.5t3 -23.5
t-8.5 -23.5q-7 -12 -17 -17t-21.5 -7t-24 -1.5t-24.5 0.5h-21v-13q-2 -6 -2 -11t-2 -12q0 -6 -3 -11t-6 -12q-3 -6 -6.5 -10.5t-9.5 -7.5q-7 -7 -15.5 -9t-18.5 -2q-26 0 -38 13t-16.5 32t-4 41t0.5 39v261q2 9 3.5 17t4.5 14q7 10 16.5 15.5t25.5 7.5q35 6 54 -15l4.5 -7.5
t3.5 -4.5q8 -16 8.5 -33t0.5 -34q2 0 5 -1t9 -1q9 0 21.5 0.5t25 -0.5t24 -4t19.5 -10q5 -5 6.5 -9.5t3.5 -9.5q2 -6 2 -10.5v-10.5q0 -16 -6 -25q-5 -11 -14 -16t-21 -7q-13 -2 -25.5 -1t-26.5 1h-23z" />
    <glyph glyph-name="uniAC4B" unicode="&#xac4b;" horiz-adv-x="859" 
d="M613 99q37 -26 73 -52t71 -54q12 -10 28 -20.5t19 -27.5q3 -14 -3.5 -29t-17.5 -24q-17 -14 -33 -12t-34 10q-37 17 -71 38t-68 44q-17 11 -33 23.5t-32 23.5q-11 8 -23 18t-28 8q-14 -1 -22 -6t-18 -13q-11 -8 -23.5 -18t-21.5 -18q-26 -22 -56.5 -44.5t-59.5 -37.5
q-11 -6 -25 -12t-28 -9.5t-28.5 -3t-26.5 6.5q-16 8 -23 24t-2 33t22.5 30t29.5 23q38 29 82 60.5t83 59.5q17 13 34 22.5t34 23.5q6 5 14 11.5t17 12t18 8.5t18 1q14 -4 24 -14t21 -18zM345 670h17.5t16.5 -2q14 -5 27.5 -12t22.5 -19q9 -13 14 -32.5t5 -35.5q0 -43 1 -86
t-1 -86v-29.5t-0.5 -31t-3.5 -30t-9 -26.5q-8 -14 -21 -22t-27.5 -10t-28.5 3t-22 19q-9 15 -13 32.5t-5 36.5t0 38t1 36q0 25 -0.5 52t-2.5 52q-1 12 -6 17.5t-12 7.5t-16 2t-19 1h-14h-7t-7 -0.5t-14 -0.5h-43q-32 0 -67 1t-72 6q-14 2 -20.5 11t-9 21t-2 25t2.5 22
q4 19 21 30q11 8 23.5 8.5t25.5 1.5q14 2 28 1t28 -1h209v0zM734 585q4 0 15 -0.5t23 -1t23 -1.5t16 -2q20 -4 28 -11.5t10 -18.5q3 -11 3 -25.5t-6 -24.5q-12 -20 -36 -22.5t-53 -3.5h-23v-61h75q20 -4 28 -11.5t10 -18.5q3 -11 4 -25.5t-5 -24.5q-12 -20 -36.5 -23
t-53.5 -4h-22v-43q-1 -11 -3 -22.5t-8 -22.5q-6 -12 -17 -20q-14 -10 -33 -10q-17 0 -28 7q-10 6 -16 15t-9.5 17.5t-4.5 15l-1 6.5v360q-1 4 1 22t8 30q10 21 40 24q37 5 55 -15q6 -8 8.5 -13t4.5 -13q3 -10 3.5 -15.5t-0.5 -18.5v-25z" />
    <glyph glyph-name="uniAC4D" unicode="&#xac4d;" horiz-adv-x="867" 
d="M94 34q0 45 26.5 75t71.5 47.5t106 24.5t130 7t130 -5t106 -21.5t71.5 -46.5t26.5 -81q0 -50 -26.5 -80t-71.5 -46.5t-106 -22t-130 -5.5t-130 5.5t-106 22t-71.5 46.5t-26.5 80zM345 670h17.5t16.5 -2q14 -5 27.5 -12t22.5 -19q9 -13 14 -32.5t5 -35.5q0 -43 1 -86
t-1 -86v-29.5t-0.5 -31t-3.5 -30t-9 -26.5q-8 -14 -21 -22t-27.5 -10t-28.5 3t-22 19q-9 15 -13 32.5t-5 36.5t0 38t1 36q0 25 -0.5 52t-2.5 52q-1 12 -6 17.5t-12 7.5t-16 2t-19 1h-14h-7t-7 -0.5t-14 -0.5h-43q-32 0 -67 1t-72 6q-14 2 -20.5 11t-9 21t-2 25t2.5 22
q4 19 21 30q11 8 23.5 8.5t25.5 1.5q14 2 28 1t28 -1h209v0zM734 585q4 0 15 -0.5t23 -1t23 -1.5t16 -2q20 -4 28 -11.5t10 -18.5q3 -11 3 -25.5t-6 -24.5q-12 -20 -36 -22.5t-53 -3.5h-23v-61h75q20 -4 28 -11.5t10 -18.5q3 -11 4 -25.5t-5 -24.5q-12 -20 -36.5 -23
t-53.5 -4h-22v-13q-1 -11 -3 -22.5t-8 -22.5q-6 -12 -17 -20q-14 -10 -33 -10q-17 0 -28 7q-10 6 -16 15t-9.5 17.5t-4.5 15l-1 6.5v330q-1 4 1 22t8 30q10 21 40 24q37 5 55 -15q6 -8 8.5 -13t4.5 -13q3 -10 3.5 -15.5t-0.5 -18.5v-25zM627 34q0 17 -18 27t-46.5 15
t-64 6.5t-70.5 1.5t-69.5 -1.5t-62 -6.5t-44.5 -15t-17 -27q0 -15 17 -25t44.5 -15t62 -7t69.5 -2h70.5t64 4t46.5 14.5t18 30.5z" />
    <glyph glyph-name="uniAC54" unicode="&#xac54;" horiz-adv-x="830" 
d="M609 499h65v80q0 14 -0.5 31t3.5 32.5t14.5 26.5t31.5 13q21 3 35 -13q12 -12 17.5 -29.5t8 -37t2 -39.5t-0.5 -37v-522q1 -26 -3 -54.5t-26 -42.5q-16 -11 -30 -11q-17 0 -27.5 12t-16 29t-7 35.5t-1.5 32.5v123h-65v-129q2 -22 -1.5 -47t-13.5 -39q-12 -17 -35 -17
q-11 0 -20.5 5t-17.5 13q-17 17 -20 41t-3 47v571q0 4 -0.5 7.5t-0.5 7.5q0 14 1 29t6.5 28t15 23t25.5 14q22 6 38 -10q22 -23 24 -57.5t2 -78.5v-37zM609 243h65v135h-65v-135zM260 20v28v31t-0.5 43t-0.5 65v97v138v32.5t-2 32.5q-3 18 -9 23t-24 5q-44 1 -78 0.5
t-73 -0.5q-35 0 -52 18t-17 47t13.5 44.5t39.5 20.5q20 5 38 6t40 1h143q5 0 10.5 -0.5t10.5 -0.5q13 -1 27.5 -3t26.5 -7q8 -3 15.5 -8t12.5 -12q10 -14 11 -26t3 -29q2 -27 2 -55v-56v-320q0 -1 0.5 -15t0.5 -34v-41.5t-1 -37.5q-3 -36 -22.5 -58t-54.5 -22q-18 0 -30 9
t-18.5 23t-9 30.5t-2.5 30.5z" />
    <glyph glyph-name="uniAC58" unicode="&#xac58;" horiz-adv-x="796" 
d="M635 596q-1 11 -0.5 21t3.5 21q2 8 6.5 14t11.5 14q16 20 47 16q26 -4 36 -26q6 -12 7.5 -29t0.5 -21v-375q0 -1 -0.5 -7t-3.5 -14.5t-8.5 -17.5t-15.5 -15q-11 -7 -23 -7q-20 0 -33 10q-11 8 -17 20q-9 17 -12 36t-2 39h-43v-28q-1 -11 -3 -22.5t-8 -22.5
q-7 -13 -17 -19q-7 -5 -12 -8t-14 -3q-14 0 -28 8q-10 6 -16 15t-9 17t-4 14.5l-1 6.5v370q-1 5 0.5 22.5t7.5 29.5q10 21 41 24q17 2 28 -2t19 -13q7 -8 9 -15.5t4 -15.5q3 -10 3 -21v-22v-28h46v34v0zM770 -37q5 -38 -13 -59q-12 -14 -26 -17t-15 -3h-500q-41 0 -71 12.5
t-30 35.5v152q-2 22 0 45q2 21 16.5 34t37.5 13q5 0 18 -1t18 -3q13 -4 20.5 -11.5t11.5 -18t5 -22t2 -22.5q0 -5 0.5 -19t1 -29.5t1 -29.5t1.5 -17q3 -1 16.5 -2.5t50.5 -1.5q32 0 39.5 1t8.5 1h362l6.5 -2t14.5 -6.5t15 -12t9 -17.5zM279 647h21t20 -2q14 -5 27.5 -12
t22.5 -19q10 -13 14.5 -32.5t4.5 -34.5q0 -44 1.5 -87t-0.5 -86q-1 -13 -1 -28.5t-0.5 -31.5t-3.5 -30.5t-9 -26.5q-8 -14 -20.5 -22t-26.5 -10t-27.5 3t-21.5 19q-9 15 -13 32.5t-4.5 36.5t0 38t0.5 36v52t-3 52q-1 12 -6 17.5t-12 8t-16 2.5h-19h-85h-23.5t-13.5 0.5
t-14.5 2t-26.5 3.5q-13 2 -20 11t-9.5 21t-2 25t2.5 22q4 19 21 31q11 7 24 7.5t25 1.5h194zM635 467h-46v-97h46v97z" />
    <glyph glyph-name="uniAC5C" unicode="&#xac5c;" horiz-adv-x="811" 
d="M704 -36q16 -1 28 -7.5t17 -22.5q11 -37 -26 -50q-12 -5 -24.5 -6t-22.5 -1h-465h-42t-44 1q-27 1 -37.5 17t-12.5 39l-4 66q-1 11 0.5 26.5t10.5 26.5q14 14 32 18t40 4h31q5 0 8 -0.5t6 -0.5h436v35h-446q-5 0 -10.5 0.5t-11.5 -0.5h-24h-18t-16 2q-9 2 -16.5 4
t-12.5 10q-6 11 -8 21t2 22q3 8 9 12.5t14 7.5t15.5 4.5t13.5 2.5q8 1 15.5 1.5t15.5 0.5h17q5 -1 9.5 -1h9.5h452q51 0 78 -15.5t27 -50.5v-70q0 -14 -6.5 -27t-22.5 -23q-13 -8 -26 -8.5t-26 -0.5h-475v-37h510v0zM644 596q-1 11 -0.5 21t3.5 21q2 8 6.5 14t11.5 14
q16 20 47 16q26 -4 36 -26q6 -12 7.5 -29t0.5 -21v-325q0 -1 -0.5 -7t-3.5 -14.5t-8.5 -17.5t-15.5 -15q-11 -7 -23 -7q-20 0 -33 10q-11 8 -17 20q-9 17 -12 36t-2 39h-43v-28q-1 -11 -3 -22.5t-8 -22.5q-7 -13 -17 -19q-7 -5 -12 -8t-14 -3q-14 0 -28 8q-10 6 -16 15
t-9 17t-4 14.5l-1 6.5v320q-1 5 0.5 22.5t7.5 29.5q10 21 41 24q17 2 28 -2t19 -13q7 -8 9 -15.5t4 -15.5q3 -10 3 -21v-22v-8h46v14v0zM288 667h21t20 -2q14 -5 27.5 -12t22.5 -19q10 -13 14.5 -32.5t4.5 -34.5q0 -44 1.5 -87t-0.5 -86q-1 -13 -1 -28.5t-0.5 -31.5
t-3.5 -30.5t-9 -26.5q-8 -14 -20.5 -22t-26.5 -10t-27.5 3t-21.5 19q-9 15 -13 32.5t-4.5 36.5t0 38t0.5 36v52t-3 52q-1 12 -6 17.5t-12 8t-16 2.5h-19h-85h-23.5t-13.5 0.5t-14.5 2t-26.5 3.5q-13 2 -20 11t-9.5 21t-2 25t2.5 22q4 19 21 31q11 7 24 7.5t25 1.5h194z
M644 487h-46v-67h46v67z" />
    <glyph glyph-name="uniAC70" unicode="&#xac70;" horiz-adv-x="830" 
d="M636 242q-5 0 -22 1t-25 1q-10 0 -18.5 0.5t-16.5 2.5q-8 0 -15.5 2t-15.5 5q-13 7 -21 17q-5 7 -8.5 13t-3.5 14q-2 12 1.5 28t10.5 24q3 5 5.5 8t6.5 7q6 5 13 7.5t13 4.5q11 2 20.5 2h18.5h59v72q0 12 -1 22t-1 21v47.5t2 47.5q0 15 2.5 31t7.5 30q4 12 14 23
q13 12 30 12h2q21 0 34 -7.5t21.5 -20t12 -28.5t4.5 -32q3 -26 3 -54v-55v-439q0 -34 1 -69.5t-10 -67.5q-5 -13 -13 -21q-3 -2 -9 -5t-12 -5t-11.5 -3t-10.5 -1q-23 0 -36.5 13.5t-20.5 33t-9 40.5t-2 37v36v40.5t0.5 46t0.5 46t-1 41.5v31zM291 55v-44q0 -39 16 -71
q5 -11 18 -16.5t26 -5.5q17 0 34 7q13 5 21 13t12.5 18t6.5 21t3 21q1 16 1 37.5v41t-0.5 34t-0.5 15.5v328v55.5t-2 55.5q-2 17 -3.5 31t-10.5 28q-5 7 -12.5 12t-15.5 8q-12 5 -26.5 6.5t-27.5 3.5h-174q-22 0 -45 -0.5t-44 -5.5q-7 -2 -16.5 -5.5t-14.5 -8.5
q-8 -5 -13 -17q-9 -19 -8 -38q0 -16 5 -31t19 -25q10 -7 22 -8t23 -1q8 0 14.5 -0.5t14.5 0.5q17 1 34 0t34 0h47q7 -1 13.5 0t13.5 0q6 -1 12.5 -0.5t11.5 -2.5q5 -2 6.5 -11t2.5 -14q2 -17 2 -33v-32v-318v-24t1 -24z" />
    <glyph glyph-name="uniAC71" unicode="&#xac71;" horiz-adv-x="799" 
d="M653 151q30 1 47.5 -5t27.5 -16t13 -22t3 -24v-116q2 -22 0 -44q-2 -21 -16.5 -34t-37.5 -13q-5 0 -18 0.5t-18 2.5q-13 4 -20.5 12t-11.5 18t-5 21.5t-2 22.5q0 4 -0.5 15.5t-1 24t-1 23.5t-1.5 15q-3 1 -16.5 2t-50.5 1q-32 0 -39.5 -0.5t-8.5 -1.5h-361l-1 1l-6.5 2
t-14.5 6t-15.5 11t-8.5 18q-5 38 13 60q12 14 26 16.5t15 2.5l510 1v0zM339 675q9 0 23 -0.5t22 -2.5q14 -5 27.5 -12t22.5 -19q10 -12 14.5 -31.5t4.5 -35.5q0 -44 1.5 -96.5t-0.5 -96.5q-1 -13 -0.5 -28.5t-0.5 -31.5t-3.5 -30.5t-9.5 -26.5q-8 -14 -21 -22t-27.5 -10
t-28 3t-21.5 19q-13 20 -15.5 45.5t-2.5 51.5v106q0 35 -3 65q-1 12 -6 17.5t-12 7.5t-16 2h-18h-23h-26.5h-25.5h-21q-33 0 -62.5 1t-65.5 6q-14 1 -20.5 10t-9 21t-2 25t2.5 22q2 11 7 18t13 13q11 8 24 8t25 2q5 0 24 0.5t45 0.5h56.5h57t46 -0.5t25.5 -0.5zM599 402
q-29 2 -52 3.5t-36 21.5q-6 10 -6 25t2 26q3 11 11 18.5t28 12.5q4 1 15 1.5t23.5 1.5t23.5 1.5t15 0.5v86q-1 11 -0.5 22t3.5 22q2 8 4 15t9 15q8 10 22.5 14t31.5 2q32 -5 41 -25q6 -12 7.5 -29.5t1.5 -21.5v-326h-1q0 -1 -1 -7t-4 -14.5t-9 -17.5t-16 -15q-14 -8 -28 -8
q-17 0 -33 11q-12 8 -17 20q-6 11 -8 22t-3 22v101h-24z" />
    <glyph glyph-name="uniAC74" unicode="&#xac74;" horiz-adv-x="807" 
d="M734 4l6.5 -2t14.5 -6.5t15 -12t9 -17.5q5 -38 -13 -59q-12 -14 -26 -17t-15 -3h-521q-41 0 -64 12.5t-23 35.5v139q0 6 -0.5 15t-0.5 19.5t0.5 19.5t0.5 15q2 21 20 34t41 13q5 0 12.5 -0.5t12.5 -2.5q13 -4 21 -13.5t12 -21.5t5 -25.5t2 -24.5v-18.5v-31v-30v-16.5
q3 -1 16.5 -2.5t50.5 -1.5q32 0 57 1t26 1h341v0zM349 682q9 0 23 -0.5t22 -2.5q14 -5 27.5 -12t22.5 -19q10 -12 14.5 -31.5t4.5 -35.5q0 -44 1.5 -91.5t-0.5 -91.5q-1 -13 -0.5 -28.5t-0.5 -31.5t-3.5 -30.5t-9.5 -26.5q-8 -14 -21 -22t-27.5 -10t-28 3t-21.5 19
q-13 20 -15.5 45.5t-2.5 51.5v96q0 35 -3 65q-1 12 -6 17.5t-12 7.5t-16 2h-18h-23h-26.5h-25.5h-21q-33 0 -62.5 1t-65.5 6q-14 1 -20.5 10t-9 21t-2 25t2.5 22q2 11 7 18t13 13q11 8 24 8t25 2q5 0 24 0.5t45 0.5h56.5h57t46 -0.5t25.5 -0.5zM609 402q-29 2 -52 3.5
t-36 21.5q-6 10 -6 25t2 26q3 11 11 18.5t28 12.5q4 1 15 1.5t23.5 1.5t23.5 1.5t15 0.5v86q-1 11 -0.5 22t3.5 22q2 8 4 15t9 15q8 10 22.5 14t31.5 2q32 -5 41 -25q6 -12 7.5 -29.5t1.5 -21.5v-376h-1q0 -1 -1 -7t-4 -14.5t-9 -17.5t-16 -15q-14 -8 -28 -8q-17 0 -33 11
q-12 8 -17 20q-6 11 -8 22t-3 22v151h-24z" />
    <glyph glyph-name="uniAC77" unicode="&#xac77;" horiz-adv-x="796" 
d="M76 67q-2 21 -0.5 45t14.5 44q7 10 19 15t25 6.5t23 1t13 -0.5h458q21 0 40 -1.5t39 -9.5q17 -7 26.5 -18t8.5 -29q-2 -17 -12.5 -29t-27.5 -17q-16 -4 -57 -4q-13 0 -21.5 0.5t-9.5 0.5h-346q-6 0 -16 1t-20 1t-18.5 -2t-11.5 -9q-2 -3 -4 -12t-2.5 -19t0.5 -18.5
t4 -10.5q4 -2 16 -4t17 -2q11 -1 21.5 -0.5t21.5 0.5h190q19 -2 35 0h145q25 0 45 -0.5t37 -8.5q11 -5 18 -10t9 -17q6 -25 -9 -45q-16 -20 -34.5 -23t-40.5 -4q-5 0 -17.5 -0.5t-29 -0.5h-36.5h-39q-46 0 -101 -1h-304q-8 1 -16 3q-7 2 -14 3t-12 3q-16 5 -20.5 23.5
t-5.5 32.5q-2 22 -0.5 47t0.5 47v22zM340 682q9 0 23 -0.5t22 -2.5q14 -5 27.5 -12t22.5 -19q10 -12 14.5 -31.5t4.5 -35.5q0 -44 1.5 -86.5t-0.5 -86.5q-1 -13 -0.5 -28.5t-0.5 -31.5t-3.5 -30.5t-9.5 -26.5q-8 -14 -21 -22t-27.5 -10t-28 3t-21.5 19q-13 20 -15.5 45.5
t-2.5 51.5v86q0 35 -3 65q-1 12 -6 17.5t-12 7.5t-16 2h-18h-23h-26.5h-25.5h-21q-33 0 -62.5 1t-65.5 6q-14 1 -20.5 10t-9 21t-2 25t2.5 22q2 11 7 18t13 13q11 8 24 8t25 2q5 0 24 0.5t45 0.5h56.5h57t46 -0.5t25.5 -0.5zM600 402q-29 2 -52 3.5t-36 21.5q-6 10 -6 25
t2 26q3 11 11 18.5t28 12.5q4 1 15 1.5t23.5 1.5t23.5 1.5t15 0.5v86q-1 11 -0.5 22t3.5 22q2 8 4 15t9 15q8 10 22.5 14t31.5 2q32 -5 41 -25q6 -12 7.5 -29.5t1.5 -21.5v-326h-1q0 -1 -1 -7t-4 -14.5t-9 -17.5t-16 -15q-14 -8 -28 -8q-17 0 -33 11q-12 8 -17 20
q-6 11 -8 22t-3 22v101h-24z" />
    <glyph glyph-name="uniAC78" unicode="&#xac78;" horiz-adv-x="813" 
d="M724 -36q16 -1 28 -7.5t17 -22.5q11 -37 -26 -50q-12 -5 -24.5 -6t-22.5 -1h-452h-42t-44 1q-27 1 -37.5 17t-12.5 39l-4 70q-1 11 0.5 26.5t10.5 26.5q14 14 32 18t40 4h31q5 0 8 -0.5t6 -0.5h423v41h-433q-5 0 -10.5 0.5t-11.5 -0.5h-24h-18t-16 2q-9 2 -16.5 4
t-12.5 10q-6 11 -8 21t2 22q3 8 9 12.5t14 7.5t15.5 4.5t13.5 2.5q8 1 15.5 1.5t15.5 0.5h17q5 -1 9.5 -1h9.5h439q51 0 78 -15.5t27 -50.5v-76q0 -14 -6.5 -27t-22.5 -23q-13 -8 -26 -8.5t-26 -0.5h-462v-41h497v0zM360 667h17.5t16.5 -2q14 -5 27.5 -12t22.5 -19
q10 -13 14.5 -32.5t4.5 -34.5q0 -44 1.5 -87t-0.5 -86q-1 -13 -1 -28.5t-0.5 -31.5t-3.5 -30.5t-9 -26.5q-8 -14 -21 -22t-27.5 -10t-28.5 3t-22 19q-9 15 -13 32.5t-4.5 36.5t0 38t0.5 36v52t-3 52q-1 12 -6 17.5t-12 8t-16 2.5h-19h-13.5h-7.5h-7h-14h-43q-32 0 -67 0.5
t-72 5.5q-13 2 -20 11t-9.5 21t-2 25t2.5 22q4 19 21 31q11 7 24 7.5t25 1.5q14 2 28 1t28 -1h209v0zM760 316q0 -11 -2.5 -22.5t-8.5 -22.5q-7 -13 -17 -19q-14 -11 -33 -11q-15 0 -28 8q-14 8 -22 25t-8 31v108q-17 0 -34.5 1.5t-28.5 3.5q-29 4 -47.5 17.5t-13.5 46.5
q4 22 13.5 33.5t31.5 12.5q7 0 13.5 0.5t14.5 0.5q12 0 25 0.5t26 0.5v75q0 2 -0.5 10t-0.5 17.5t1.5 19t4.5 15.5q5 9 15 15.5t24 8.5q17 2 31.5 -2t22.5 -13q14 -15 18 -31q3 -10 3.5 -29t-0.5 -30v-54v-56.5v-52v-51.5v-56z" />
    <glyph glyph-name="uniAC7A" unicode="&#xac7a;" horiz-adv-x="813" 
d="M360 667h17.5t16.5 -2q14 -5 27.5 -12t22.5 -19q10 -13 14.5 -32.5t4.5 -34.5q0 -44 1.5 -87t-0.5 -86q-1 -13 -1 -28.5t-0.5 -31.5t-3.5 -30.5t-9 -26.5q-8 -14 -21 -22t-27.5 -10t-28.5 3t-22 19q-9 15 -13 32.5t-4.5 36.5t0 38t0.5 36v52t-3 52q-1 12 -6 17.5t-12 8
t-16 2.5h-19h-13.5h-7.5h-7h-14h-43q-32 0 -67 0.5t-72 5.5q-13 2 -20 11t-9.5 21t-2 25t2.5 22q4 19 21 31q11 7 24 7.5t25 1.5q14 2 28 1t28 -1h209v0zM249 7v-47h166q15 -1 27.5 -7.5t17.5 -22.5q11 -36 -26 -50q-12 -5 -24.5 -6t-23.5 -1h-121h-41.5t-43.5 1
q-21 1 -35 15t-16 37q-2 17 -3 42t0 39q-1 11 0.5 26t10.5 26q13 14 36.5 18t45.5 4l116 -1v43h-138h-18t-16 2t-15.5 4t-12.5 10q-13 20 -7 43q3 8 9 12.5t14 7.5t15.5 4.5t13.5 2.5q8 1 15.5 1.5t16.5 0.5l133 -1q51 0 78 -15.5t27 -50.5v-78q0 -14 -6 -27t-22 -23
q-14 -8 -30.5 -9t-30.5 0h-112zM569 191q2 -1 15 -1h28.5t29.5 0.5t18 0.5q19 -1 34 -3t33 -10q20 -9 27 -27.5t8 -38.5v-27t-0.5 -33t-1 -33t-0.5 -27q0 -20 -1 -40t-6 -40q-3 -12 -7 -20t-16 -13q-11 -3 -17.5 -4t-17.5 -1l-131 1q-12 1 -28 1.5t-29 9.5q-10 8 -13.5 23.5
t-3.5 26.5q0 18 -2 36t-2 36v29.5t0.5 35.5t1.5 35.5t4 29.5q3 16 9.5 25.5t21.5 16.5q14 5 23 7t23 4zM760 316q-1 -11 -3 -22.5t-8 -22.5q-7 -13 -17 -19q-14 -11 -33 -11q-15 0 -28 8q-14 8 -22 25t-8 31v108q-17 0 -34.5 1.5t-28.5 3.5q-29 4 -47.5 17.5t-13.5 46.5
q4 22 13.5 33.5t31.5 12.5q7 0 13.5 0.5t14.5 0.5q12 0 25 0.5t26 0.5v75q0 2 -0.5 10t-0.5 17.5t1.5 19t4.5 15.5q5 9 15 15.5t24 8.5q17 2 31.5 -2t22.5 -13q14 -15 18 -31q3 -10 3.5 -29t-0.5 -30v-54q0 -30 1 -56.5t1.5 -52t0 -51.5t-2.5 -56zM646 -28q10 1 12 5.5
t3 13.5q0 4 0.5 18.5t0.5 31t-1.5 30.5t-4.5 18t-9 5.5t-13.5 2t-15 0.5h-12.5q-8 0 -12.5 -1t-6.5 -10q-1 -3 -1.5 -16.5t-1 -29.5t-0.5 -30t1 -18q0 -5 3 -10t6 -7q2 -2 10 -2.5t17 -0.5h16.5h8.5z" />
    <glyph glyph-name="uniAC80" unicode="&#xac80;" horiz-adv-x="805" 
d="M340 662q9 0 23 -0.5t22 -2.5q14 -5 27.5 -12t22.5 -19q10 -12 14.5 -31.5t4.5 -35.5q0 -44 1.5 -86.5t-0.5 -86.5q-1 -13 -0.5 -28.5t-0.5 -31.5t-3.5 -30.5t-9.5 -26.5q-8 -14 -21 -22t-27.5 -10t-28 3t-21.5 19q-13 20 -15.5 45.5t-2.5 51.5v86q0 35 -3 65
q-1 12 -6 17.5t-12 7.5t-16 2h-18h-23h-26.5h-25.5h-21q-33 0 -62.5 1t-65.5 6q-14 1 -20.5 10t-9 21t-2 25t2.5 22q2 11 7 18t13 13q11 8 24 8t25 2q5 0 24 0.5t45 0.5h56.5h57t46 -0.5t25.5 -0.5zM600 402q-29 2 -52 3.5t-36 21.5q-6 10 -6 25t2 26q3 11 11 18.5t28 12.5
q4 1 15 1.5t23.5 1.5t23.5 1.5t15 0.5v86q-1 11 -0.5 22t3.5 22q2 8 4 15t9 15q8 10 22.5 14t31.5 2q32 -5 41 -25q6 -12 7.5 -29.5t1.5 -21.5v-326h-1q0 -1 -1 -7t-4 -14.5t-9 -17.5t-16 -15q-14 -8 -28 -8q-17 0 -33 11q-12 8 -17 20q-6 11 -8 22t-3 22v101h-24zM114 -104
q-1 0 -3 2q-10 8 -13.5 23.5t-3.5 26.5q-1 18 -2.5 36t-1.5 35v51t5 50q3 16 10 25.5t22 15.5q28 11 56 11h471q19 -1 39 -3t38 -10q20 -8 26.5 -26.5t8.5 -38.5q1 -17 1.5 -39.5t-0.5 -45.5t-3 -45.5t-7 -40.5q-3 -11 -7 -19.5t-16 -12.5q-11 -4 -22.5 -5t-22.5 -1l-521 2
q-13 1 -28 1t-26 8zM209 13q0 -5 0.5 -9.5t3.5 -6.5q2 -2 6.5 -2.5t9.5 -0.5t12 1h313q14 -1 27 -2q11 -1 23 -1t22 2q10 1 12 5.5t3 13.5q1 8 1 18.5t-6 18.5q-7 8 -19.5 8.5t-22.5 -0.5h-278q-22 2 -43 1.5t-43 -1.5q-8 0 -12.5 -0.5t-6.5 -9.5q-2 -7 -2 -13.5v-12.5
q1 -2 0.5 -4t-0.5 -5z" />
    <glyph glyph-name="uniAC81" unicode="&#xac81;" horiz-adv-x="801" 
d="M341 652q9 0 23 -0.5t22 -2.5q14 -5 27.5 -12t22.5 -19q10 -12 14.5 -31.5t4.5 -35.5q0 -44 1.5 -86.5t-0.5 -86.5q-1 -13 -0.5 -28.5t-0.5 -31.5t-3.5 -30.5t-9.5 -26.5q-8 -14 -21 -22t-27.5 -10t-28 3t-21.5 19q-13 20 -15.5 45.5t-2.5 51.5v86q0 35 -3 65
q-1 12 -6 17.5t-12 7.5t-16 2h-18h-23h-26.5h-25.5h-21q-33 0 -62.5 1t-65.5 6q-14 1 -20.5 10t-9 21t-2 25t2.5 22q2 11 7 18t13 13q11 8 24 8t25 2q5 0 24 0.5t45 0.5h56.5h57t46 -0.5t25.5 -0.5zM601 422q-29 2 -52 3.5t-36 21.5q-6 10 -6 25t2 26q3 11 11 18.5t28 12.5
q4 1 15 1.5t23.5 1.5t23.5 1.5t15 0.5v66q-1 11 -0.5 22t3.5 22q2 8 4 15t9 15q8 10 22.5 14t31.5 2q32 -5 41 -25q6 -12 7.5 -29.5t1.5 -21.5v-306h-1q0 -1 -1 -7t-4 -14.5t-9 -17.5t-16 -15q-14 -8 -28 -8q-17 0 -33 11q-12 8 -17 20q-6 11 -8 22t-3 22v101h-24zM278 33
q-9 0 -19.5 0.5t-18.5 -1t-13.5 -6t-5.5 -13.5q0 -11 1 -16q5 -17 15.5 -17.5t23.5 0.5q28 0 61 -0.5t63 -1.5h19.5t40 0.5t51 0.5t51 0.5t40 0.5h19.5q5 0 12 -1t13 0t10 5t4 12t1 14t-5 13q-7 8 -16.5 9t-19.5 0h-26h-61t-78 0.5t-77.5 0.5h-60h-24.5zM631 -110
q-9 -2 -40.5 -2.5t-74.5 -0.5t-92 0.5t-92 1t-74 0.5h-39q-20 0 -42 3t-39 16q-11 9 -17.5 22.5t-9.5 26.5t-4 23t-1 11v80v29.5t0.5 26.5t0.5 19.5v8.5q0 14 5 26.5t19 18.5q7 3 15.5 4t16.5 2q17 1 34.5 -5.5t21.5 -26.5v-36q2 -15 7 -14.5t17 -0.5h405v36q1 18 8 30.5
t25 15.5q14 3 35 2t32 -11q10 -9 10 -21.5v-24.5q-2 -46 0 -94.5t-3 -94.5q-1 -14 -5 -23.5t-12 -20.5q-8 -12 -21.5 -17t-28.5 -7t-30 -2t-27 -1z" />
    <glyph glyph-name="uniAC83" unicode="&#xac83;" horiz-adv-x="796" 
d="M340 662q9 0 23 -0.5t22 -2.5q14 -5 27.5 -12t22.5 -19q10 -12 14.5 -31.5t4.5 -35.5q0 -22 0.5 -40.5t1 -36t0.5 -36t-1 -40.5q-1 -13 -0.5 -28.5t-0.5 -31.5t-3.5 -30.5t-9.5 -26.5q-8 -14 -21 -22t-27.5 -10t-28 3t-21.5 19q-13 20 -15.5 45.5t-2.5 51.5v86
q0 16 -1 23t-2 22q-1 12 -6 17.5t-12 7.5t-16 2h-18h-23h-26.5h-25.5h-21q-33 0 -62.5 1t-65.5 6q-14 1 -20.5 10t-9 21t-2 25t2.5 22q2 11 7 18t13 13q11 8 24 8t25 2q5 0 24 0.5t45 0.5h56.5h57t46 -0.5t25.5 -0.5zM600 402q-29 2 -52 3.5t-36 21.5q-6 10 -6 25t2 26
q3 11 11 18.5t28 12.5q4 1 15 1.5t23.5 1.5t23.5 1.5t15 0.5v86q-1 11 -0.5 22t3.5 22q2 8 4 15t9 15q8 10 22.5 14t31.5 2q32 -5 41 -25q6 -12 7.5 -29.5t1.5 -21.5v-356h-1q0 -1 -1 -7t-4 -14.5t-9 -17.5t-16 -15q-14 -8 -28 -8q-17 0 -33 11q-12 8 -17 20q-6 11 -8 22
t-3 22v131h-24zM593 109q37 -26 73 -52t71 -54q12 -10 28 -20.5t19 -27.5q3 -14 -3.5 -29t-17.5 -24q-17 -14 -33 -12t-34 10q-37 17 -71 38t-68 44q-17 11 -33 23.5t-32 23.5q-11 8 -23 18t-28 8q-14 -1 -22 -6t-18 -13q-11 -8 -23.5 -18t-21.5 -18q-26 -22 -56.5 -44.5
t-59.5 -37.5q-11 -6 -25 -12t-28 -9.5t-28.5 -3t-26.5 6.5q-16 8 -23 24t-2 33t22.5 30t29.5 23q38 29 82 60.5t83 59.5q17 13 34 22.5t34 23.5q6 5 14 11.5t17 12t18 8.5t18 1q14 -4 24 -14t21 -18z" />
    <glyph glyph-name="uniAC84" unicode="&#xac84;" horiz-adv-x="817" 
d="M243 -55q-11 -15 -22.5 -28.5t-25 -22.5t-28.5 -11.5t-32 3.5q-21 7 -24.5 21t2.5 30t17 31t18 26q18 29 35 58.5t37 57.5q8 11 17.5 24t20.5 23.5t24 18t28 8.5t27 -6t21.5 -17.5t18 -23t15.5 -22.5q36 -56 69 -111q17 26 32.5 53t33.5 53q16 23 37.5 47.5t52.5 26.5
q15 1 27 -6t21.5 -17.5t18 -23t15.5 -22.5q24 -35 45.5 -71.5t44.5 -72.5q6 -9 11.5 -17t9 -16t3.5 -16.5t-7 -18.5q-11 -17 -28 -20.5t-34 7.5q-34 20 -59 52t-48 62q-15 19 -24.5 18t-22.5 -20q-9 -12 -19 -24t-21 -29q-11 -15 -22.5 -29.5t-25 -24t-28.5 -12.5t-32 3
q-16 6 -22 15q-27 20 -48 48.5t-42 54.5q-15 19 -24 18t-23 -20q-9 -12 -19 -26t-21 -31zM339 662q9 0 23 -0.5t22 -2.5q14 -5 27.5 -12t22.5 -19q10 -12 14.5 -31.5t4.5 -35.5q0 -44 1.5 -86.5t-0.5 -86.5q-2 -26 -1 -50.5t-13 -47.5q-8 -14 -21 -22t-27.5 -10t-28 3
t-21.5 19q-13 20 -15.5 45.5t-2.5 51.5v67q0 35 -3 65q-1 12 -6 17.5t-12 7.5t-16 2h-18h-23h-26.5h-25.5h-21q-33 0 -62.5 1t-65.5 6q-14 1 -20.5 10t-9 21t-2 25t2.5 22q2 11 7 18t13 13q11 8 24 8t25 2q5 0 24 0.5t45 0.5h56.5h57t46 -0.5t25.5 -0.5zM599 402
q-29 2 -52 3.5t-36 21.5q-6 10 -6 25t2 26q3 11 11 18.5t28 12.5q4 1 15 1.5t23.5 1.5t23.5 1.5t15 0.5v86q-1 11 -0.5 22t3.5 22q2 8 4 15t9 15q8 10 22.5 14t31.5 2q32 -5 41 -25q6 -12 7.5 -29.5t1.5 -21.5v-326h-1q0 -1 -1 -7t-4 -14.5t-9 -17.5t-16 -15q-14 -8 -28 -8
q-17 0 -33 11q-12 8 -17 20q-6 11 -8 22t-3 22v101h-24z" />
    <glyph glyph-name="uniAC85" unicode="&#xac85;" horiz-adv-x="807" 
d="M341 662q9 0 23 -0.5t22 -2.5q14 -5 27.5 -12t22.5 -19q10 -12 14.5 -31.5t4.5 -35.5q0 -44 1.5 -81.5t-0.5 -81.5q-1 -13 -0.5 -28.5t-0.5 -31.5t-3.5 -30.5t-9.5 -26.5q-8 -14 -21 -22t-27.5 -10t-28 3t-21.5 19q-13 20 -15.5 45.5t-2.5 51.5v66q0 17 -0.5 38.5
t-2.5 36.5q-1 12 -6 17.5t-12 7.5t-16 2h-18h-23h-26.5h-25.5h-21q-33 0 -62.5 1t-65.5 6q-14 1 -20.5 10t-9 21t-2 25t2.5 22q2 11 7 18t13 13q11 8 24 8t25 2q5 0 24 0.5t45 0.5h56.5h57t46 -0.5t25.5 -0.5zM601 402q-29 2 -52 3.5t-36 21.5q-6 10 -6 25t2 26
q3 11 11 18.5t28 12.5q4 1 15 1.5t23.5 1.5t23.5 1.5t15 0.5v86q-1 11 -0.5 22t3.5 22q2 8 4 15t9 15q8 10 22.5 14t31.5 2q32 -5 41 -25q6 -12 7.5 -29.5t1.5 -21.5v-334h-1q0 -1 -1 -7t-4 -14.5t-9 -17.5t-16 -15q-14 -8 -28 -8q-17 0 -33 11q-12 8 -17 20q-6 11 -8 22
t-3 22v109h-24zM108 34q0 45 24.5 75t68 47.5t103 24.5t128.5 7t130 -5t106 -21.5t71.5 -46.5t26.5 -81q0 -50 -26.5 -80t-71.5 -46.5t-106 -22t-130 -5.5t-128.5 5.5t-103 22t-68 46.5t-24.5 80zM631 34q0 17 -18 27t-46.5 15t-64 6.5t-70.5 1.5t-68 -1.5t-58.5 -6.5
t-41 -15t-15.5 -27q0 -15 15.5 -25t41 -15t58.5 -7t68 -2h70.5t64 4t46.5 14.5t18 30.5z" />
    <glyph glyph-name="uniAC86" unicode="&#xac86;" horiz-adv-x="811" 
d="M708 -7q20 -9 36 -18.5t32 -23.5q9 -8 12 -19.5t0.5 -22.5t-10 -20t-20.5 -12q-33 -7 -67 1t-63 22q-6 3 -20 10.5t-32 17.5t-37.5 21t-37.5 21t-32.5 17.5t-21.5 10.5q-4 -2 -25 -14.5t-46 -27t-46 -27t-24 -14.5q-17 -9 -34.5 -17.5t-35.5 -15.5t-38 -10.5t-39 1.5
q-13 3 -24.5 11.5t-13.5 20.5q-2 6 -1 12.5t3 11.5q4 16 17.5 26t28.5 18q17 10 35 19l36 18q19 10 37 19t36 19q1 1 11 6t21.5 11t21.5 11.5t10 7.5h-161q-20 2 -36 7q-14 5 -26.5 13t-15.5 22q-2 20 8 40t34 22q7 1 14.5 1h15.5h447q18 0 36 -0.5t33 -4.5t25.5 -14
t13.5 -28q-2 -22 -12 -34t-24 -17.5t-31.5 -6.5t-33.5 0h-133q2 -1 15.5 -8.5t32 -17.5t40 -21t40 -20.5t32.5 -16.5t17 -7zM349 662q9 0 23 -0.5t22 -2.5q14 -5 27.5 -12t22.5 -19q10 -12 14.5 -31.5t4.5 -35.5q0 -22 0.5 -40.5t1 -36t0.5 -36t-1 -40.5q-1 -13 -0.5 -28.5
t-0.5 -31.5t-3.5 -30.5t-9.5 -26.5q-8 -14 -21 -22t-27.5 -10t-28 3t-21.5 19q-13 20 -15.5 45.5t-2.5 51.5v66q0 35 -3 65q-1 12 -6 17.5t-12 7.5t-16 2h-18h-23h-26.5h-25.5h-21q-33 0 -62.5 1t-65.5 6q-14 1 -20.5 10t-9 21t-2 25t2.5 22q2 11 7 18t13 13q11 8 24 8t25 2
q5 0 24 0.5t45 0.5h56.5h57t46 -0.5t25.5 -0.5zM609 402q-29 2 -52 3.5t-36 21.5q-6 10 -6 25t2 26q3 11 11 18.5t28 12.5q4 1 15 1.5t23.5 1.5t23.5 1.5t15 0.5v86q-1 11 -0.5 22t3.5 22q2 8 4 15t9 15q8 10 22.5 14t31.5 2q32 -5 41 -25q6 -12 7.5 -29.5t1.5 -21.5v-306
h-1q0 -1 -1 -7t-4 -14.5t-9 -17.5t-16 -15q-14 -8 -28 -8q-17 0 -33 11q-12 8 -17 20q-6 11 -8 22t-3 22v81h-24z" />
    <glyph glyph-name="uniAC89" unicode="&#xac89;" horiz-adv-x="815" 
d="M707 -42q21 0 39.5 -10t16.5 -36q-1 -17 -11 -25t-24 -11t-30 -2.5t-28 0.5h-429q-21 0 -40.5 0.5t-43.5 1.5q-22 2 -32.5 19.5t-14.5 35.5q-5 26 -4.5 51.5t0.5 51.5q0 19 -1.5 42.5t-0.5 42.5q1 17 3 34t13 31q27 30 72 30h22q5 -1 8 -1h7h198q52 0 104 -0.5t105 1.5
q12 0 30 1t36 -1t33.5 -7.5t22.5 -18.5q9 -17 1 -34.5t-24 -19.5q-28 -5 -54 -4.5t-54 0.5h-360q-8 0 -15 1t-15 0q-9 -1 -10.5 -2.5t-1.5 -9.5v-31q50 -2 100.5 -2.5t101.5 -0.5h280q11 0 25 -0.5t24 -8.5q11 -11 13 -31t-8 -31q-6 -7 -14.5 -9.5t-19.5 -3.5
q-26 -3 -52.5 -2t-47.5 1h-272h-50.5h-33t-23 -0.5t-20.5 -1.5l1 -35q17 -5 45 -6t57 -1t55.5 1t40.5 1h280v0zM359 657h17.5t16.5 -2q14 -5 27.5 -12t22.5 -19q10 -13 14.5 -32.5t4.5 -34.5q0 -22 0.5 -40.5t1 -36.5t0.5 -36.5t-1 -39.5q-1 -13 -1 -28.5t-0.5 -31.5
t-3.5 -30.5t-9 -26.5q-8 -14 -21 -22t-27.5 -10t-28.5 3t-22 19q-9 15 -13 32.5t-4.5 36.5t0 38t0.5 36v42t-3 42q-1 12 -6 17.5t-12 8t-16 2.5h-19h-13.5h-7.5h-7h-14h-43q-32 0 -67 0.5t-72 5.5q-13 2 -20 11t-9.5 21t-2 25t2.5 22q4 19 21 31q11 7 24 7.5t25 1.5
q14 2 28 1t28 -1h209v0zM759 336q-1 -11 -3 -22.5t-8 -22.5q-7 -13 -17 -19q-14 -11 -33 -11q-15 0 -28 8q-14 8 -22 25t-8 31v88q-17 0 -34.5 1.5t-28.5 3.5q-29 4 -47.5 17.5t-13.5 46.5q4 22 13.5 33.5t31.5 12.5q7 0 13.5 0.5t14.5 0.5q12 0 25 0.5t26 0.5v75
q0 2 -0.5 10t-0.5 17.5t1.5 19t4.5 15.5q5 9 15 15.5t24 8.5q17 2 31.5 -2t22.5 -13q14 -15 18 -31q3 -10 3.5 -29t-0.5 -30v-54q0 -30 1 -53.5t1.5 -45t0 -44.5t-2.5 -53z" />
    <glyph glyph-name="uniAC8A" unicode="&#xac8a;" horiz-adv-x="807" 
d="M168 -116q-17 0 -36 3.5t-28 19.5q-5 7 -7 17t-1 20t5.5 18.5t12.5 13.5q10 5 20.5 7t21.5 4h28h23l-3 72l-7.5 -0.5t-17 -0.5t-18 0.5t-11.5 0.5q-12 1 -25.5 11t-18.5 23q-7 20 1 42q6 18 21.5 24t32.5 9h22h14h459h34q14 -1 29 -2t26 -5t19.5 -15t11.5 -24.5t-0.5 -26
t-15.5 -19.5q-11 -8 -17 -10t-22 -5q-12 -2 -29.5 -1.5t-29.5 0.5v-13.5t0.5 -25t1 -24t1.5 -10.5q11 -1 26 0.5t26 0.5q17 -1 29.5 -2t26.5 -12t13 -33.5t-12 -35.5q-10 -11 -31 -16t-42 -6q-25 -2 -53 1h-480v0zM340 662q9 0 23 -0.5t22 -2.5q14 -5 27.5 -12t22.5 -19
q10 -12 14.5 -31.5t4.5 -35.5q0 -44 1.5 -86.5t-0.5 -86.5q-1 -13 -0.5 -28.5t-0.5 -31.5t-3.5 -30.5t-9.5 -26.5q-8 -14 -21 -22t-27.5 -10t-28 3t-21.5 19q-13 20 -15.5 45.5t-2.5 51.5v86q0 35 -3 65q-1 12 -6 17.5t-12 7.5t-16 2h-18h-23h-26.5h-25.5h-21q-33 0 -62.5 1
t-65.5 6q-14 1 -20.5 10t-9 21t-2 25t2.5 22q2 11 7 18t13 13q11 8 24 8t25 2q5 0 24 0.5t45 0.5h56.5h57t46 -0.5t25.5 -0.5zM600 402q-29 2 -52 3.5t-36 21.5q-6 10 -6 25t2 26q3 11 11 18.5t28 12.5q4 1 15 1.5t23.5 1.5t23.5 1.5t15 0.5v86q-1 11 -0.5 22t3.5 22
q2 8 4 15t9 15q8 10 22.5 14t31.5 2q32 -5 41 -25q6 -12 7.5 -29.5t1.5 -21.5v-326h-1q0 -1 -1 -7t-4 -14.5t-9 -17.5t-16 -15q-14 -8 -28 -8q-17 0 -33 11q-12 8 -17 20q-6 11 -8 22t-3 22v101h-24zM314 9v-6.5t1 -5.5q1 -5 9 -5q4 0 8 1h220q1 16 1 29v21.5t-2 12.5
q-3 5 -9.5 5t-11.5 -1h-173q-12 1 -17 0t-18 0q-8 1 -8.5 -3.5t-0.5 -12.5z" />
    <glyph glyph-name="uniAC8B" unicode="&#xac8b;" horiz-adv-x="807" 
d="M139 -19q0 46 47 73h-6q-21 -2 -38 2q-14 3 -27 11t-15 25t7 32.5t29 17.5q6 1 12 1h14h224q0 12 1 24t5 22.5t11.5 19t20.5 12.5q16 6 30.5 3t25 -10.5t17.5 -19.5t9 -24q3 -15 1 -27h156q15 0 33 2t35.5 0.5t30.5 -8.5t18 -26q4 -17 -2 -28t-17.5 -17.5t-27 -9
t-30.5 -3.5q19 -13 29 -30.5t10 -41.5q0 -37 -23.5 -59t-64.5 -34t-96 -16t-117 -4t-117 4t-96 16t-65 34t-24 59zM350 667h17.5t16.5 -2q14 -5 27.5 -12t22.5 -19q10 -13 14.5 -32.5t4.5 -34.5q0 -44 1.5 -82t-0.5 -81q-1 -13 -1 -28.5t-0.5 -31.5t-3.5 -30.5t-9 -26.5
q-8 -14 -21 -22t-27.5 -10t-28.5 3t-22 19q-9 15 -13 32.5t-4.5 36.5t0 38t0.5 36v47t-3 47q-1 12 -6 17.5t-12 8t-16 2.5h-19h-13.5h-7.5h-7h-14h-43q-32 0 -62 0.5t-67 5.5q-13 2 -20 11t-9.5 21t-2 25t2.5 22q4 19 21 31q11 7 24 7.5t25 1.5q14 2 23 1t23 -1h209v0z
M750 305q-1 -11 -3 -22.5t-8 -22.5q-7 -13 -17 -19q-14 -11 -33 -11q-15 0 -28 8q-14 8 -22 25t-8 31v113l-63 -1q-29 4 -47.5 18t-13.5 47q4 22 13.5 33.5t31.5 12.5q7 0 13.5 0.5t14.5 0.5h51v87q0 2 -0.5 10t-0.5 17.5t1.5 19t4.5 15.5q5 9 15 15.5t24 8.5q17 2 31.5 -2
t22.5 -13q14 -15 18 -31q3 -10 3.5 -29t-0.5 -30v-54q0 -60 2 -114t-2 -113zM618 -19q0 13 -16 19t-41 8.5t-57 2.5h-63h-62.5t-54.5 -2.5t-39 -8.5t-15 -19q0 -11 15 -17t39 -8.5t54.5 -3t62.5 -0.5q31 0 63 -1t57 1t41 8t16 21z" />
    <glyph glyph-name="uniAC8C" unicode="&#xac8c;" horiz-adv-x="830" 
d="M260 20v28v31t-0.5 43t-0.5 65v97v138v32.5t-2 32.5q-3 18 -9 23t-24 5q-44 1 -78 0.5t-73 -0.5q-35 0 -52 18t-17 47t13.5 44.5t39.5 20.5q20 5 38 6t40 1h143q5 0 10.5 -0.5t10.5 -0.5q13 -1 27.5 -3t26.5 -7q8 -3 15.5 -8t12.5 -12q10 -14 11 -26t3 -29q2 -27 2 -55
v-56v-73h98v202v26.5t3 26.5q2 5 3.5 9t3.5 9q6 10 12 15.5t17 9.5q5 2 10.5 2.5t10.5 0.5q33 0 50 -30q4 -6 5.5 -17t2.5 -22.5t1 -20v-10.5v-468v-104q0 -25 -1.5 -40t-9.5 -38q-5 -15 -17 -25t-34 -10q-6 0 -15 1.5t-14 5.5q-10 6 -15.5 19.5t-8.5 28.5t-3.5 29t-0.5 22
v248l-98 1v-118q0 -1 0.5 -15t0.5 -34v-41.5t-1 -37.5q-3 -36 -22.5 -58t-54.5 -22q-18 0 -30 9t-18.5 23t-9 30.5t-2.5 30.5zM780 -74q-6 -13 -19 -22q-20 -13 -44 -7q-15 3 -24.5 12.5t-14.5 21.5t-7 26t-2 27v589v25.5t2 28t5.5 25.5t10.5 19q11 10 23 12.5t26 2.5
q17 0 28 -9.5t17 -25.5q9 -21 10 -43t2 -45v-5q2 -76 1 -151t-1 -146v-240q0 -26 -1.5 -50t-11.5 -45z" />
    <glyph glyph-name="uniAC90" unicode="&#xac90;" horiz-adv-x="830" 
d="M790 -37q5 -38 -13 -59q-12 -14 -26 -17t-15 -3h-521q-20 0 -35 6t-25 15.5t-15 21t-5 22.5v135q-2 22 0 45q2 21 16.5 34t37.5 13q5 0 18 -1t18 -3q13 -4 20.5 -11.5t11.5 -18t5 -22t2 -22.5q0 -5 0.5 -19t1 -29.5t1 -29.5t1.5 -17q3 -1 16.5 -2.5t50.5 -1.5
q32 0 39.5 1t8.5 1h362l6.5 -2t14.5 -6.5t15 -12t9 -17.5zM279 667h21t20 -2q14 -5 27.5 -12t22.5 -19q10 -13 14.5 -32.5t4.5 -34.5q0 -22 0.5 -48.5t1 -53.5t0.5 -53.5t-1 -47.5q-1 -13 -1 -28.5t-0.5 -31.5t-3.5 -30.5t-9 -26.5q-8 -14 -20.5 -22t-26.5 -10t-27.5 3
t-21.5 19q-9 15 -13 32.5t-4.5 36.5t0 38t0.5 36v30v37t-1 37t-2 30t-6 17.5t-12 8t-16 2.5h-19h-65h-23.5t-13.5 0.5t-14.5 2t-26.5 3.5q-13 2 -20 11t-9.5 21t-2 25t2.5 22q4 19 21 31q11 7 24 7.5t25 1.5h174zM625 330v-91q-1 -11 -3 -22.5t-8 -22.5q-9 -14 -17 -19
t-13 -8t-13 -3q-15 0 -28 8q-10 6 -16 15t-9.5 17t-4.5 14.5l-1 6.5v167h-22q-17 -1 -36.5 3t-32.5 24q-6 10 -5.5 24.5t2.5 25.5q3 11 11 18.5t28 11.5q5 2 21.5 2.5t33.5 1.5v112q-1 5 1 22.5t7 29.5q11 21 41 24q31 4 47 -15q7 -8 9 -15.5t5 -15.5q3 -10 2.5 -21
t-0.5 -22zM670 599v22t3 21q6 17 18 30q8 10 19 14t28 2q27 -4 37 -26q6 -12 7 -28.5t0 -21.5v-388q0 -1 -0.5 -7t-3 -14.5t-8 -17.5t-15.5 -15q-7 -4 -11.5 -5.5t-12.5 -1.5q-16 0 -33 10q-5 4 -9 9t-8 11q-15 28 -13.5 61.5t1.5 64.5v21.5v51v66v66.5t0.5 52t0.5 23z" />
    <glyph glyph-name="uniAC94" unicode="&#xac94;" horiz-adv-x="822" 
d="M715 -36q16 -1 28 -7.5t17 -22.5q11 -37 -26 -50q-12 -5 -24.5 -6t-22.5 -1h-465h-42t-44 1q-27 1 -37.5 17t-12.5 39l-4 66q-1 11 0.5 26.5t10.5 26.5q14 14 32 18t40 4h31q5 0 8 -0.5t6 -0.5h436v35h-446q-5 0 -10.5 0.5t-11.5 -0.5h-24h-18t-16 2q-9 2 -16.5 4
t-12.5 10q-6 11 -8 21t2 22q3 8 9 12.5t14 7.5t15.5 4.5t13.5 2.5q8 1 15.5 1.5t15.5 0.5h17q5 -1 9.5 -1h9.5h452q51 0 78 -15.5t27 -50.5v-70q0 -14 -6.5 -27t-22.5 -23q-13 -8 -26 -8.5t-26 -0.5h-475v-37h510v0zM269 667h21t20 -2q14 -5 27.5 -12t22.5 -19
q10 -13 14.5 -32.5t4.5 -34.5q0 -44 1.5 -87t-0.5 -86q-1 -13 -1 -28.5t-0.5 -31.5t-3.5 -30.5t-9 -26.5q-8 -14 -20.5 -22t-26.5 -10t-27.5 3t-21.5 19q-9 15 -13 32.5t-4.5 36.5t0 38t0.5 36v52t-3 52q-1 12 -6 17.5t-12 8t-16 2.5h-19h-75h-23.5t-13.5 0.5t-14.5 2
t-26.5 3.5q-13 2 -20 11t-9.5 21t-2 25t2.5 22q4 19 21 31q11 7 24 7.5t25 1.5h184zM605 400v-91q-1 -11 -3 -22.5t-8 -22.5q-9 -14 -17 -19t-13 -8t-13 -3q-15 0 -28 8q-10 6 -16 15t-9.5 17t-4.5 14.5l-1 6.5v97h-12q-17 -1 -37 3t-33 24q-6 10 -5.5 24.5t2.5 25.5
q3 11 11 18.5t28 11.5q5 1 18.5 2t27.5 2v112q-1 5 1 22.5t7 29.5q11 21 41 24q31 4 47 -15q7 -8 9 -15.5t5 -15.5q3 -10 2.5 -21t-0.5 -22zM650 600v22t3 21q6 17 18 30q8 10 19 14t28 2q27 -4 37 -26q6 -12 7 -28.5t0 -21.5v-319q0 -1 -0.5 -7t-3 -14.5t-8 -17.5
t-15.5 -15q-7 -4 -11.5 -5.5t-12.5 -1.5q-16 0 -33 10q-5 4 -9 9t-8 11q-15 28 -13.5 61.5t1.5 64.5v16.5v38.5v49.5v49.5t0.5 39t0.5 18z" />
    <glyph glyph-name="uniAC9C" unicode="&#xac9c;" horiz-adv-x="817" 
d="M115 -104q-1 0 -3 2q-10 8 -13.5 23.5t-3.5 26.5q-1 18 -2.5 36t-1.5 35v51t5 50q3 16 10 25.5t22 15.5q28 11 56 11h471q19 -1 39 -3t38 -10q20 -8 26.5 -26.5t8.5 -38.5q1 -17 1.5 -39.5t-0.5 -45.5t-3 -45.5t-7 -40.5q-3 -11 -7 -19.5t-16 -12.5q-11 -4 -22.5 -5
t-22.5 -1l-521 2q-13 1 -28 1t-26 8zM264 667h21t20 -2q14 -5 27.5 -12t22.5 -19q10 -13 14.5 -32.5t4.5 -34.5q0 -44 1.5 -87t-0.5 -86q-1 -13 -1 -28.5t-0.5 -31.5t-3.5 -30.5t-9 -26.5q-8 -14 -20.5 -22t-26.5 -10t-27.5 3t-21.5 19q-9 15 -13 32.5t-4.5 36.5t0 38
t0.5 36v52t-3 52q-1 12 -6 17.5t-12 8t-16 2.5h-19h-71h-23.5t-13.5 0.5t-14.5 2t-26.5 3.5q-13 2 -20 11t-9.5 21t-2 25t2.5 22q4 19 21 31q11 7 24 7.5t25 1.5h180zM604 380v-91q-1 -11 -3 -22.5t-8 -22.5q-9 -14 -17 -19t-13 -8t-13 -3q-15 0 -28 8q-10 6 -16 15t-9.5 17
t-4.5 14.5l-1 6.5v117h-12q-17 -1 -37 3t-33 24q-6 10 -5.5 24.5t2.5 25.5q3 11 11 18.5t28 11.5q5 1 18.5 2t27.5 2v112q-1 5 1 22.5t7 29.5q11 21 41 24q31 4 47 -15q7 -8 9 -15.5t5 -15.5q3 -10 2.5 -21t-0.5 -22zM649 601v22t3 21q6 17 18 30q8 10 19 14t28 2
q27 -4 37 -26q6 -12 7 -28.5t0 -21.5v-340q0 -1 -0.5 -7t-3 -14.5t-8 -17.5t-15.5 -15q-7 -4 -11.5 -5.5t-12.5 -1.5q-16 0 -33 10q-5 4 -9 9t-8 11q-15 28 -13.5 61.5t1.5 64.5v18v42.5v54.5v54.5t0.5 43t0.5 19.5zM210 13q0 -5 0.5 -9.5t3.5 -6.5q2 -2 6.5 -2.5t9.5 -0.5
t12 1h313q14 -1 27 -2q11 -1 23 -1t22 2q10 1 12 5.5t3 13.5q1 8 1 18.5t-6 18.5q-7 8 -19.5 8.5t-22.5 -0.5h-278q-22 2 -43 1.5t-43 -1.5q-8 0 -12.5 -0.5t-6.5 -9.5q-2 -7 -2 -13.5v-12.5q1 -2 0.5 -4t-0.5 -5z" />
    <glyph glyph-name="uniAC9D" unicode="&#xac9d;" horiz-adv-x="807" 
d="M638 -110q-9 -2 -40.5 -2.5t-74.5 -0.5t-92 0.5t-92 1t-74 0.5h-39q-20 0 -42 3t-39 16q-11 9 -17.5 22.5t-9.5 26.5t-4 23t-1 11v75q0 29 0.5 53t0.5 26q0 14 5 26.5t19 18.5q7 3 15.5 4t16.5 2q17 1 34.5 -5.5t21.5 -26.5v-26q2 -15 7 -14.5t17 -0.5h406v30
q1 18 7.5 29t24.5 14q14 3 35 2t32 -11q10 -9 10 -21.5v-24.5q-2 -46 0 -90t-3 -90q-1 -14 -5 -23.5t-12 -20.5q-8 -12 -21.5 -17t-28.5 -7t-30 -2t-27 -1zM269 667h21t20 -2q14 -5 27.5 -12t22.5 -19q10 -13 14.5 -32.5t4.5 -34.5q0 -44 1.5 -87t-0.5 -86q-1 -13 -1 -28.5
t-0.5 -31.5t-3.5 -30.5t-9 -26.5q-8 -14 -20.5 -22t-26.5 -10t-27.5 3t-21.5 19q-9 15 -13 32.5t-4.5 36.5t0 38t0.5 36v52t-3 52q-1 12 -6 17.5t-12 8t-16 2.5h-19h-75h-23.5t-13.5 0.5t-14.5 2t-26.5 3.5q-13 2 -20 11t-9.5 21t-2 25t2.5 22q4 19 21 31q11 7 24 7.5
t25 1.5h184zM605 380v-69q-1 -11 -3 -22.5t-8 -22.5q-9 -14 -17 -19t-13 -8t-13 -3q-15 0 -28 8q-10 6 -16 15t-9.5 17t-4.5 14.5l-1 6.5v95h-12q-17 -1 -37 3t-33 24q-6 10 -5.5 24.5t2.5 25.5q3 11 11 18.5t28 11.5q5 1 18.5 2t27.5 2v111q-1 5 1 22.5t7 29.5q11 21 41 24
q31 4 47 -15q7 -8 9 -15.5t5 -15.5q3 -10 2.5 -21t-0.5 -22zM650 601v22t3 21q6 17 18 30q8 10 19 14t28 2q27 -4 37 -26q6 -12 7 -28.5t0 -21.5v-318q0 -1 -0.5 -7t-3 -14.5t-8 -17.5t-15.5 -15q-7 -4 -11.5 -5.5t-12.5 -1.5q-16 0 -33 10q-5 4 -9 9t-8 11q-8 14 -10.5 26
t-3 24.5t0.5 25.5t1 28v18v42.5v54.5v54.5t0.5 43t0.5 19.5zM285 33q-9 0 -19.5 0.5t-18.5 -1t-13.5 -6t-5.5 -13.5q0 -11 1 -16q5 -17 15.5 -17.5t23.5 0.5q28 0 61 -0.5t63 -1.5h19.5t40.5 0.5t51 0.5t51 0.5t40.5 0.5h19.5q5 0 12 -1t13 0t10 5t4 12t1 14t-5 13
q-7 8 -16.5 9t-19.5 0h-26h-61.5t-78 0.5t-77.5 0.5h-60.5h-24.5z" />
    <glyph glyph-name="uniAC9F" unicode="&#xac9f;" horiz-adv-x="811" 
d="M602 99q37 -26 73 -52t71 -54q12 -10 28 -20.5t19 -27.5q3 -14 -3.5 -29t-17.5 -24q-17 -14 -33 -12t-34 10q-37 17 -71 38t-68 44q-17 11 -33 23.5t-32 23.5q-11 8 -23 18t-28 8q-14 -1 -22 -6t-18 -13q-11 -8 -23.5 -18t-21.5 -18q-26 -22 -56.5 -44.5t-59.5 -37.5
q-11 -6 -25 -12t-28 -9.5t-28.5 -3t-26.5 6.5q-16 8 -23 24t-2 33t22.5 30t29.5 23q38 29 82 60.5t83 59.5q17 13 34 22.5t34 23.5q6 5 14 11.5t17 12t18 8.5t18 1q14 -4 24 -14t21 -18zM268 667h21t20 -2q14 -5 27.5 -12t22.5 -19q10 -13 14.5 -32.5t4.5 -34.5
q0 -44 1.5 -87t-0.5 -86q-1 -13 -1 -28.5t-0.5 -31.5t-3.5 -30.5t-9 -26.5q-8 -14 -20.5 -22t-26.5 -10t-27.5 3t-21.5 19q-9 15 -13 32.5t-4.5 36.5t0 38t0.5 36v52t-3 52q-1 12 -6 17.5t-12 8t-16 2.5h-19h-75h-23.5t-13.5 0.5t-14.5 2t-26.5 3.5q-13 2 -20 11t-9.5 21
t-2 25t2.5 22q4 19 21 31q11 7 24 7.5t25 1.5h184zM604 380v-91q-1 -11 -3 -22.5t-8 -22.5q-9 -14 -17 -19t-13 -8t-13 -3q-15 0 -28 8q-10 6 -16 15t-9.5 17t-4.5 14.5l-1 6.5v117h-12q-17 -1 -37 3t-33 24q-6 10 -5.5 24.5t2.5 25.5q3 11 11 18.5t28 11.5q5 1 18.5 2
t27.5 2v112q-1 5 1 22.5t7 29.5q11 21 41 24q31 4 47 -15q7 -8 9 -15.5t5 -15.5q3 -10 2.5 -21t-0.5 -22zM649 601v22t3 21q6 17 18 30q8 10 19 14t28 2q27 -4 37 -26q6 -12 7 -28.5t0 -21.5v-340q0 -1 -0.5 -7t-3 -14.5t-8 -17.5t-15.5 -15q-7 -4 -11.5 -5.5t-12.5 -1.5
q-16 0 -33 10q-5 4 -9 9t-8 11q-15 28 -13.5 61.5t1.5 64.5v18v42.5v54.5v54.5t0.5 43t0.5 19.5z" />
    <glyph glyph-name="uniACA0" unicode="&#xaca0;" horiz-adv-x="807" 
d="M224 -55q-11 -15 -22.5 -28.5t-25 -22.5t-28.5 -11.5t-32 3.5q-21 7 -24.5 21t2.5 30t17 31t18 26q18 29 35 58.5t37 57.5q8 11 17.5 24t20.5 23.5t24 18t28 8.5t27 -6t21.5 -17.5t18 -23t15.5 -22.5q36 -56 69 -111q17 26 32.5 53t33.5 53q16 23 37.5 47.5t52.5 26.5
q15 1 27 -6t21.5 -17.5t18 -23t15.5 -22.5q24 -35 45.5 -71.5t44.5 -72.5q6 -9 11.5 -17t9 -16t3.5 -16.5t-7 -18.5q-11 -17 -28 -20.5t-34 7.5q-34 20 -59 52t-48 62q-15 19 -24.5 18t-22.5 -20q-9 -12 -19 -24t-21 -29q-17 -26 -38.5 -46t-47.5 -21h-3q-5 0 -9.5 1t-9.5 3
q-16 6 -22 15q-27 20 -48 48.5t-42 54.5q-15 19 -24 18t-23 -20q-9 -12 -19 -26t-21 -31zM269 667h21t20 -2q14 -5 27.5 -12t22.5 -19q10 -13 14.5 -32.5t4.5 -34.5q0 -44 1.5 -87t-0.5 -86q-1 -13 -1 -28.5t-0.5 -31.5t-3.5 -30.5t-9 -26.5q-8 -14 -20.5 -22t-26.5 -10
t-27.5 3t-21.5 19q-9 15 -13 32.5t-4.5 36.5t0 38t0.5 36v52t-3 52q-1 12 -6 17.5t-12 8t-16 2.5h-19h-75h-23.5t-13.5 0.5t-14.5 2t-26.5 3.5q-13 2 -20 11t-9.5 21t-2 25t2.5 22q4 19 21 31q11 7 24 7.5t25 1.5h184zM605 380v-91q-1 -11 -3 -22.5t-8 -22.5q-9 -14 -17 -19
t-13 -8t-13 -3q-15 0 -28 8q-10 6 -16 15t-9.5 17t-4.5 14.5l-1 6.5v117h-12q-17 -1 -37 3t-33 24q-6 10 -5.5 24.5t2.5 25.5q3 11 11 18.5t28 11.5q5 1 18.5 2t27.5 2v112q-1 5 1 22.5t7 29.5q11 21 41 24q31 4 47 -15q7 -8 9 -15.5t5 -15.5q3 -10 2.5 -21t-0.5 -22z
M650 602v22t3 21q6 17 18 30q8 10 19 14t28 2q27 -4 37 -26q6 -12 7 -28.5t0 -21.5v-341q0 -1 -0.5 -7t-3 -14.5t-8 -17.5t-15.5 -15q-7 -4 -11.5 -5.5t-12.5 -1.5q-16 0 -33 10q-5 4 -9 9t-8 11q-15 28 -13.5 61.5t1.5 64.5v18v42.5v55v55t0.5 43t0.5 19.5z" />
    <glyph glyph-name="uniACA1" unicode="&#xaca1;" horiz-adv-x="811" 
d="M108 34q0 45 26.5 75t71.5 47.5t106 24.5t130 7t130 -5t106 -21.5t71.5 -46.5t26.5 -81q0 -50 -26.5 -80t-71.5 -46.5t-106 -22t-130 -5.5t-130 5.5t-106 22t-71.5 46.5t-26.5 80zM269 667h21t20 -2q14 -5 27.5 -12t22.5 -19q10 -13 14.5 -32.5t4.5 -34.5q0 -44 1.5 -87
t-0.5 -86q-1 -13 -1 -28.5t-0.5 -31.5t-3.5 -30.5t-9 -26.5q-8 -14 -20.5 -22t-26.5 -10t-27.5 3t-21.5 19q-9 15 -13 32.5t-4.5 36.5t0 38t0.5 36v52t-3 52q-1 12 -6 17.5t-12 8t-16 2.5h-19h-75h-23.5t-13.5 0.5t-14.5 2t-26.5 3.5q-13 2 -20 11t-9.5 21t-2 25t2.5 22
q4 19 21 31q11 7 24 7.5t25 1.5h184zM605 380v-91q-1 -11 -3 -22.5t-8 -22.5q-9 -14 -17 -19t-13 -8t-13 -3q-15 0 -28 8q-10 6 -16 15t-9.5 17t-4.5 14.5l-1 6.5v117h-12q-17 -1 -37 3t-33 24q-6 10 -5.5 24.5t2.5 25.5q3 11 11 18.5t28 11.5q5 1 18.5 2t27.5 2v111
q-1 5 1 22.5t7 29.5q11 21 41 24q31 4 47 -15q7 -8 9 -15.5t5 -15.5q3 -10 2.5 -21t-0.5 -22zM650 601v22t3 21q6 17 18 30q8 10 19 14t28 2q27 -4 37 -26q6 -12 7 -28.5t0 -21.5v-340q0 -1 -0.5 -7t-3 -14.5t-8 -17.5t-15.5 -15q-7 -4 -11.5 -5.5t-12.5 -1.5q-16 0 -33 10
q-5 4 -9 9t-8 11q-15 28 -13.5 61.5t1.5 64.5v18v42.5v54.5v54.5t0.5 43t0.5 19.5zM641 34q0 17 -18 27t-46.5 15t-64 6.5t-70.5 1.5t-69.5 -1.5t-62 -6.5t-44.5 -15t-17 -27q0 -15 17 -25t44.5 -15t62 -7t69.5 -2h70.5t64 4t46.5 14.5t18 30.5z" />
    <glyph glyph-name="uniACA8" unicode="&#xaca8;" horiz-adv-x="830" 
d="M639 562q0 13 0.5 28.5t3 31t7 29t13.5 22.5q13 13 32 13h2q25 -1 39 -14.5t21.5 -32.5t9.5 -39.5t2 -36.5v-593v-9.5t-2 -20.5t-6 -24t-13 -20q-7 -7 -20 -11t-24 -4q-24 0 -38 16q-13 14 -16.5 27.5t-5.5 30.5q0 9 -0.5 30t-0.5 45.5v48v37.5h-89q-23 0 -35.5 7
t-17.5 18q-3 6 -5.5 12.5t-2.5 13.5v12t2 12q2 8 5 17t9 14q13 10 28 13q8 1 22 2t29 1.5t29.5 1t22.5 1.5v43.5t-1 61.5l-87 2q-19 1 -34 5t-20 15q-7 14 -7 27v12t2 12q2 8 5 16t9 13q13 10 28 13q6 1 17.5 1.5t26.5 1t30.5 1t28.5 1.5v59.5t1 36.5zM291 55q-1 12 -1 24
v24v318v32t-2 33q-1 5 -2.5 14t-6.5 11q-5 3 -11.5 2.5t-12.5 0.5q-7 1 -13.5 0t-13.5 0h-47q-17 -1 -34 0t-34 0q-8 -1 -14.5 -0.5t-14.5 0.5q-11 0 -23 1t-22 8q-14 10 -19 25t-5 31q-1 19 8 38q5 12 13 17q5 5 14.5 8.5t16.5 5.5q21 5 44 5.5t45 0.5h174q13 -2 27.5 -3.5
t26.5 -6.5q8 -3 15.5 -8t12.5 -12q9 -14 10.5 -28t3.5 -31q2 -28 2 -55.5v-55.5v-328q0 -1 0.5 -15.5t0.5 -34v-41t-1 -37.5q-1 -10 -3 -21t-6.5 -21t-12.5 -18t-21 -13q-17 -7 -34 -7q-13 0 -26 5.5t-18 16.5q-16 32 -16 71v44v0z" />
    <glyph glyph-name="uniACA9" unicode="&#xaca9;" horiz-adv-x="799" 
d="M645 162q30 1 47.5 -5t27.5 -16t13 -22t3 -24v-127q2 -22 0 -44q-2 -21 -16.5 -34t-37.5 -13q-5 0 -18 0.5t-18 2.5q-13 4 -20.5 12t-11.5 18t-5 21.5t-2 22.5q0 4 -0.5 17.5t-1 28t-1 27t-1.5 16.5q-3 1 -16.5 2t-50.5 1q-32 0 -39.5 -0.5t-8.5 -1.5h-361l-1 1l-6.5 2
t-14.5 6t-15.5 11t-8.5 18q-5 38 13 60q12 14 26 16.5t15 2.5l510 1v0zM340 672q9 0 23 -0.5t22 -2.5q14 -5 27.5 -12t22.5 -19q10 -12 14.5 -31.5t4.5 -35.5q0 -44 1.5 -86.5t-0.5 -86.5q-1 -13 -0.5 -28.5t-0.5 -31.5t-3.5 -30.5t-9.5 -26.5q-8 -14 -21 -22t-27.5 -10
t-28 3t-21.5 19q-13 20 -15.5 45.5t-2.5 51.5v86q0 35 -3 65q-1 12 -6 17.5t-12 7.5t-16 2h-18h-23h-26.5h-25.5h-21q-33 0 -62.5 1t-65.5 6q-14 1 -20.5 10t-9 21t-2 25t2.5 22q2 11 7 18t13 13q11 8 24 8t25 2q5 0 24 0.5t45 0.5h56.5h57t46 -0.5t25.5 -0.5zM549 304
q-14 0 -27.5 5t-23.5 22q-3 4 -4.5 11t-2 14.5t0 14.5t1.5 11q2 11 11 19.5t21 13.5q4 1 20.5 2t33.5 1h45v68l-75 1q-14 0 -28 5t-24 22q-8 13 -8 27t6.5 26t18 20t27.5 9l86 3l1 36q0 12 3 23t15 20q8 6 19.5 8t21.5 3q25 3 43 -17q7 -9 10 -17q4 -12 3.5 -30t-0.5 -31
v-283v-13t-2 -29t-6.5 -31.5t-14.5 -21.5q-7 -4 -17 -6t-18 -2q-17 0 -33 11q-12 8 -17 19q-3 6 -5 15t-3 18.5t-2 18.5t-1 14h-75z" />
    <glyph glyph-name="uniACAA" unicode="&#xacaa;" horiz-adv-x="799" 
d="M340 671q9 0 23 -0.5t22 -2.5q14 -5 27.5 -12t22.5 -19q10 -12 14.5 -31.5t4.5 -35.5q0 -44 1.5 -86.5t-0.5 -86.5q-1 -13 -0.5 -28.5t-0.5 -31.5t-3.5 -30.5t-9.5 -26.5q-8 -14 -21 -22t-27.5 -10t-28 3t-21.5 19q-13 20 -15.5 45.5t-2.5 51.5v86q0 35 -3 65
q-1 12 -6 17.5t-12 7.5t-16 2h-18h-23h-26.5h-25.5h-21q-33 0 -62.5 1t-65.5 6q-14 1 -20.5 10t-9 21t-2 25t2.5 22q2 11 7 18t13 13q11 8 24 8t25 2q5 0 24 0.5t45 0.5h56.5h57t46 -0.5t25.5 -0.5zM601 310q-7 0 -17.5 1t-21 4t-19.5 8t-14 14q-3 4 -4.5 11t-2 14.5t0 14.5
t1.5 11q2 11 11 19.5t21 13.5q4 1 15.5 2t23.5 1h30q-1 11 -1 21v31h-23q-7 0 -17.5 1t-21 4t-19.5 8t-14 14q-8 13 -8 27.5t6.5 27t18 21t27.5 9.5h9.5h18.5t18 0.5t8 2.5q2 10 1.5 22t0.5 24t4.5 22.5t13.5 18.5q8 6 19 8t21 3q25 3 43 -17q7 -9 10 -17q4 -12 3.5 -25
t-0.5 -26v-287v-13t-2 -29t-6.5 -31.5t-14.5 -21.5q-7 -4 -17 -6t-18 -2q-17 0 -33 11q-12 8 -17 19q-3 6 -5 15t-3 18.5t-2 18.5t-1 14h-23zM304 41q-1 14 -4.5 21.5t-20.5 8.5l-92 -1q-32 0 -51.5 8.5t-22.5 40.5q0 20 8.5 31.5t22.5 17.5t32 8t36 2q14 0 33.5 0.5t40.5 0
t40.5 -2t33.5 -3.5q21 -3 34.5 -7.5t21.5 -13.5t11.5 -23t3.5 -35v-112q-1 -13 -0.5 -23t0 -19t-3 -18t-8.5 -21q-11 -20 -32.5 -21.5t-43.5 3.5q-14 4 -21.5 11t-11 16.5t-4.5 20t-2 21.5v89v0zM552 70q-17 1 -30 0t-27 2q-4 1 -11 2.5t-14 6t-12 12.5t-6 21q1 15 2.5 21.5
t9.5 19.5q4 6 14.5 10.5t23.5 6.5t25 3t18 1q26 1 61.5 1.5t64.5 -4.5q21 -3 35 -7.5t22.5 -13t12.5 -22.5t4 -35q0 -22 0.5 -32.5t0.5 -19v-19t-1 -32.5q-1 -13 -0.5 -22.5t-0.5 -18.5t-3.5 -17.5t-8.5 -20.5q-10 -17 -29.5 -26.5t-38.5 -4.5q-25 7 -35 18t-12 34v96
q-1 14 -5.5 27t-21.5 14q-15 1 -19.5 0t-18.5 -1z" />
    <glyph glyph-name="uniACAC" unicode="&#xacac;" horiz-adv-x="803" 
d="M725 4l6.5 -2t14.5 -6.5t15 -12t9 -17.5q5 -38 -13 -59q-12 -14 -26 -17t-15 -3h-521q-41 0 -64 12.5t-23 35.5v139q0 6 -0.5 15t-0.5 19.5t0.5 19.5t0.5 15q2 21 20 34t41 13q5 0 12.5 -0.5t12.5 -2.5q13 -4 21 -13.5t12 -21.5t5 -25.5t2 -24.5v-18.5v-31v-30v-16.5
q3 -1 16.5 -2.5t50.5 -1.5q32 0 57 1t26 1h341v0zM340 672q9 0 23 -0.5t22 -2.5q14 -5 27.5 -12t22.5 -19q10 -12 14.5 -31.5t4.5 -35.5q0 -44 1.5 -86.5t-0.5 -86.5q-1 -13 -0.5 -28.5t-0.5 -31.5t-3.5 -30.5t-9.5 -26.5q-8 -14 -21 -22t-27.5 -10t-28 3t-21.5 19
q-13 20 -15.5 45.5t-2.5 51.5v86q0 35 -3 65q-1 12 -6 17.5t-12 7.5t-16 2h-18h-23h-26.5h-25.5h-21q-33 0 -62.5 1t-65.5 6q-14 1 -20.5 10t-9 21t-2 25t2.5 22q2 11 7 18t13 13q11 8 24 8t25 2q5 0 24 0.5t45 0.5h56.5h57t46 -0.5t25.5 -0.5zM738 655q3 -7 5 -21t3 -28.5
t1 -26.5v-14v-345q0 -1 -1 -7.5t-4.5 -15.5t-10 -18t-16.5 -15q-14 -9 -29 -9q-20 0 -35 12q-12 7 -18 20q-7 12 -9 24t-3 23v49h-3q-15 1 -32.5 1.5t-34 2.5t-29.5 7.5t-19 15.5q-7 11 -6.5 26.5t2.5 26.5q3 12 12 20t30 13q4 1 15.5 1.5t24 1.5t24 1.5t16.5 0.5v65
q-15 0 -33.5 -0.5t-35 1t-30 5.5t-19.5 14q-3 5 -4.5 13t-2 16.5t0.5 16.5t2 14q3 11 12 19t30 13q3 1 12.5 1.5t21.5 1t24.5 1t21.5 0.5q-1 9 0 25t3 24q3 8 5 16t9 16q9 10 24.5 14.5t33.5 2.5q32 -5 42 -25z" />
    <glyph glyph-name="uniACAF" unicode="&#xacaf;" horiz-adv-x="792" 
d="M75 67q-2 21 -0.5 45t14.5 44q7 10 19 15t25 6.5t23 1t13 -0.5h477q21 0 40 -1.5t39 -9.5q17 -7 26.5 -18t8.5 -29q-2 -17 -12.5 -29t-27.5 -17q-16 -4 -57 -4q-13 0 -21.5 0.5t-9.5 0.5h-365q-6 0 -16 1t-20 1t-18.5 -2t-11.5 -9q-2 -3 -4 -12t-2.5 -19t0.5 -18.5
t4 -10.5q4 -2 16 -4t17 -2q11 -1 21.5 -0.5t21.5 0.5h190q19 -2 35 0h145q25 0 45 -0.5t37 -8.5q11 -5 18 -10t9 -17q6 -25 -9 -45q-16 -20 -34.5 -23t-40.5 -4q-5 0 -17.5 -0.5t-29 -0.5h-36.5h-39q-46 0 -101 -1h-304q-8 1 -16 3q-7 2 -14 3t-12 3q-16 5 -20.5 23.5
t-5.5 32.5q-2 22 -0.5 47t0.5 47v22zM340 672q9 0 23 -0.5t22 -2.5q14 -5 27.5 -12t22.5 -19q10 -12 14.5 -31.5t4.5 -35.5q0 -44 1.5 -86.5t-0.5 -86.5q-1 -13 -0.5 -28.5t-0.5 -31.5t-3.5 -30.5t-9.5 -26.5q-8 -14 -21 -22t-27.5 -10t-28 3t-21.5 19q-13 20 -15.5 45.5
t-2.5 51.5v86q0 35 -3 65q-1 12 -6 17.5t-12 7.5t-16 2h-18h-23h-26.5h-25.5h-21q-33 0 -62.5 1t-65.5 6q-14 1 -20.5 10t-9 21t-2 25t2.5 22q2 11 7 18t13 13q11 8 24 8t25 2q5 0 24 0.5t45 0.5h56.5h57t46 -0.5t25.5 -0.5zM601 310q-7 0 -17.5 1t-21 4t-19.5 8t-14 14
q-3 4 -4.5 11t-2 14.5t0 14.5t1.5 11q2 11 11 19.5t21 13.5q4 1 15.5 2t23.5 1h30q-1 11 -1 21v31h-23q-7 0 -17.5 1t-21 4t-19.5 8t-14 14q-8 13 -8 27.5t6.5 27t18 21t27.5 9.5h9.5h18.5t18 0.5t8 2.5q2 10 1.5 22t0.5 24t4.5 22.5t13.5 18.5q8 6 19 8t21 3q25 3 43 -17
q7 -9 10 -17q4 -12 3.5 -25t-0.5 -26v-287v-13t-2 -29t-6.5 -31.5t-14.5 -21.5q-7 -4 -17 -6t-18 -2q-17 0 -33 11q-12 8 -17 19q-3 6 -5 15t-3 18.5t-2 18.5t-1 14h-23z" />
    <glyph glyph-name="uniACB0" unicode="&#xacb0;" horiz-adv-x="799" 
d="M720 -25q16 -1 28 -7.5t17 -22.5q12 -36 -26 -51q-12 -5 -24 -6t-23 -1h-465q-20 0 -41.5 0.5t-43.5 1.5q-21 1 -35 15t-16 37q-2 17 -2.5 32.5t-0.5 29.5v9q-1 11 0 26t10 25q14 15 37.5 19t45.5 4h20q5 -1 8 -1h6h436v33h-446q-5 0 -10.5 0.5t-11.5 -0.5h-24h-18t-16 2
q-9 2 -16 4t-12 10q-14 21 -7 43q3 8 9 12.5t14 7.5t15.5 4.5t13.5 2.5q8 1 15.5 1.5t15.5 0.5h18q5 -1 9 -1h9h452q51 0 78 -15.5t27 -50.5v-68q0 -14 -6.5 -27.5t-22.5 -22.5q-13 -8 -26 -8.5t-26 -0.5h-474v-37h509v0zM388 669q41 -6 57 -26.5t16 -64.5q0 -43 1.5 -86
t-0.5 -86q-1 -14 -1 -29.5t-0.5 -31t-3.5 -30t-9 -26.5q-8 -14 -21 -22t-27.5 -10t-28.5 3t-22 19q-9 15 -13 32.5t-4.5 36.5t0 38t0.5 36v47.5t-3 55.5q-2 21 -23 24.5t-49 3.5h-115h-25.5t-17.5 1t-18.5 2.5t-28.5 3.5q-17 2 -25 19t-8 41q1 21 15.5 31.5t31.5 15.5
q20 6 31 4t31 -2q3 0 3.5 -0.5t-0.5 -0.5h4.5h28.5t76 0.5t148 0.5zM744 316q-1 -11 -2.5 -22t-7.5 -22t-16 -20q-17 -10 -33 -10q-15 0 -28 8q-10 6 -16 14.5t-9.5 17t-4.5 14.5t-1 7v16q-17 0 -36.5 3t-35 10t-25 19.5t-6.5 32.5q3 22 12.5 33.5t31.5 12.5q13 1 28 1.5
t31 0.5v71q-18 1 -38.5 3t-37.5 8.5t-27 18.5t-7 33q3 22 12.5 33.5t31.5 12.5q12 1 30 1.5t35 0.5v22.5t5 25.5q10 19 41 24q17 2 31 -2t22 -14q14 -16 18 -30q1 -5 2 -16.5t1 -25v-25.5v-17v-125q0 -26 0.5 -36.5t1 -18t0 -19t-2.5 -41.5z" />
    <glyph glyph-name="uniACB8" unicode="&#xacb8;" horiz-adv-x="811" 
d="M103 -104q-1 0 -3 2q-10 8 -13.5 23.5t-3.5 26.5q-1 18 -2.5 36t-1.5 35v51t5 50q3 16 10 25.5t22 15.5q28 11 56 11h471q19 -1 39 -3t38 -10q20 -8 26.5 -26.5t8.5 -38.5q1 -17 1.5 -39.5t-0.5 -45.5t-3 -45.5t-7 -40.5q-3 -11 -7 -19.5t-16 -12.5q-11 -4 -22.5 -5
t-22.5 -1l-521 2q-13 1 -28 1t-26 8zM349 661q9 0 23 -0.5t22 -2.5q14 -5 27.5 -12t22.5 -19q10 -12 14.5 -31.5t4.5 -35.5q0 -44 1.5 -81.5t-0.5 -81.5q-1 -13 -0.5 -28.5t-0.5 -31.5t-3.5 -30.5t-9.5 -26.5q-8 -14 -21 -22t-27.5 -10t-28 3t-21.5 19q-13 20 -15.5 45.5
t-2.5 51.5v86q0 17 -0.5 28.5t-2.5 26.5q-1 12 -6 17.5t-12 7.5t-16 2h-18q-29 1 -54.5 1.5t-50 1t-49.5 1.5t-53 3q-14 1 -23.5 10t-15 21t-7.5 25t0 22q2 13 9 21t16.5 12t21.5 5.5t23 2.5q5 0 24 0.5t45 0.5h56h56.5t46 -0.5t25.5 -0.5zM610 310q-7 0 -17.5 1t-21 4
t-19.5 8t-14 14q-3 4 -4.5 11t-2 14.5t0 14.5t1.5 11q2 11 11 19.5t21 13.5q4 1 15.5 2t23.5 1h30q-1 11 -1 21v31h-23q-7 0 -17.5 1t-21 4t-19.5 8t-14 14q-8 13 -8 27.5t6.5 27t18 21t27.5 9.5h9.5h18.5t18 0.5t8 2.5q2 10 1.5 22t0.5 24t4.5 22.5t13.5 18.5q8 6 19 8
t21 3q25 3 43 -17q7 -9 10 -17q4 -12 3.5 -25t-0.5 -26v-275v-13t-2 -29t-6.5 -31.5t-14.5 -21.5q-7 -4 -17 -6t-18 -2q-17 0 -33 11q-12 8 -17 19q-6 11 -8 27t-3 27h-23zM198 13q0 -5 0.5 -9.5t3.5 -6.5q2 -2 6.5 -2.5t9.5 -0.5t12 1h313q14 -1 27 -2q11 -1 23 -1t22 2
q10 1 12 5.5t3 13.5q1 8 1 18.5t-6 18.5q-7 8 -19.5 8.5t-22.5 -0.5h-278q-22 2 -43 1.5t-43 -1.5q-8 0 -12.5 -0.5t-6.5 -9.5q-2 -7 -2 -13.5v-12.5q1 -2 0.5 -4t-0.5 -5z" />
    <glyph glyph-name="uniACB9" unicode="&#xacb9;" horiz-adv-x="799" 
d="M611 -110q-9 -2 -40.5 -2.5t-74.5 -0.5t-92 0.5t-92 1t-74 0.5h-39q-20 0 -42 3t-39 16q-11 9 -17.5 22.5t-9.5 26.5t-4 23t-1 11v80v29.5t0.5 26.5t0.5 19.5v8.5q0 14 5 26.5t19 18.5q7 3 15.5 4t16.5 2q17 1 34.5 -5.5t21.5 -26.5v-36q2 -15 7 -14.5t17 -0.5h405v36
q1 18 8 30.5t25 15.5q14 3 35 2t32 -11q10 -9 10 -21.5v-24.5q-2 -46 0 -94.5t-3 -94.5q-1 -14 -5 -23.5t-12 -20.5q-8 -12 -21.5 -17t-28.5 -7t-30 -2t-27 -1zM340 652q9 0 23 -0.5t22 -2.5q14 -5 27.5 -12t22.5 -19q10 -12 14.5 -31.5t4.5 -35.5q0 -44 1.5 -81.5
t-0.5 -81.5q-1 -13 -0.5 -28.5t-0.5 -31.5t-3.5 -30.5t-9.5 -26.5q-8 -14 -21 -22t-27.5 -10t-28 3t-21.5 19q-13 20 -15.5 45.5t-2.5 51.5v86q0 17 -0.5 28.5t-2.5 26.5q-1 12 -6 17.5t-12 7.5t-16 2h-18h-23h-26.5h-25.5h-21q-33 0 -62.5 1t-65.5 6q-14 1 -20.5 10t-9 21
t-2 25t2.5 22q2 11 7 18t13 13q11 8 24 8t25 2q5 0 24 0.5t45 0.5h56.5h57t46 -0.5t25.5 -0.5zM591 311q-7 0 -17.5 1t-21 4t-19.5 8t-14 14q-3 4 -4.5 11t-2 14.5t0 14.5t1.5 11q2 11 11 19.5t21 13.5q4 1 16.5 2t26.5 1h35v62h-33q-7 0 -17.5 1t-21 4t-19.5 8t-14 14
q-8 13 -8 27.5t6.5 27t18 21t27.5 9.5h11.5h22t21 0.5t9.5 2.5q2 10 1.5 20.5t0.5 20.5t4.5 19t13.5 17q8 6 19 8t21 3q25 3 43 -17q7 -9 10 -17q4 -12 3.5 -25t-0.5 -26v-267v-13t-2 -29t-6.5 -31.5t-14.5 -21.5q-7 -4 -17 -6t-18 -2q-17 0 -33 11q-12 8 -17 19
q-6 11 -8 23t-3 23h-33zM258 33q-9 0 -19.5 0.5t-18.5 -1t-13.5 -6t-5.5 -13.5q0 -11 1 -16q5 -17 15.5 -17.5t23.5 0.5q28 0 61 -0.5t63 -1.5h19.5t40 0.5t51 0.5t51 0.5t40 0.5h19.5q5 0 12 -1t13 0t10 5t4 12t1 14t-5 13q-7 8 -16.5 9t-19.5 0h-26.5h-60.5t-78 0.5
t-78 0.5h-60h-24z" />
    <glyph glyph-name="uniACBB" unicode="&#xacbb;" horiz-adv-x="819" 
d="M593 109q37 -26 73 -52t71 -54q12 -10 28 -20.5t19 -27.5q3 -14 -3.5 -29t-17.5 -24q-17 -14 -33 -12t-34 10q-37 17 -71 38t-68 44q-17 11 -33 23.5t-32 23.5q-11 8 -23 18t-28 8q-14 -1 -22 -6t-18 -13q-11 -8 -23.5 -18t-21.5 -18q-26 -22 -56.5 -44.5t-59.5 -37.5
q-11 -6 -25 -12t-28 -9.5t-28.5 -3t-26.5 6.5q-16 8 -23 24t-2 33t22.5 30t29.5 23q38 29 82 60.5t83 59.5q17 13 34 22.5t34 23.5q6 5 14 11.5t17 12t18 8.5t18 1q14 -4 24 -14t21 -18zM360 656q9 0 23 -0.5t22 -2.5q14 -5 27.5 -12t22.5 -19q10 -12 14.5 -31.5t4.5 -35.5
q0 -22 0.5 -39.5t1 -34t0.5 -34t-1 -39.5q-1 -13 -0.5 -28.5t-0.5 -31.5t-3.5 -30.5t-9.5 -26.5q-8 -14 -21 -22t-27.5 -10t-28 3t-21.5 19q-13 20 -15.5 45.5t-2.5 51.5v70q0 17 -0.5 28.5t-2.5 26.5q-1 12 -6 17.5t-12 7.5t-16 2h-18h-23h-26.5h-25.5h-21q-33 0 -62.5 1
t-65.5 6q-14 1 -20.5 10t-9 21t-2 25t2.5 22q2 11 7 18t13 13q11 8 24 8t25 2q5 0 24 0.5t45 0.5h56.5h57t46 -0.5t25.5 -0.5zM621 310q-7 0 -17.5 1t-21 4t-19.5 8t-14 14q-3 4 -4.5 11t-2 14.5t0 14.5t1.5 11q2 11 11 19.5t21 13.5q4 1 15.5 2t23.5 1h30q-1 11 -1 21v31
h-23q-7 0 -17.5 1t-21 4t-19.5 8t-14 14q-8 13 -8 27.5t6.5 27t18 21t27.5 9.5h9.5h18.5t18 0.5t8 2.5q2 10 1.5 22t0.5 24t4.5 22.5t13.5 18.5q8 6 19 8t21 3q25 3 43 -17q7 -9 10 -17q4 -12 3.5 -25t-0.5 -26v-287v-13t-2 -29t-6.5 -31.5t-14.5 -21.5q-7 -4 -17 -6t-18 -2
q-17 0 -33 11q-12 8 -17 19q-3 6 -5 15t-3 18.5t-2 18.5t-1 14h-23z" />
    <glyph glyph-name="uniACBC" unicode="&#xacbc;" horiz-adv-x="822" 
d="M253 -55q-11 -15 -22.5 -28.5t-25 -22.5t-28.5 -11.5t-32 3.5q-21 7 -24.5 21t2.5 30t17 31t18 26q18 29 35 58.5t37 57.5q8 11 17.5 24t20.5 23.5t24 18t28 8.5t27 -6t21.5 -17.5t18 -23t15.5 -22.5q36 -56 69 -111q17 26 32.5 53t33.5 53q16 23 37.5 47.5t52.5 26.5
q15 1 27 -6t21.5 -17.5t18 -23t15.5 -22.5q24 -35 45.5 -71.5t44.5 -72.5q6 -9 11.5 -17t9 -16t3.5 -16.5t-7 -18.5q-11 -17 -28 -20.5t-34 7.5q-34 20 -59 52t-48 62q-15 19 -24.5 18t-22.5 -20q-9 -12 -19 -24t-21 -29q-11 -15 -22.5 -29.5t-25 -24t-28.5 -12.5t-32 3
q-16 6 -22 15q-27 20 -48 48.5t-42 54.5q-15 19 -24 18t-23 -20q-9 -12 -19 -26t-21 -31zM349 655q9 0 23 -0.5t22 -2.5q14 -5 27.5 -12t22.5 -19q10 -12 14.5 -31.5t4.5 -35.5q0 -22 0.5 -39.5t1 -34t0.5 -33.5t-1 -39q-1 -13 -0.5 -28.5t-0.5 -31.5t-3.5 -30.5t-9.5 -26.5
q-8 -14 -21 -22t-27.5 -10t-28 3t-21.5 19q-13 20 -15.5 45.5t-2.5 51.5v69q0 17 -0.5 28.5t-2.5 26.5q-1 12 -6 17.5t-12 7.5t-16 2h-18h-23h-26.5h-25.5h-21q-33 0 -62.5 1t-65.5 6q-14 1 -20.5 10t-9 21t-2 25t2.5 22q2 11 7 18t13 13q11 8 24 8t25 2q5 0 24 0.5t45 0.5
h56.5h57t46 -0.5t25.5 -0.5zM610 310q-7 0 -17.5 1t-21 4t-19.5 8t-14 14q-3 4 -4.5 11t-2 14.5t0 14.5t1.5 11q2 11 11 19.5t21 13.5q4 1 15.5 2t23.5 1h30q-1 11 -1 21v31h-23q-7 0 -17.5 1t-21 4t-19.5 8t-14 14q-8 13 -8 27.5t6.5 27t18 21t27.5 9.5h9.5h18.5t18 0.5
t8 2.5q2 10 1.5 22t0.5 24t4.5 22.5t13.5 18.5q8 6 19 8t21 3q25 3 43 -17q7 -9 10 -17q4 -12 3.5 -25t-0.5 -26v-287v-13t-2 -29t-6.5 -31.5t-14.5 -21.5q-7 -4 -17 -6t-18 -2q-17 0 -33 11q-12 8 -17 19q-3 6 -5 15t-3 18.5t-2 18.5t-1 14h-23z" />
    <glyph glyph-name="uniACBD" unicode="&#xacbd;" horiz-adv-x="803" 
d="M369 655h18h7.5t8.5 -2q7 -2 14 -5.5t15 -5.5q6 -5 12 -10.5t12 -11.5q4 -6 7.5 -14.5t5.5 -19.5q5 -20 5 -33v-90q4 -45 0 -88v-31v-32q-2 -8 -2.5 -16t-2.5 -16q0 -8 -1.5 -15.5t-6.5 -13.5q-4 -5 -9.5 -11.5t-11.5 -10.5q-8 -4 -14 -7.5t-14 -3.5q-9 0 -15.5 0.5
t-14.5 5.5q-8 2 -13.5 6.5t-9.5 13.5q-10 16 -14 33q-2 8 -2 17.5v19.5q-2 10 -2.5 18.5t-0.5 19.5q2 10 2.5 19t0.5 17v56q0 14 -1.5 27t-3.5 25q0 13 -6 19q-2 4 -5 5.5t-5 1.5q-4 2 -9 2.5t-11 0.5h-18h-15h-6h-8h-16h-21h-71q-17 2 -35.5 3t-38.5 5q-14 0 -18 11
q-5 5 -7 10.5t-4 10.5q-2 7 -2.5 13t-0.5 14q0 6 1.5 11t1.5 9q2 11 7.5 18.5t13.5 14.5q13 8 23 8q8 2 15 2h16q5 2 12 2.5t14 0.5q8 -2 15.5 -2.5t15.5 -0.5h193zM129 34q0 22 5.5 41t17.5 33q26 29 69 48q40 15 98 24q30 4 59.5 5.5t61.5 1.5q33 0 64 -1.5t60 -3.5
q28 -4 53 -8.5t45 -12.5q44 -15 69 -48q24 -29 24 -79q0 -26 -6.5 -46t-17.5 -36q-23 -28 -69 -45q-20 -8 -45 -13.5t-53 -7.5q-29 -4 -60 -4.5t-64 -0.5q-32 0 -61.5 0.5t-59.5 4.5q-29 2 -53.5 7.5t-44.5 13.5q-45 16 -69 45q-23 30 -23 82zM617 20q0 11 -4 17.5t-12 13.5
q-8 4 -19 7t-23 5t-25.5 4t-30.5 2q-16 2 -31.5 2.5t-31.5 0.5t-31.5 -0.5t-28.5 -2.5q-16 0 -30 -2t-26 -4q-13 -2 -22.5 -5t-17.5 -7q-6 -7 -9.5 -13.5t-3.5 -17.5q0 -13 13 -23q17 -12 40 -15q12 -3 26 -5t30 -4q13 0 28.5 -1t31.5 -1h31.5t31.5 2q17 0 30.5 0.5
t25.5 2.5q24 3 42 16q16 10 16 28zM755 650q2 -4 2.5 -8t2.5 -11v-9.5t2 -11.5v-18v-11v-316v-9q-2 -4 -2.5 -8t-2.5 -9q-3 -8 -11 -17q-3 -10 -15 -14q-6 -4 -13.5 -7t-16.5 -3q-16 0 -34 13l-8.5 8.5t-6.5 9.5q-4 6 -6.5 12.5t-4.5 12.5q0 5 -0.5 11.5t-2.5 11.5v29h-2
h-32q-8 0 -16 1.5t-16 1.5q-8 2 -15.5 3t-13.5 5q-15 3 -18 16q-4 4 -6 11t-2 13q0 8 1.5 14t1.5 12q2 6 4.5 11.5t8.5 9.5q6 6 29 10q2 3 13 3q6 0 11.5 0.5t12.5 2.5h24h15v45h-32h-34q-8 2 -15.5 2.5t-13.5 2.5q-15 4 -18 14q-2 4 -3.5 6t-1.5 6t-1.5 8t-1.5 8v16
q2 4 2.5 7.5t0.5 8.5q2 5 4.5 10t8.5 9q6 6 29 13h10h21q6 2 12 2.5t12 0.5h21v23q2 8 2.5 13.5t0.5 10.5q2 4 4 7.5t2 8.5q4 10 10 16q4 6 9.5 8.5t13.5 4.5q15 7 33 2q16 -2 25.5 -7.5t16.5 -15.5z" />
    <glyph glyph-name="uniACC1" unicode="&#xacc1;" horiz-adv-x="811" 
d="M707 -42q21 0 39.5 -10t16.5 -36q-1 -17 -11 -25t-24 -11t-30 -2.5t-28 0.5h-429q-21 0 -40.5 0.5t-43.5 1.5q-22 2 -32.5 19.5t-14.5 35.5q-5 26 -4.5 51.5t0.5 51.5q0 19 -1.5 37.5t-0.5 37.5q1 17 3 34t13 31q27 30 72 30h22q5 -1 8 -1h7h198q52 0 104 -0.5t105 1.5
q12 0 30 1t36 -1t33.5 -7.5t22.5 -18.5q9 -17 1 -34.5t-24 -19.5q-28 -5 -54 -4.5t-54 0.5h-360q-8 0 -15 1t-15 0q-9 -1 -10.5 -2.5t-1.5 -9.5v-24q4 -6 12.5 -4.5t15.5 1.5q16 2 28.5 1.5t29.5 -0.5q29 0 58 -0.5t58 -0.5h280q11 0 25 -0.5t24 -8.5q11 -11 13 -31t-8 -31
q-6 -7 -14.5 -9.5t-19.5 -3.5q-26 -3 -52.5 -2t-47.5 1h-379h-10t-10 -2l-2 -32q5 -2 11 -2.5t11 -1.5q8 -1 10.5 -1h10.5h438v0zM359 667h17.5t16.5 -2q14 -5 27.5 -12t22.5 -19q10 -13 14.5 -32.5t4.5 -34.5q0 -44 1.5 -87t-0.5 -86q-1 -13 -1 -28.5t-0.5 -31.5
t-3.5 -30.5t-9 -26.5q-8 -14 -21 -22t-27.5 -10t-28.5 3t-22 19q-9 15 -13 32.5t-4.5 36.5t0 38t0.5 36v52t-3 52q-1 12 -6 17.5t-12 8t-16 2.5h-19h-13.5h-7.5h-7h-14h-43q-32 0 -67 0.5t-72 5.5q-13 2 -20 11t-9.5 21t-2 25t2.5 22q4 19 21 31q11 7 24 7.5t25 1.5
q14 2 28 1t28 -1h209v0zM610 310q-7 0 -17.5 1t-21 4t-19.5 8t-14 14q-3 4 -4.5 11t-2 14.5t0 14.5t1.5 11q2 11 11 19.5t21 13.5q4 1 15.5 2t23.5 1h30q-1 11 -1 21v31h-23q-7 0 -17.5 1t-21 4t-19.5 8t-14 14q-8 13 -8 27.5t6.5 27t18 21t27.5 9.5h9.5h18.5t18 0.5t8 2.5
q2 10 1.5 22t0.5 24t4.5 22.5t13.5 18.5q8 6 19 8t21 3q25 3 43 -17q7 -9 10 -17q4 -12 3.5 -25t-0.5 -26v-286v-10t-2 -22.5t-6.5 -25t-14.5 -18.5q-7 -4 -17 -6t-18 -2q-17 0 -33 11q-12 8 -17 19q-6 11 -8 23t-3 23h-23z" />
    <glyph glyph-name="uniACC4" unicode="&#xacc4;" horiz-adv-x="830" 
d="M260 20v28.5v32.5t-0.5 45t-0.5 67v98.5v138.5v32.5t-2 32.5q-3 18 -9 23t-24 5h-39h-33h-32.5h-35.5q-35 0 -52.5 18t-17.5 47q0 22 12 34.5t31 18.5t42 7.5t46 1.5h133q5 0 10.5 -0.5t10.5 -0.5q24 -1 47 -10q8 -3 15.5 -8t12.5 -12q10 -14 11 -26t3 -29
q1 -16 1.5 -41.5t0.5 -41.5q8 1 15 1h13h76v101v26.5t3 26.5q2 5 3.5 9t3.5 9q6 10 12 15.5t17 9.5q9 3 18 3q33 0 50 -30q4 -6 6 -17t3 -22.5t1 -20v-10.5v-473q0 -75 -1 -108q0 -25 -1.5 -40t-9.5 -38q-5 -15 -17 -25t-34 -10q-6 0 -13.5 1.5t-12.5 5.5q-10 6 -15.5 19.5
t-8.5 28.5t-3.5 29t-0.5 22v118l-94 2q-7 0 -10 1q0 -1 0.5 -12t0.5 -27v-34.5t-1 -34.5q-3 -36 -22.5 -58t-54.5 -22q-18 0 -29 9t-16 23t-6.5 30.5t-1.5 30.5zM787 562q2 -75 1 -152.5t-1 -148.5v-250q0 -26 -1.5 -50t-11.5 -45q-6 -13 -19 -22q-11 -7 -19 -8.5t-21 1.5
q-15 3 -24 12.5t-14.5 21.5t-7 26t-1.5 27v598v25.5t1.5 28t5 25.5t10.5 19q11 10 23 12.5t26 2.5q20 0 31 -14t15.5 -34t5.5 -41t1 -34zM400 364q-7 0 -10 1v-136q8 1 15 1h13h76v132z" />
    <glyph glyph-name="uniACC8" unicode="&#xacc8;" horiz-adv-x="822" 
d="M769 -37q5 -38 -13 -59q-12 -14 -26 -17t-15 -3h-500q-41 0 -71 12.5t-30 35.5v152q-2 22 0 45q2 21 16.5 34t37.5 13q5 0 18 -1t18 -3q13 -4 20.5 -11.5t11.5 -18t5 -22t2 -22.5q0 -5 0.5 -19t1 -29.5t1 -29.5t1.5 -17q3 -1 16.5 -2.5t50.5 -1.5q32 0 39.5 1t8.5 1h362
l6.5 -2t14.5 -6.5t15 -12t9 -17.5zM268 647h21t20 -2q14 -5 27.5 -12t22.5 -19q10 -13 14.5 -32.5t4.5 -34.5q0 -44 1.5 -87t-0.5 -86q-1 -13 -1 -28.5t-0.5 -31.5t-3.5 -30.5t-9 -26.5q-8 -14 -20.5 -22t-26.5 -10t-27.5 3t-21.5 19q-9 15 -13 32.5t-4.5 36.5t0 38t0.5 36
v52t-3 52q-1 12 -6 17.5t-12 8t-16 2.5h-19h-75h-23.5t-13.5 0.5t-14.5 2t-26.5 3.5q-13 2 -20 11t-9.5 21t-2 25t2.5 22q4 19 21 31q11 7 24 7.5t25 1.5h184zM604 330v-91q-1 -11 -3 -22.5t-8 -22.5q-9 -14 -17 -19t-13 -8t-13 -3q-15 0 -28 8q-10 6 -16 15t-9.5 17
t-4.5 14.5l-1 6.5v57h-12q-17 -1 -37 3t-33 24q-6 10 -5.5 24.5t2.5 25.5q3 11 11 18.5t28 11.5q5 1 18.5 2t27.5 2v69h-12q-17 -1 -37 3t-33 24q-6 10 -5.5 24.5t2.5 25.5q3 11 11 18.5t28 11.5q5 1 18.5 2t27.5 2v32q-1 5 1 22.5t7 29.5q11 21 41 24q31 4 47 -15
q7 -8 9 -15.5t5 -15.5q3 -10 2.5 -21t-0.5 -22zM649 596v22t3 21q6 17 18 30q8 10 19 14t28 2q27 -4 37 -26q6 -12 7 -28.5t0 -21.5v-385q0 -1 -0.5 -7t-3 -14.5t-8 -17.5t-15.5 -15q-7 -4 -11.5 -5.5t-12.5 -1.5q-16 0 -33 10q-5 4 -9 9t-8 11q-15 28 -13.5 61.5t1.5 64.5
v21.5v50.5v65.5v65.5t0.5 51t0.5 23z" />
    </font>
</defs>
</svg>
